/* XPM */
static char * a0d_xpm[] = {
"40 24 255 2",
"  	c None",
". 	c #FFFF00",
"+ 	c #F6F500",
"@ 	c #FCF800",
"# 	c #F4F100",
"$ 	c #F2EF00",
"% 	c #FFFC00",
"& 	c #EAE700",
"* 	c #CCCA00",
"= 	c #C5C300",
"- 	c #F8F500",
"; 	c #EEEA00",
"> 	c #EBE800",
", 	c #E8E500",
"' 	c #E7E400",
") 	c #E6E300",
"! 	c #E5E200",
"~ 	c #D3D000",
"{ 	c #BFBD00",
"] 	c #F0EC00",
"^ 	c #E5E100",
"/ 	c #E2DE00",
"( 	c #E1DD00",
"_ 	c #DCD800",
": 	c #CBC800",
"< 	c #B5B200",
"[ 	c #ADAA00",
"} 	c #EAE400",
"| 	c #DFDA00",
"1 	c #DCD700",
"2 	c #DBD600",
"3 	c #D4CF00",
"4 	c #B1AD00",
"5 	c #888400",
"6 	c #E6DF00",
"7 	c #DAD300",
"8 	c #D7D100",
"9 	c #BFBA15",
"0 	c #8F8B40",
"a 	c #A7A32A",
"b 	c #D6D000",
"c 	c #D2CC00",
"d 	c #B1AC00",
"e 	c #767300",
"f 	c #F3EB00",
"g 	c #D7D000",
"h 	c #D1CA00",
"i 	c #8B8640",
"j 	c #0000C0",
"k 	c #747055",
"l 	c #BAB315",
"m 	c #5D5A6A",
"n 	c #454380",
"o 	c #D0C900",
"p 	c #CEC700",
"q 	c #BAB400",
"r 	c #858100",
"s 	c #736F00",
"t 	c #E4DB00",
"u 	c #CEC600",
"v 	c #CCC400",
"w 	c #888240",
"x 	c #5B576A",
"y 	c #2D2B95",
"z 	c #CBC300",
"A 	c #C1B900",
"B 	c #999300",
"C 	c #6E6900",
"D 	c #A59F00",
"E 	c #FBF100",
"F 	c #EFE500",
"G 	c #D1C900",
"H 	c #C7BF00",
"I 	c #C6BE00",
"J 	c #423F80",
"K 	c #58546A",
"L 	c #9A942A",
"M 	c #C5BD00",
"N 	c #C0B800",
"O 	c #9A9400",
"P 	c #5D5A00",
"Q 	c #898400",
"R 	c #EDE100",
"S 	c #DFD400",
"T 	c #C7BC00",
"U 	c #C1B700",
"V 	c #ABA215",
"W 	c #2B2895",
"X 	c #807A40",
"Y 	c #403D80",
"Z 	c #1514AA",
"` 	c #C0B600",
" .	c #BCB200",
"..	c #958D00",
"+.	c #534F00",
"@.	c #7A7400",
"#.	c #E4D800",
"$.	c #D6CB00",
"%.	c #BFB500",
"&.	c #BAB000",
"*.	c #BBB100",
"=.	c #7C7640",
"-.	c #918A2A",
";.	c #3E3B80",
">.	c #B5AB00",
",.	c #8E8700",
"'.	c #4E4A00",
").	c #736D00",
"!.	c #D5C700",
"~.	c #CBBE00",
"{.	c #BAAE00",
"].	c #B6AA00",
"^.	c #514C6A",
"/.	c #3C3880",
"(.	c #8E842A",
"_.	c #797140",
":.	c #282695",
"<.	c #B4A800",
"[.	c #AA9F00",
"}.	c #7D7500",
"|.	c #433F00",
"1.	c #6A6300",
"2.	c #BFB200",
"3.	c #BDB000",
"4.	c #B5A900",
"5.	c #B0A400",
"6.	c #625B55",
"7.	c #897F2A",
"8.	c #1412AA",
"9.	c #272495",
"0.	c #4E496A",
"a.	c #756D40",
"b.	c #ADA100",
"c.	c #988D00",
"d.	c #5E5700",
"e.	c #353100",
"f.	c #5F5800",
"g.	c #B8AA00",
"h.	c #BAAC00",
"i.	c #B6A800",
"j.	c #AC9F00",
"k.	c #AA9D00",
"l.	c #AB9E00",
"m.	c #988C15",
"n.	c #726940",
"o.	c #393480",
"p.	c #857B2A",
"q.	c #1311AA",
"r.	c #4C466A",
"s.	c #5F5755",
"t.	c #A59900",
"u.	c #877D00",
"v.	c #484300",
"w.	c #322E00",
"x.	c #B8A800",
"y.	c #B2A300",
"z.	c #A79900",
"A.	c #A49600",
"B.	c #A59700",
"C.	c #6E6440",
"D.	c #373280",
"E.	c #928615",
"F.	c #242195",
"G.	c #A29500",
"H.	c #988B00",
"I.	c #716700",
"J.	c #3B3600",
"K.	c #3C3700",
"L.	c #A39400",
"M.	c #9E9000",
"N.	c #9F9000",
"O.	c #A09100",
"P.	c #232095",
"Q.	c #353080",
"R.	c #6A6040",
"S.	c #1210AA",
"T.	c #595055",
"U.	c #9E8F00",
"V.	c #968800",
"W.	c #7A6E00",
"X.	c #4B4400",
"Y.	c #2D2900",
"Z.	c #443E00",
"`.	c #857700",
" +	c #8C7E00",
".+	c #968600",
"++	c #998900",
"@+	c #9A8A00",
"#+	c #665C40",
"$+	c #786B2A",
"%+	c #897A15",
"&+	c #988800",
"*+	c #908100",
"=+	c #766A00",
"-+	c #4B4300",
";+	c #2A2600",
">+	c #2C2800",
",+	c #7C6E00",
"'+	c #7B6D00",
")+	c #867700",
"!+	c #8F7F00",
"~+	c #928100",
"{+	c #938200",
"]+	c #948400",
"^+	c #958400",
"/+	c #948300",
"(+	c #908000",
"_+	c #897900",
":+	c #716500",
"<+	c #494000",
"[+	c #292400",
"}+	c #766800",
"|+	c #736500",
"1+	c #736600",
"2+	c #7F7000",
"3+	c #877700",
"4+	c #8A7A00",
"5+	c #8B7B00",
"6+	c #8A7900",
"7+	c #857500",
"8+	c #7A6C00",
"9+	c #706300",
"0+	c #625600",
"a+	c #433B00",
"b+	c #272300",
"c+	c #6A5B00",
"d+	c #554900",
"e+	c #4D4200",
"f+	c #584C00",
"g+	c #675900",
"h+	c #6B5D00",
"i+	c #6B5C00",
"j+	c #695B00",
"k+	c #5F5200",
"l+	c #4A3F00",
"m+	c #3A3200",
"n+	c #322B00",
"o+	c #272100",
"p+	c #282300",
"q+	c #493E00",
"r+	c #473D00",
"s+	c #3E3500",
"t+	c #393100",
"u+	c #383000",
"v+	c #372F00",
"w+	c #312A00",
"x+	c #272200",
"y+	c #302900",
"z+	c #665600",
"A+	c #584A00",
"B+	c #504400",
"C+	c #4F4300",
"D+	c #4E4100",
"E+	c #4A3E00",
"F+	c #443900",
"                                                                                ",
"                  . . . . . . . . . . . . . . . . . . . . . . .                 ",
"              . . . . . . . . . . . . . . . . . . . . . . . . . . +             ",
"          . . . . . @ # $ $ $ $ $ $ $ $ $ $ $ $ $ $ $ $ $ $ # @ % & * =         ",
"        . . . - ; > , ' ' ' ' ' ' ' ' ' ' ' ' ' ' ' ' ' ) ' ' & & ! ~ { {       ",
"      . . . ] ^ / / / / / / / / / / / / / / / / / / / / / / / ( ( ( _ : < [     ",
"      . . } | 1 1 1 1 1 1 1 1 1 1 1 1 1 1 1 1 1 1 1 1 1 1 1 1 1 2 2 2 3 4 5     ",
"    . . 6 7 8 8 8 8 8 8 8 8 9 0 a 8 8 8 8 8 8 8 8 8 8 8 8 8 8 8 8 b b c d e e   ",
"    . f g h h h h h h h h h i j k h h h h h h h h l m n n m l h h h o p q r s   ",
"  . % t u v v v v v v v v v w j v v v v v v v v v x j x x j y v v v v z A B C D ",
"  E F G H I I I I I I I I I J K I I I J J J L I I J j I I J j I I I I M N O P Q ",
"  R S T U U U U U U U U U V W X U V W W Y Z j V X j X U U X j X U U U `  ...+.@.",
"  #.$.%.&.*.*.*.*.*.*.*.*.=.Z -.*.-.;.-.*.=.j =.=.j =.*.*.=.j =.*.*.*.&.>.,.'.).",
"  !.~.{.].].].].].].].].].^./.].].].(._./.:.j _._.j _.].]._.j _.].].].<.[.}.|.1.",
"  2.3.4.5.5.5.5.5.5.5.5.5.j 6.5.5.7.8.j 9.0.j a.a.j a.5.5.a.j a.5.5.5.b.c.d.e.f.",
"  g.h.i.j.k.l.l.l.l.l.l.m.j n.l.l.o.j p.l.n.j n.p.q.r.l.l.s.j p.l.l.k.t.u.v.w.  ",
"    x.y.z.A.A.B.B.B.B.B.C.D.B.B.B.D.j E.E.F.j C.B.D.j E.E.F.j B.B.A.G.H.I.J.K.  ",
"    L.M.M.N.N.N.O.O.O.O.P.Q.O.O.O.R.S.P.P.P.S.P.O.R.S.P.P.S.T.O.N.U.V.W.X.Y.Z.  ",
"      `. +.+++++++@+@+@+#+$+@+@+@+@+$+#+#+%+$+#+@+@+$+#+#+$+@+++&+*+=+-+;+>+    ",
"      ,+'+)+!+~+{+]+]+]+^+^+^+^+^+^+^+^+^+^+^+^+^+^+^+^+]+/+~+(+_+:+<+[+[+      ",
"        }+|+1+}+2+3+4+5+4+4+4+4+4+4+4+4+4+4+4+4+4+4+4+4+6+7+8+9+0+a+b+b+        ",
"          c+d+e+f+g+h+i+i+i+i+i+i+i+i+i+i+i+i+i+i+i+i+i+j+k+l+m+n+o+p+          ",
"              q+q+r+s+t+u+u+u+u+u+u+u+u+u+u+u+u+u+u+u+u+v+w+x+o+y+u+            ",
"                  z+A+B+C+C+C+C+C+C+C+C+C+C+C+C+C+C+C+C+D+E+F+                  "};
