/* XPM */
static char * a0p_xpm[] = {
"42 24 287 2",
"  	c None",
". 	c #4A4A00",
"+ 	c #5C5C00",
"@ 	c #676700",
"# 	c #6A6900",
"$ 	c #6B6B00",
"% 	c #757400",
"& 	c #858500",
"* 	c #888800",
"= 	c #575700",
"- 	c #666600",
"; 	c #818000",
"> 	c #A7A600",
", 	c #B8B700",
"' 	c #BBBA00",
") 	c #BCBB00",
"! 	c #B4B300",
"~ 	c #9A9A00",
"{ 	c #868600",
"] 	c #959400",
"^ 	c #414100",
"/ 	c #706E00",
"( 	c #A2A000",
"_ 	c #BAB700",
": 	c #CBC800",
"< 	c #DCD900",
"[ 	c #E4E100",
"} 	c #E5E200",
"| 	c #E6E400",
"1 	c #E0DD00",
"2 	c #D3D000",
"3 	c #C3C000",
"4 	c #BFBC00",
"5 	c #BEBB00",
"6 	c #C4C200",
"7 	c #403F00",
"8 	c #716F00",
"9 	c #B0AD00",
"0 	c #D4D100",
"a 	c #DFDC00",
"b 	c #E2DF00",
"c 	c #E6E300",
"d 	c #E7E400",
"e 	c #E3E000",
"f 	c #DEDB00",
"g 	c #D0CD00",
"h 	c #BFBD00",
"i 	c #C0BE00",
"j 	c #3E3D00",
"k 	c #6E6C00",
"l 	c #ADAA00",
"m 	c #D3CF00",
"n 	c #DEDA00",
"o 	c #E1DD00",
"p 	c #E2DE00",
"q 	c #DCD800",
"r 	c #CECA00",
"s 	c #C3BF00",
"t 	c #686500",
"u 	c #A7A400",
"v 	c #CDC900",
"w 	c #D8D400",
"x 	c #DBD600",
"y 	c #DCD700",
"z 	c #DAD500",
"A 	c #E0DB00",
"B 	c #4D4B00",
"C 	c #938F00",
"D 	c #C6C100",
"E 	c #D4CE00",
"F 	c #D6D000",
"G 	c #D7D100",
"H 	c #DAD300",
"I 	c #E8E100",
"J 	c #EFE800",
"K 	c #F0EA00",
"L 	c #585500",
"M 	c #A59F00",
"N 	c #CAC300",
"O 	c #D0C900",
"P 	c #D1CA00",
"Q 	c #A39D2A",
"R 	c #BAB315",
"S 	c #D2CB00",
"T 	c #DED700",
"U 	c #E4DC00",
"V 	c #E0D900",
"W 	c #3D3A00",
"X 	c #6D6800",
"Y 	c #B0A900",
"Z 	c #C9C100",
"` 	c #CCC400",
" .	c #B5AE15",
"..	c #9F982A",
"+.	c #444180",
"@.	c #888240",
"#.	c #5B576A",
"$.	c #D2CA00",
"%.	c #DBD200",
"&.	c #DDD500",
"*.	c #D1C900",
"=.	c #494600",
"-.	c #888300",
";.	c #B9B100",
">.	c #C4BC00",
",.	c #C6BE00",
"'.	c #847E40",
").	c #1615AA",
"!.	c #2C2A95",
"~.	c #0000C0",
"{.	c #58546A",
"].	c #CBC200",
"^.	c #DDD400",
"/.	c #E7DE00",
"(.	c #E1D800",
"_.	c #504C00",
":.	c #938B00",
"<.	c #BBB100",
"[.	c #C0B600",
"}.	c #C1B700",
"|.	c #2B2895",
"1.	c #56516A",
"2.	c #6B6555",
"3.	c #403D80",
"4.	c #968E2A",
"5.	c #C5BB00",
"6.	c #DDD200",
"7.	c #EBDF00",
"8.	c #E6DA00",
"9.	c #514C00",
"0.	c #908900",
"a.	c #B6AC00",
"b.	c #BAB000",
"c.	c #3E3B80",
"d.	c #918A2A",
"e.	c #686255",
"f.	c #A69D15",
"g.	c #292795",
"h.	c #1514AA",
"i.	c #7C7640",
"j.	c #D8CD00",
"k.	c #E2D600",
"l.	c #565000",
"m.	c #8E8400",
"n.	c #B0A500",
"o.	c #B5A900",
"p.	c #B6AA00",
"q.	c #8E842A",
"r.	c #3C3880",
"s.	c #797140",
"t.	c #B7AB00",
"u.	c #C0B400",
"v.	c #DCCD00",
"w.	c #E7D800",
"x.	c #E3D400",
"y.	c #5F5800",
"z.	c #847B00",
"A.	c #A69B00",
"B.	c #AFA300",
"C.	c #B0A400",
"D.	c #897F2A",
"E.	c #756D40",
"F.	c #3A3680",
"G.	c #272495",
"H.	c #B2A600",
"I.	c #C5B700",
"J.	c #E2D300",
"K.	c #E9D900",
"L.	c #E4D500",
"M.	c #5E5700",
"N.	c #6D6500",
"O.	c #988D00",
"P.	c #A89C00",
"Q.	c #AA9D00",
"R.	c #AB9E00",
"S.	c #857B2A",
"T.	c #1311AA",
"U.	c #262395",
"V.	c #4C466A",
"W.	c #726940",
"X.	c #B0A300",
"Y.	c #C7B800",
"Z.	c #E0CF00",
"`.	c #E3D200",
" +	c #5B5300",
".+	c #887C00",
"++	c #A29400",
"@+	c #A49600",
"#+	c #A59700",
"$+	c #373280",
"%+	c #80752A",
"&+	c #6E6440",
"*+	c #1211AA",
"=+	c #49436A",
"-+	c #5B5455",
";+	c #A79900",
">+	c #B0A100",
",+	c #CAB900",
"'+	c #D8C600",
")+	c #D7C500",
"!+	c #635900",
"~+	c #817500",
"{+	c #9A8C00",
"]+	c #9F9000",
"^+	c #A09100",
"/+	c #353080",
"(+	c #8E8115",
"_+	c #232095",
":+	c #6A6040",
"<+	c #A29300",
"[+	c #AA9A00",
"}+	c #BEAC00",
"|+	c #D4C000",
"1+	c #D8C400",
"2+	c #D3BF00",
"3+	c #7B6F00",
"4+	c #8B7C00",
"5+	c #968600",
"6+	c #998900",
"7+	c #9A8A00",
"8+	c #665C40",
"9+	c #110FAA",
"0+	c #221E95",
"a+	c #554C55",
"b+	c #9C8C00",
"c+	c #A49300",
"d+	c #B7A400",
"e+	c #CCB700",
"f+	c #D6BF00",
"g+	c #D5BF00",
"h+	c #7B6D00",
"i+	c #887800",
"j+	c #948300",
"k+	c #978600",
"l+	c #958400",
"m+	c #948400",
"n+	c #74672A",
"o+	c #635840",
"p+	c #847515",
"q+	c #75672A",
"r+	c #988600",
"s+	c #998800",
"t+	c #A08E00",
"u+	c #B29D00",
"v+	c #C5AF00",
"w+	c #CFB700",
"x+	c #776900",
"y+	c #8E7D00",
"z+	c #9A8800",
"A+	c #938200",
"B+	c #928100",
"C+	c #A08D00",
"D+	c #A79300",
"E+	c #AF9A00",
"F+	c #BEA700",
"G+	c #C6AF00",
"H+	c #7D6C00",
"I+	c #8D7900",
"J+	c #9A8500",
"K+	c #978200",
"L+	c #948000",
"M+	c #9E8900",
"N+	c #9F8900",
"O+	c #A18B00",
"P+	c #A79000",
"Q+	c #B29900",
"R+	c #B59C00",
"S+	c #BBA100",
"T+	c #BFA500",
"U+	c #947F00",
"V+	c #8E7A00",
"W+	c #8F7B00",
"X+	c #9A8400",
"Y+	c #A08900",
"Z+	c #A28B00",
"`+	c #A38B00",
" @	c #A89000",
".@	c #AF9600",
"+@	c #B09700",
"@@	c #AC9300",
"#@	c #AE9500",
"$@	c #816D00",
"%@	c #8F7900",
"&@	c #967E00",
"*@	c #988000",
"=@	c #9D8400",
"-@	c #A48A00",
"                                                                                    ",
"                  . + @ # # # # # # # # # # # # # # # # # # $ % & *                 ",
"              = - ; > , ' ' ' ' ' ' ' ' ' ' ' ' ' ' ' ' ' ' ' ) ! ~ { ]             ",
"          ^ / ( _ : < [ } } } } } } } } } } } } } } } } } } | } 1 2 3 4 5 6         ",
"        7 8 9 0 a b } c d d d d d d d d d d d d d d d d d d c c c e b f g h i       ",
"      j k l m n o p p p p p p p p p p p p p p p p p p p p p p p p o o o q r s :     ",
"      t u v w x y y y y y y y y y y y y y y y y y y y y y y y y y y x x x z z A     ",
"    B C D E F G G G G G G G G G G G G G G G G G G G G G G G G G G G G F F H I J K   ",
"    L M N O P P P P P P P P P Q R P P P P P P P P P P P P P P P P P P P O S T U V   ",
"  W X Y Z ` ` ` ` ` ` ` `  ...+.@.@.` ` ` ` ` ` ` ` `  .#.+.+.#. .` ` ` ` ` $.%.&.*.",
"  =.-.;.>.,.,.,.,.,.,.,.,.'.).).!.~.,.,.,.,.,.,.,.,.,.{.~.{.{.~.!.,.,.,.,.,.].^./.(.",
"  _.:.<.[.}.}.}.}.}.}.}.}.}.|.1.|.2.}.}.}.3.3.3.4.}.}.3.~.}.}.3.~.}.}.}.}.[.5.6.7.8.",
"  9.0.a.b.<.<.<.<.<.<.<.<.<.c.d.e.e.<.f.g.g.c.h.~.f.i.~.i.<.<.i.~.i.<.<.<.<.[.j.8.k.",
"  l.m.n.o.p.p.p.p.p.p.p.p.p.p.p.p.p.p.q.r.q.p.s.~.s.s.~.s.p.p.s.~.s.p.p.p.t.u.v.w.x.",
"  y.z.A.B.C.C.C.C.C.C.C.C.C.C.C.C.C.C.C.D.E.F.G.~.E.E.~.E.C.C.E.~.E.C.C.C.H.I.J.K.L.",
"  M.N.O.P.Q.R.R.R.R.R.R.R.R.R.R.R.R.R.S.T.~.U.V.~.W.W.~.W.R.R.W.~.W.R.R.R.X.Y.Z.`.  ",
"     +.+++@+@+#+#+#+#+#+#+#+#+#+#+#+#+$+~.%+#+&+~.&+%+*+=+#+#+-+~.%+#+#+;+>+,+'+)+  ",
"    !+~+{+]+]+]+^+^+^+^+^+^+^+^+^+^+^+/+~.(+(+_+~.:+^+/+~.(+(+_+~.^+^+<+[+}+|+1+2+  ",
"      3+4+5+6+6+6+7+7+7+7+7+7+7+7+7+7+8+9+0+0+0+9+0+7+8+9+0+0+9+a+7+b+c+d+e+f+g+    ",
"      h+h+i+j+k+k+l+l+m+l+l+l+l+l+l+l+l+n+o+o+p+n+o+l+l+n+o+o+q+r+s+t+u+v+w+w+      ",
"        x+h+y+z+r+A+B+B+B+B+B+B+B+B+B+B+B+B+B+B+B+B+B+B+B+B+A+r+C+D+E+F+G+G+        ",
"          H+I+J+K+L+J+M+N+N+N+N+N+N+N+N+N+N+N+N+N+N+N+N+N+N+O+P+Q+R+R+S+T+          ",
"              U+V+W+X+Y+Z+Z+Z+Z+Z+Z+Z+Z+Z+Z+Z+Z+Z+Z+Z+Z+Z+Z+`+ @.@+@@@#@            ",
"                  $@%@&@*@*@*@*@*@*@*@*@*@*@*@*@*@*@*@*@*@*@*@=@-@                  "};
