/* XPM */
static char * about_xpm[] = {
"22 20 2 1",
"       c None",
".      c #00FFFF",
"                      ",
"                      ",
"         ..           ",
"         ..           ",
"        ...           ",
"        ....          ",
"       .....          ",
"      ......          ",
"      .  ...          ",
"     ..  ...          ",
"    ...  ...          ",
"    .........         ",
"   ..     ...         ",
"   .      ...         ",
"  ..      ....        ",
"  ...   .......       ",
"                      ",
"                      ",
"                      ",
"                      "};
