/* XPM */
static char *add_bond_xpm[]={
"22 22 3 1",
". c None",
"a c #000000",
"# c #ff0000",
"......................",
"......................",
"......................",
"......................",
"......................",
"...................##.",
"..................##..",
".................##...",
".........###....##....",
"........##..#..##.....",
"..aaaaaaaaaaaaaaaaaaa.",
"..aaaaaaaaaaaaaaaaaaa.",
".....##...#..#........",
"....##...#.###........",
"...##.....##..........",
"..##..................",
"..#...................",
"......................",
"......................",
"......................",
"......................",
"......................"};
