/* XPM */
static char * adf_xpm[] = {
"32 32 160 2",
"  	c None",
". 	c None",
"# 	c #E9E8DF",
"$ 	c #ECDDBB",
"% 	c #ECDDBC",
"& 	c #E8EAE2",
"* 	c #EBDEBE",
"= 	c #ECDCBA",
"- 	c #E9E7DA",
"; 	c #E7EFF2",
"> 	c #E8EBE6",
", 	c #EBDFC1",
"' 	c #ECDCB9",
") 	c #E9E6D6",
"! 	c #E7EEF1",
"~ 	c #E9E8DE",
"{ 	c #EFBE64",
"] 	c #BE963A",
"^ 	c #88834F",
"/ 	c #89834F",
"( 	c #BF963B",
"_ 	c #F0C068",
": 	c #E8EAE5",
"< 	c #F0C372",
"[ 	c #C79A3A",
"} 	c #8C844D",
"| 	c #868250",
"1 	c #B6923C",
"2 	c #EEBA5C",
"3 	c #EAE5D5",
"4 	c #E8ECEB",
"5 	c #F0C980",
"6 	c #CF9E3A",
"7 	c #A18A42",
"8 	c #CE982B",
"9 	c #AE8F3E",
"0 	c #ECB651",
"a 	c #EAE1CA",
"b 	c #E2AA40",
"c 	c #51726C",
"d 	c #145F8C",
"e 	c #155F8C",
"f 	c #55736A",
"g 	c #E5AC40",
"h 	c #EAB24A",
"i 	c #637763",
"j 	c #16608B",
"k 	c #456E72",
"l 	c #DAA53B",
"m 	c #EFB854",
"n 	c #757D59",
"o 	c #18608A",
"p 	c #34697B",
"q 	c #9F8A43",
"r 	c #376A79",
"s 	c #CE9E39",
"t 	c #EBE0C4",
"u 	c #52726C",
"v 	c #1A6189",
"w 	c #5E7665",
"x 	c #B08F3A",
"y 	c #416D74",
"z 	c #C09432",
"A 	c #2E677E",
"B 	c #E7AE42",
"C 	c #E7EEEF",
"D 	c #E8EAE3",
"E 	c #C09637",
"G 	c #B99236",
"H 	c #BA9235",
"I 	c #DD9D23",
"J 	c #256483",
"K 	c #A98D3E",
"L 	c #376A7A",
"M 	c #226384",
"N 	c #54736A",
"O 	c #91854B",
"P 	c #8C844E",
"Q 	c #948749",
"R 	c #396A79",
"S 	c #787E58",
"T 	c #B39039",
"U 	c #5D7666",
"V 	c #5D7566",
"W 	c #EFCF91",
"X 	c #EBDEC0",
"Y 	c #8E844C",
"Z 	c #968748",
"` 	c #406D75",
" .	c #30677E",
"..	c #5B7567",
"+.	c #A38B41",
"@.	c #5C7567",
"#.	c #EFCF93",
"$.	c #EEA522",
"%.	c #BF9433",
"&.	c #988747",
"*.	c #17608B",
"=.	c #BB9334",
"-.	c #236484",
";.	c #AD8E3C",
">.	c #33697C",
",.	c #2A6680",
"'.	c #978748",
").	c #1D6287",
"!.	c #978847",
"~.	c #F0C26E",
"{.	c #617764",
"].	c #AE8E3B",
"^.	c #496F70",
"/.	c #C29531",
"(.	c #A18A43",
"_.	c #32687C",
":.	c #B49138",
"<.	c #1F6286",
"[.	c #36697A",
"}.	c #EAB147",
"|.	c #E7EEF0",
"1.	c #E8AF45",
"2.	c #627763",
"3.	c #E9B047",
"4.	c #EDB652",
"5.	c #707B5C",
"6.	c #E0A93F",
"7.	c #F0BC5E",
"8.	c #838152",
"9.	c #4F716D",
"0.	c #D5A23B",
"a.	c #EAE2CD",
"b.	c #E8EAE4",
"c.	c #F0C472",
"d.	c #CA9C3A",
"e.	c #988847",
"f.	c #CC9D3B",
"g.	c #F0C576",
"h.	c #E8ECEA",
"i.	c #F0C87F",
"j.	c #D2A03B",
"k.	c #9A8846",
"l.	c #958748",
"m.	c #C4993A",
"n.	c #EFC068",
"o.	c #E9E8DD",
"p.	c #E7EDEE",
"q.	c #EFCE8E",
"r.	c #F4AD30",
"s.	c #A88D3F",
"t.	c #93864A",
"u.	c #E0A029",
"v.	c #F0BB5B",
"w.	c #EAE4D3",
"x.	c #EAE2CA",
"y.	c #E8EBE7",
"z.	c #E8ECE9",
"A.	c #EBE1C8",
"B.	c #E8EDEC",
"C.	c #EAE3D0",
"D.	c #EBE0C6",
"E.	c #E9E9E0",
"F.	c #F1F6F8",
". . . . . . . . . . . . . . . . . . . . . . . . . . . . . . . . ",
". . . . . . . . . . . . . . . . . . . . . . . . . . . . . . . . ",
". . . . . . . . . . . . . . . . . . . . . . . . . . . . . . . . ",
". . . . . . . . . . . . . . . . . . . . . . . . . . . . . . . . ",
". . . . . . . . . . . . . . . . . . . . . . . . . . . . . . . . ",
". . . . . . . . . . . . . . . . . . . . . . . . . . . . . . . . ",
". . . . . . . . . . . . . . . . . . . . . . . . . . . . . . . . ",
". . . . . . . . . . . . . . . . . . . . . . . . . . . . . . . . ",
". . . . . . . . . . . . . . . . . . . . . . . . . . . . . . . . ",
". . . . . . . . . . . . . . . . . . . . . . . . . . . . . . . . ",
". . . . . . # $ % # . . . . & * = - ; . . . > , ' ) ! . . . . . ",
". . . . ~ { ] ^ / ( _ # : < [ } | 1 2 3 4 5 6 7 8 9 0 a . . . . ",
". . . ~ b c d d d e f g h i j d d d k l m n o p q d r s t . . . ",
". . . _ u d d d d o v w x d d d d d d y z j d p q d d A B C . . ",
". . D E d d d d d . G H I J d d d d d d K L d M N d d d O = . . ",
". . * P d d d d d d d d Q y d d d R S S T U d d d d d d V W . . ",
". . X Y d d d d d d d d Z ` d d d  .........d d d d d d w #.. . ",
". . > $.z %.&.d d d d *.=.-.d d d d d d ;.>./ ,.d '.).d !.* . . ",
". . . ~...d d d d d d {.].d d d d d d ^./.j (._.d :.<.[.}.|.. . ",
". . . D 1.w j d d j 2.3.4.5.o d d e c 6.7.8.K _.d :.9.0.a.. . . ",
". . . . b.c.d.'.e.f.g.: h.i.j.k.l.m.n.o.p.q.r.s.t.u.v.w.. . . . ",
". . . . . . > a x.y.. . . . z.a.A.b.. . . . B.C.D.E.; . . . . . ",
". . . . . . . . . . . . . . . . . . . . . . . . . . . . . . . . ",
". . . . . . . . . . . . . . . . . . . . . . . . . . . . . . . . ",
". . . . . . . . . . . . . . . . . . . . . . . . . . . . . . . . ",
". . . . . . . . . . . . . . . . . . . . . . . . . . . . . . . . ",
". . . . . . . . . . . . . . . . . . . . . . . . . . . . . . . . ",
". . . . . . . . . . . . . . . . . . . . . . . . . . . . . . . . ",
". . . . . . . . . . . . . . . . . . . . . . . . . . . . . . . . ",
". . . . . . . . . . . . . . . . . . . . . . . . . . . . . . . . ",
". . . . . . . . . . . . . . . . . . . . . . . . . . . . . . . . ",
". . . . . . . . . . . . . . . . . . . . . . . . . . . . . . . . "};
