/* XPM */
static char *adjust_h_xpm[]={
"24 24 9 1",
"c c #000000",
"a c #ff0000",
"d c #1c1c1c",
"b c #606060",
"# c #6d6d6d",
"g c #6e6e6e",
"f c #898989",
"e c #a4a4a4",
". c #c0c0c0",
"........................",
"........................",
"........................",
"........................",
"........................",
"....ccccc......ccccc....",
"....ccccc......ccccc....",
"....ccccc......ccccc....",
".aa.ccccc......ccccc....",
"aaaaccccc......ccccc....",
".aa.cccccccccccccccc....",
"....cccccccccccccccc....",
"aaaaccccc......ccccc....",
"....ccccc......ccccc....",
"....ccccc......ccccc....",
"....ccccc......ccccc....",
"....ccccc......ccccc....",
"....ccccc......ccccc....",
"....ccccc......ccccc....",
"........................",
"........................",
"........................",
"........................",
"........................"};
