/* XPM */
static char *change_bond_xpm[]={
"24 24 2 1",
". c None",
"# c #000000",
"........................",
"........................",
"........................",
"..###################...",
"........................",
"........................",
"........................",
"........................",
"........................",
"..###################...",
"........................",
"..###################...",
"........................",
"........................",
"........................",
"........................",
"........................",
"..###################...",
"........................",
"..###################...",
"........................",
"..###################...",
"........................",
"........................"};
