/* XPM */
static char *close_xpm[]={
"24 24 15 1",
". c None",
"b c #000000",
"f c #090909",
"g c #121212",
"d c #1c1c1c",
"k c #252525",
"# c #2e2e2e",
"j c #373737",
"h c #535353",
"c c #5c5c5c",
"e c #777777",
"a c #8a8a8a",
"l c #939393",
"i c #9c9c9c",
"m c #b8b8b8",
"........................",
"........................",
"........................",
"........................",
"........................",
"........................",
".......#a....#bc........",
".......#de..#fbgh.......",
".......ijke.bbbji.......",
"........cbdabbjl........",
"........edbbbki.........",
".........abbbm..........",
".........abbbba.........",
"........edbbbbde........",
"........cbdabbbke.......",
".......ijke.cgbbda......",
".......#de...hgbf#......",
".......#a.....cb#.......",
"........................",
"........................",
"........................",
"........................",
"........................",
"........................"};
