/* XPM */
static char *convert_unit_xpm[]={
"24 24 7 1",
"e c None",
". c None",
"d c #000000",
"a c #0000c0",
"b c #008000",
"c c #00ffff",
"# c #ff0000",
"...........##aabbccbbbdd",
"...........##aabbccbbdbb",
"...........##aabbccbdbbb",
"...........##aabbccdbbbb",
"...........##aabbcdccccc",
"...........##aabbdcccccc",
"...........##aabdbbbbbbb",
"...........##aadbbbbbbbb",
"...........##adaaaaaaaaa",
"...........d#daaaaaaaaaa",
"...........dd###########",
"...........ddd##########",
"...........eeeeeeeeeeeee",
"########ddd.............",
"#########dd.............",
"aaaaaaaad#d.............",
"aaaaaaada##.............",
"bbbbbbdaa##.............",
"bbbbbdbaa##.............",
"ccccdbbaa##.............",
"cccdcbbaa##.............",
"bbdccbbaa##.............",
"bdbccbbaa##.............",
"dbbccbbaa##............."};
