/* XPM */
static char *convert_unit_xpm[]={
"22 22 6 1",
"b c None",
". c None",
"c c #000080",
"d c #0000ff",
"a c #800000",
"# c #ff0000",
"......................",
"..................##..",
".................##a#.",
"................##a##.",
"...............##a##..",
"...........a..##a##...",
"...........ab##a##....",
"...........aa#a##.....",
"...........aaa##......",
"...........aaaa.......",
"...........aaaaaa.....",
".....cccccc...........",
".......cccc...........",
"......ddccc...........",
".....ddcdcc...........",
"....ddcdd.c...........",
"...ddcdd..c...........",
"..ddcdd...............",
".ddcdd................",
".dcdd.................",
"..dd..................",
"......................"};
