/* XPM */
static char * cut_xpm[] = {
"22 22 2 1",
" 	c None",
".	c #aa0000",
"                      ",
"                      ",
"                      ",
"                      ",
"                 .    ",
"               ..     ",
"              ..      ",
"             ..       ",
"            ..        ",
"   ....    ..     ... ",
"  .   ..  ..   ....   ",
"  .   ...........     ",
"   ....   ....        ",
"         ..           ",
"        ...           ",
"       .  .           ",
"      .   .           ",
"      .  .            ",
"      ...             ",
"                      ",
"                      ",
"                      "};
