/* XPM */
static char * dalton_xpm[] = {
"22 22 2 1",
" 	c None",
".	c #0f0e68",
"                      ",
"                      ",
" .   .     .    ..    ",
" .    .   . .   .     ",
" .    .   . .   .     ",
" .    ..    .   .     ",
" .    .  .   .  .     ",
" .    .  .   .  .   . ",
" .. ..  ..   .. .. .. ",
"                      ",
".                     ",
"  .  .  .   .  ..   . ",
"  .    .    .  . .  . ",
"  .    .     . . .. . ",
"  .    .     . .  . . ",
"  .    .    .  .   .. ",
"  .     .  ..  .   .. ",
"                      ",
"                      ",
"                      ",
"                      ",
"                      "};
