/* XPM */
static char* delete_atom_xpm[]={
"24 24 4 1",
" 	c None",
".	c #000000",
"+	c #FFFFFF",
"@	c #808080",
"                        ",
"                        ",
"                        ",
"                        ",
"             ....       ",
"            .+.++.      ",
"           .+++.++.     ",
"          .+++++.++.    ",
"         .+++++++.++.   ",
"        .+++++++++.++.  ",
"       .+++++++++++..+. ",
"      .+++++++++++.++.  ",
"     .+++++++++++.++.   ",
"    .+++++++++++.++.    ",
"   .+++++++++++.++.     ",
"    .+++++++++.++.      ",
"     .+++++++.++.       ",
"      .+++++.++.        ",
"       .+@@.@+.         ",
"        .@@@@@          ",
"                        ",
"                        ",
"                        ",
"                        "};
