/* XPM */
static char *delete_cut_xpm[]={
"22 22 5 1",
". c None",
"# c #000000",
"c c #808080",
"b c #aa0000",
"a c #ffffff",
".......######.........",
".......#a#aaa#........",
"......#aaa#aaa#.......",
".....#aaaaa#aaa#......",
"....#aaaaaaa###a##....",
"...#aaaaaaaa#aaa#.....",
"..#aaaaaaaa#aaa#......",
".##aaaaaaa#aaa#..b....",
"..##aaaaa#aaa#.bb.....",
"....#aaa#aaa#.bb......",
".....#ccca##.bb.......",
".....#ccccc.bb........",
"...bbbb....bb.....bbb.",
"..b...bb..bb...bbbb...",
"..b...bbbbbbbbbbb.....",
"...bbbb...bbbb........",
".........bb...........",
"........bbb...........",
".......b..b...........",
"......b...b...........",
"......b..b............",
"......bbb............."};
