/* XPM */
static char * demon_mini_xpm[] = {
"16 16 63 1",
" 	c None",
".	c #FFFFFF",
"+	c #F6A6A6",
"@	c #F7AEAE",
"#	c #F9C9C9",
"$	c #FDF8F8",
"%	c #F28181",
"&	c #F8BEBE",
"*	c #F5A0A0",
"=	c #F17676",
"-	c #F9C5C5",
";	c #F49595",
">	c #F7B3B3",
",	c #F38787",
"'	c #F49797",
")	c #F17070",
"!	c #F8C1C1",
"~	c #F59B9B",
"{	c #F8BABA",
"]	c #F6A5A5",
"^	c #F59A9A",
"/	c #F6A8A8",
"(	c #F27D7D",
"_	c #F17474",
":	c #F6A9A9",
"<	c #F38D8D",
"[	c #F38A8A",
"}	c #F28383",
"|	c #F28282",
"1	c #F38888",
"2	c #FEFEFE",
"3	c #F5A3A3",
"4	c #F06C6C",
"5	c #F59F9F",
"6	c #F59C9C",
"7	c #F8BBBB",
"8	c #FDF4F4",
"9	c #FBDCDC",
"0	c #F49393",
"a	c #F48F8F",
"b	c #FDF9F9",
"c	c #FDF5F5",
"d	c #FEFDFD",
"e	c #FDF7F7",
"f	c #E80A0A",
"g	c #E91C1C",
"h	c #EA2525",
"i	c #F17272",
"j	c #FCEEEE",
"k	c #F7B4B4",
"l	c #FCE5E5",
"m	c #ED4C4C",
"n	c #FCEBEB",
"o	c #F6A4A4",
"p	c #F27979",
"q	c #F17171",
"r	c #EA2D2D",
"s	c #FDF2F2",
"t	c #F27E7E",
"u	c #F5A1A1",
"v	c #EE5555",
"w	c #FEFCFC",
"x	c #F59E9E",
"................",
"................",
"..+...@#$%......",
"&*=-;>,'@)!~{]^/",
",.(_:<,+[,}.|12<",
"^34567,89,^*0a.a",
".b..cd.....e....",
".........f......",
"...~gh@..f......",
"...ijkg..f......",
".....lm..f.*%...",
"....2)n..fop....",
"....q{...frs....",
"...tu....f7vw...",
"...ffffe.f.xi...",
"................"};
