/* XPM */
static char * demon_xpm[] = {
"22 22 95 2",
"  	c None",
". 	c #FFFFFF",
"+ 	c #FAD8D8",
"@ 	c #FBD9D9",
"# 	c #FAD9D9",
"$ 	c #F9CDCD",
"% 	c #FBDCDC",
"& 	c #F9C7C7",
"* 	c #FEFDFD",
"= 	c #F7B7B7",
"- 	c #F5A1A1",
"; 	c #F8BDBD",
"> 	c #F8BFBF",
", 	c #F9CCCC",
"' 	c #F59A9A",
") 	c #EF5C5C",
"! 	c #F28383",
"~ 	c #F17070",
"{ 	c #FEFEFE",
"] 	c #F8B9B9",
"^ 	c #FAD3D3",
"/ 	c #FBDFDF",
"( 	c #FAD6D6",
"_ 	c #F8C0C0",
": 	c #F49090",
"< 	c #F8C3C3",
"[ 	c #F17777",
"} 	c #F49494",
"| 	c #F8BCBC",
"1 	c #F38686",
"2 	c #F9C9C9",
"3 	c #F38D8D",
"4 	c #F27D7D",
"5 	c #F48F8F",
"6 	c #F6A5A5",
"7 	c #F9CECE",
"8 	c #F17575",
"9 	c #F7B1B1",
"0 	c #F06C6C",
"a 	c #F49696",
"b 	c #FAD1D1",
"c 	c #EC3D3D",
"d 	c #F17171",
"e 	c #F7B4B4",
"f 	c #FCE7E7",
"g 	c #F8C1C1",
"h 	c #F7B6B6",
"i 	c #F7B2B2",
"j 	c #F06565",
"k 	c #F8BBBB",
"l 	c #F28282",
"m 	c #FBE0E0",
"n 	c #FCE5E5",
"o 	c #F7B3B3",
"p 	c #F06A6A",
"q 	c #FCEDED",
"r 	c #F7B5B5",
"s 	c #FDF8F8",
"t 	c #FEFBFB",
"u 	c #FDF7F7",
"v 	c #E80A0A",
"w 	c #ED4848",
"x 	c #E81111",
"y 	c #E92121",
"z 	c #F06868",
"A 	c #FCECEC",
"B 	c #ED4B4B",
"C 	c #F7B8B8",
"D 	c #FDF3F3",
"E 	c #FCE9E9",
"F 	c #EE5151",
"G 	c #FDF2F2",
"H 	c #E81616",
"I 	c #E92323",
"J 	c #F49393",
"K 	c #ED4444",
"L 	c #E91D1D",
"M 	c #FACFCF",
"N 	c #EA2424",
"O 	c #FAD0D0",
"P 	c #F49797",
"Q 	c #E92222",
"R 	c #F9CBCB",
"S 	c #F8C2C2",
"T 	c #EA2A2A",
"U 	c #F6AAAA",
"V 	c #F9CACA",
"W 	c #FBE3E3",
"X 	c #EA2C2C",
"Y 	c #F38E8E",
"Z 	c #EA2626",
"` 	c #FAD7D7",
" .	c #EB2E2E",
"..	c #F38A8A",
"+.	c #EB3030",
". . . . . . . . . . . . . . . . . . . . . . ",
". . . . . . . . . . . . . . . . . . . . . . ",
". . . + @ . . . . # $ . % & . . . . . . . . ",
". * = - ; . > , . ' ) . ! ~ { ] ^ . / ( _ . ",
". : < [ ; } | } $ ' 1 2 3 ~ 3 _ 4 @ 5 6 ! 7 ",
". 8 . 9 ; 0 a } ^ ' b c % ~ d . ; e 5 f g h ",
". i 1 j ; k l } m ' + n . ~ o l p q 5 f g r ",
". . s . . . t u . . . . . . . s { . . . . . ",
". . . . . . . . . . . . . . . . . . . . . . ",
". . . . . . . . . . . . . . . . . . . . . . ",
". . . . . . . . . . . . . v . . . . . . . . ",
". . . . . ] w x y z A . . v . . . . . . . . ",
". . . . . B C D E 0 F . . v . . . . . . . . ",
". . . . . . . . . G H . . v . . $ I J . . . ",
". . . . . . . . . i K . . v . r L i . . . . ",
". . . . . . . . M N O . . v P Q R . . . . . ",
". . . . . . . g N S . . . v T 4 . . . . . . ",
". . . . . . U Q V . . . . v W X Y . . . . . ",
". . . . . : Z ` . . . . . v . n  .... . . . ",
". . . . . v v v v v v D . v . . f +.1 . . . ",
". . . . . . . . . . . . . . . . . . . . . . ",
". . . . . . . . . . . . . . . . . . . . . . "};
