/* XPM */
static char * demon_xpm[] = {
"22 22 156 2",
"  	c None",
". 	c #FFFFFF",
"+ 	c #3C3C3C",
"@ 	c #2B2B2B",
"# 	c #FEFFFF",
"$ 	c #F6F7F7",
"% 	c #060000",
"& 	c #0E0000",
"* 	c #000000",
"= 	c #F7F8F8",
"- 	c #3E3E3E",
"; 	c #E7E7E7",
"> 	c #2D3535",
", 	c #9B2F2F",
"' 	c #FF6767",
") 	c #C44545",
"! 	c #9E3838",
"~ 	c #340A0A",
"{ 	c #9C9C9C",
"] 	c #505050",
"^ 	c #C3C3C3",
"/ 	c #040101",
"( 	c #010101",
"_ 	c #FE5A5A",
": 	c #E6E7E7",
"< 	c #F8F8F8",
"[ 	c #E5E5E5",
"} 	c #919191",
"| 	c #838383",
"1 	c #5C5C5C",
"2 	c #FEFEFE",
"3 	c #F4F6F6",
"4 	c #A33131",
"5 	c #7C2C2C",
"6 	c #D04949",
"7 	c #FF6262",
"8 	c #223535",
"9 	c #7F2323",
"0 	c #A1A0A0",
"a 	c #E3E3E3",
"b 	c #949494",
"c 	c #BFBFBF",
"d 	c #7F7F7F",
"e 	c #727272",
"f 	c #F1F1F1",
"g 	c #E5E6E6",
"h 	c #912A2A",
"i 	c #FE5959",
"j 	c #822E2E",
"k 	c #A13939",
"l 	c #DF4F4F",
"m 	c #FF5A5A",
"n 	c #FF5E5E",
"o 	c #1D2828",
"p 	c #4E4E4E",
"q 	c #FBFBFB",
"r 	c #9CA3A3",
"s 	c #505C5C",
"t 	c #4F5555",
"u 	c #203030",
"v 	c #E65151",
"w 	c #FF5D5D",
"x 	c #BB4242",
"y 	c #232A2A",
"z 	c #D2D2D2",
"A 	c #E55151",
"B 	c #CA4747",
"C 	c #2F2E2E",
"D 	c #666666",
"E 	c #B6B7B7",
"F 	c #715D5D",
"G 	c #340606",
"H 	c #A53B3B",
"I 	c #CE4949",
"J 	c #FF5B5B",
"K 	c #1D2929",
"L 	c #373737",
"M 	c #DBDBDB",
"N 	c #FF6464",
"O 	c #1C0505",
"P 	c #EF5555",
"Q 	c #FF6161",
"R 	c #D3D3D3",
"S 	c #808080",
"T 	c #EAEAEA",
"U 	c #051111",
"V 	c #1C2727",
"W 	c #717171",
"X 	c #0F1717",
"Y 	c #E95353",
"Z 	c #190101",
"` 	c #160000",
" .	c #6E7373",
"..	c #909090",
"+.	c #B9B9B9",
"@.	c #787878",
"#.	c #E4E3E3",
"$.	c #000F0F",
"%.	c #B63939",
"&.	c #4A4D4D",
"*.	c #7D7D7D",
"=.	c #F9F9F9",
"-.	c #899292",
";.	c #F05353",
">.	c #E85252",
",.	c #FF6060",
"'.	c #776F6F",
").	c #909898",
"!.	c #E55050",
"~.	c #D24A4A",
"{.	c #7D2C2C",
"].	c #020101",
"^.	c #F74F4F",
"/.	c #525050",
"(.	c #696969",
"_.	c #F6F6F6",
":.	c #8E9494",
"<.	c #DF4E4E",
"[.	c #B03E3E",
"}.	c #CC4848",
"|.	c #868686",
"1.	c #521010",
"2.	c #812E2E",
"3.	c #792B2B",
"4.	c #7A2B2B",
"5.	c #BB4343",
"6.	c #010404",
"7.	c #FF5F5F",
"8.	c #B74040",
"9.	c #4F0E0E",
"0.	c #010505",
"a.	c #AB3939",
"b.	c #879797",
"c.	c #828989",
"d.	c #B23A3A",
"e.	c #832C2C",
"f.	c #949E9E",
"g.	c #1F0000",
"h.	c #642424",
"i.	c #060808",
"j.	c #D7D7D7",
"k.	c #B5B3B3",
"l.	c #270000",
"m.	c #932B2B",
"n.	c #280606",
"o.	c #440E0E",
"p.	c #ECECEC",
"q.	c #040404",
"r.	c #371313",
"s.	c #2E1010",
"t.	c #0F0000",
"u.	c #F1F2F2",
"v.	c #101010",
"w.	c #090404",
"x.	c #0F0505",
"y.	c #B1B1B1",
". . . . . . . . . . . . . . . . . . . . . . ",
". . + . . . . . + . . . . . . . . . . . . . ",
". @ # $ % & * = . - . . . . . . . ; . . . . ",
". > , * ' ) ! ~ * . . . . . { ] ^ * . . . . ",
". . * / ( * _ * : < < . . [ } . | * 1 . . . ",
". 2 3 4 5 6 7 8 * 9 * 0 . a b . c d e f . . ",
". . g h i j * k l m n o . . p . q . . . . . ",
". . . r s t . u v w x y . . . p z . . . . . ",
". . . . . . . * A B * C . . . . D . 2 . . . ",
". . . . E F G H I * J K . . . . . L M . . . ",
". . . . * J N O * P Q * R . . . . . S T . . ",
". . . . * U V W X Q _ Y Z `  .. . . ..[ . . ",
". . . . +.@.. #.$.Q m J w J %.&.. . ..[ . . ",
". . . . . *.=.-.;.m >.J m m ,.* '.. ..[ . . ",
". . . . . . . ).!.~.{.w m m ,.].^./.(._.. . ",
". . . . . . . :.<.[.}.m m m ,.* * 2 . . . . ",
". . . . . . |.1.2.3.4.w m m 5.* . . . . . . ",
". . . . . . 6.7.m 8.* ,.m J 9.2 . . . . . . ",
". . . . . . 0.N a.b.c.d.Q e.f.. . . . . . . ",
". . . . . . * x * . . g.h.i.. . . . . . . . ",
". . . j.k.l.7 m.= f ^ n.o.M . . . . . . . . ",
". . p.q.* r.s.t.u.v.* w.x.* y.. . . . . . . "};
