/* XPM */
static char * demon_mini_xpm[] = {
"16 16 130 2",
"  	c None",
". 	c #FFFFFF",
"+ 	c #EDEDED",
"@ 	c #FEFEFE",
"# 	c #8C9191",
"$ 	c #545959",
"% 	c #565C5C",
"& 	c #929292",
"* 	c #DFE2E2",
"= 	c #6E2C2C",
"- 	c #080808",
"; 	c #FF6464",
"> 	c #A63A3A",
", 	c #381111",
"' 	c #666969",
") 	c #A6A6A6",
"! 	c #727272",
"~ 	c #2E2E2E",
"{ 	c #939B9B",
"] 	c #311010",
"^ 	c #0A0303",
"/ 	c #E65252",
"( 	c #001111",
"_ 	c #CDC5C5",
": 	c #ADAFAF",
"< 	c #F1F0F0",
"[ 	c #F5F5F5",
"} 	c #939393",
"| 	c #F6F6F6",
"1 	c #343434",
"2 	c #595959",
"3 	c #FCFFFF",
"4 	c #9B2B2B",
"5 	c #E14C4C",
"6 	c #481010",
"7 	c #8C3B3B",
"8 	c #B73939",
"9 	c #C33F3F",
"0 	c #516060",
"a 	c #555555",
"b 	c #E4E4E4",
"c 	c #DADADA",
"d 	c #A6AFAF",
"e 	c #475656",
"f 	c #E7E8E8",
"g 	c #1C2929",
"h 	c #FF5A5A",
"i 	c #C54444",
"j 	c #3A4747",
"k 	c #636363",
"l 	c #EAEAEA",
"m 	c #AEA7A7",
"n 	c #4E1717",
"o 	c #BA4242",
"p 	c #612020",
"q 	c #454D4D",
"r 	c #EFEFEF",
"s 	c #969696",
"t 	c #F7F7F7",
"u 	c #451B1B",
"v 	c #FF6161",
"w 	c #260404",
"x 	c #612222",
"y 	c #FF6565",
"z 	c #061A1A",
"A 	c #8C8C8C",
"B 	c #FCFCFC",
"C 	c #010707",
"D 	c #1C3232",
"E 	c #858686",
"F 	c #692F2F",
"G 	c #FF5C5C",
"H 	c #DE4D4D",
"I 	c #1B0000",
"J 	c #685A5A",
"K 	c #F7F8F8",
"L 	c #919191",
"M 	c #C6C6C6",
"N 	c #E3E2E2",
"O 	c #B1B3B3",
"P 	c #BB3E3E",
"Q 	c #FC5959",
"R 	c #EB4F4F",
"S 	c #2B3939",
"T 	c #FEFFFF",
"U 	c #909292",
"V 	c #E94B4B",
"W 	c #832E2E",
"X 	c #FF6060",
"Y 	c #FF5959",
"Z 	c #FF6262",
"` 	c #381010",
" .	c #885353",
"..	c #6C6C6C",
"+.	c #F2F3F3",
"@.	c #786868",
"#.	c #B53B3B",
"$.	c #B64040",
"%.	c #F75D5D",
"&.	c #000000",
"*.	c #D2D6D6",
"=.	c #515D5D",
"-.	c #D34646",
";.	c #D14747",
">.	c #1A0101",
",.	c #FF6767",
"'.	c #690F0F",
").	c #D5DBDB",
"!.	c #334242",
"~.	c #925F5F",
"{.	c #889A9A",
"].	c #B93838",
"^.	c #B23939",
"/.	c #969E9E",
"(.	c #FAFAFA",
"_.	c #D7D3D3",
":.	c #7D4545",
"<.	c #AB3A3A",
"[.	c #A3B0B0",
"}.	c #140000",
"|.	c #523D3D",
"1.	c #292929",
"2.	c #1E1414",
"3.	c #4B1A1A",
"4.	c #280E0E",
"5.	c #B2B4B4",
"6.	c #1B1C1C",
"7.	c #0E0303",
"8.	c #130B0B",
"9.	c #B4B4B4",
". + @ . . @ + . . . . . . . . . ",
"+ # . $ % . & + . . . . . . . . ",
"* = - ; > , ' . . . ) ! ~ . . . ",
". { ] ^ / ( _ : < [ } | 1 2 . . ",
". 3 4 5 6 7 8 9 0 . a . b c . . ",
". . d e f g h i j . . k | . . . ",
". . . l m n o p q . . r s t . . ",
". . . u v w x y z . . . r A B . ",
". . . C D E F G H I J K . L | . ",
". . . M N O P Q G v R S T & [ . ",
". . . @ . U V W X Y Z `  .... . ",
". . . . +.@.#.$.G h %.&.*.. . . ",
". . . . =.-.;.>.,.v '.).. . . . ",
". . . . !.; ~.{.].^./.. . . . . ",
". . (._.:.<.[.. }.|.. @ . . . . ",
". . 1.2.3.4.5.6.7.8.9.. . . . . "};
