/* XPM */
static char * draw_xpm[] = {
"24 24 4 1",
" 	c None",
".	c #000000",
"+	c #FF0000",
"@	c #FFFF00",
"                        ",
"                        ",
"                  ..    ",
"                 .++.   ",
"                ..+++.  ",
"               .@@.++.  ",
"              .@@@@..   ",
"             .@@@@@.    ",
"            .@@@@@.     ",
"           .@@@@@.      ",
"          .@@@@@.       ",
"         .@@@@@.        ",
"        .@@@@@.         ",
"       .@@@@@.          ",
"      .@@@@@.           ",
"     .@@@@@.            ",
"     ..@@@.             ",
"    ....@.              ",
"    .....               ",
"   ....                 ",
"   ..                   ",
"  .                     ",
"                        ",
"                        "};
