/* XPM */
static char* error_xpm[]={
"48 48 395 2",
"bX c #cc9d30",
".e c #b52514",
"ef c #842a24",
".Y c #a5291b",
"dE c #982e25",
"dx c #a63b31",
".M c #a8291b",
"#2 c #942417",
"cQ c #ad291b",
"#L c #962417",
"eb c #8b2921",
"cX c #87281e",
"#J c #ac3123",
"bO c #d2a435",
"an c #a02d22",
"a4 c #a12d22",
"am c #a22d22",
"aX c #d8a733",
"ae c #9d2314",
"aY c #d2a332",
"by c #d3a332",
".t c #a22314",
"c3 c #983129",
"cL c #a53e35",
"#b c #a82314",
"dY c #832c25",
"cv c #9d3129",
"dg c #9e3129",
"b3 c #cfa53e",
"cA c #98271b",
"aZ c #c89b30",
"ax c #99271b",
".3 c #a82211",
".C c #a92211",
"ck c #9c271b",
"aj c #9d271b",
"#i c #aa3427",
".B c #ac2211",
"bG c #9e3026",
"cK c #9f3026",
"dv c #66221d",
"cR c #a2271b",
"bs c #a13026",
"aS c #dfb445",
".# c #ee301a",
"cx c #6c221d",
"cd c #d2aa48",
"a6 c #902b22",
"cc c #cfa338",
"aW c #d9ac32",
"#v c #a22618",
"cj c #a32618",
"c9 c #a3382e",
"ea c #81261e",
".V c #a62618",
"bD c #c59c39",
"cF c #902a1f",
"#Y c #9e2e20",
"ak c #a8382e",
"bA c #d5a533",
"dJ c #9b2a1f",
"bZ c #ca9e34",
"#P c #a9372b",
"dO c #9d332a",
".s c #952011",
".S c #962011",
"cM c #9f332a",
"#C c #a02a1f",
"dw c #a12a1f",
"b9 c #cd8622",
"c# c #cb9d31",
"ay c #92251b",
"ed c #942e26",
"aw c #a2291c",
"dK c #a23b32",
"av c #af3f33",
"#k c #a4291c",
"dq c #972e26",
"bv c #ee321b",
"#N c #a5291c",
"dM c #982e26",
"bw c #e0b234",
"e. c #6b241e",
"c6 c #a8291c",
"#q c #b62412",
"aq c #dd2d17",
"#3 c #962418",
"bf c #d2a539",
"cH c #982d23",
"dn c #a73a2f",
"ct c #9c2d23",
".0 c #d02813",
"da c #9f2d23",
"bY c #d1a436",
"aF c #88281f",
"do c #a02d23",
"dk c #4e1a16",
"bd c #d2a436",
"bb c #d7a734",
"aa c #fa3118",
"bC c #c79d37",
"b8 c #b62819",
"e# c #401512",
"a0 c #d1a333",
"#r c #ac3021",
"#9 c #a02c20",
"di c #9f3e36",
".j c #c62c1a",
"#R c #a32c20",
"c2 c #a23e36",
"bN c #cc9f32",
"d7 c #9a312a",
"dS c #33100e",
"bn c #d1a230",
"aN c #dfae28",
"ac c #a42212",
".q c #a52212",
"bS c #d0a53f",
"a7 c #bd2716",
".E c #a62212",
"cO c #8b2c26",
"b. c #daae39",
".R c #a72212",
".p c #a82212",
"df c #9d3027",
"#j c #aa3428",
"bU c #9e3027",
"aM c #e0ad25",
"dl c #ad2b1d",
"#V c #ae2212",
"bF c #a13027",
"ec c #8f2b23",
"bK c #dfad36",
".l c #c32613",
"db c #a12f24",
"cG c #a22f24",
"a1 c #d4a637",
"bE c #c49c3a",
".x c #b32a1a",
"ei c #581c17",
".k c #dd2a14",
"aV c #d9a832",
"#g c #a52516",
".u c #a72516",
"d0 c #85251c",
"#6 c #a8372c",
"cm c #a9372c",
"dt c #9d332b",
"#T c #9e2a20",
"eh c #36120f",
"dh c #9f332b",
"#D c #a02a20",
"aH c #a92413",
"aT c #ddb03a",
"ar c #af2413",
"#m c #a1291d",
"dm c #a4291d",
"ai c #902419",
"dR c #6d241f",
"dL c #90362f",
"dZ c #5c1f1b",
".9 c #a5281a",
".1 c #b32310",
"cZ c #982d24",
"d3 c #9c2d24",
"cz c #ab281a",
"ca c #d1a437",
"bq c #d6a735",
"cq c #992c21",
"ao c #9b2c21",
"#t c #9c2316",
"d# c #9c2c21",
"b1 c #d4aa44",
"#s c #ac3022",
"a9 c #dbac2e",
"a. c #a02c21",
"ap c #7d231c",
"#8 c #a32c21",
"#U c #8c271d",
".h c #b42717",
"bp c #daac3f",
"d8 c #933028",
"cw c #953028",
"aI c #d48d1d",
"dF c #963028",
"b4 c #cfa540",
"#B c #a42b1e",
"as c #a62213",
"cu c #a53d34",
"d9 c #832b24",
".d c #ba2614",
"dB c #722620",
"b7 c #892b24",
"c4 c #752620",
"aC c #a93f2f",
".2 c #a92110",
"dd c #9d2f25",
"af c #aa3326",
".8 c #ab3326",
"bh c #9f2f25",
"aJ c #e4af21",
".N c #ad2a1b",
"cI c #a02f25",
"bg c #a12f25",
"a2 c #d3a638",
"d. c #a1372d",
".7 c #a62517",
".U c #a72517",
"bP c #d6ab42",
"dI c #361210",
"#E c #99291e",
"#c c #a72414",
"cU c #9a291e",
"#W c #a82414",
".6 c #9b2013",
"dQ c #8d2e28",
"c. c #dcb03b",
"#z c #a9362a",
"d6 c #9d3229",
"ds c #9e3229",
"cC c #9f291e",
"cf c #a03229",
"#n c #a1291e",
"bV c #912d25",
"aL c #e1ae24",
"bH c #942d25",
"ag c #a3281b",
".A c #b12311",
"ch c #7f2821",
"de c #972d25",
".X c #a5281b",
".m c #b32311",
".P c #b92311",
"d2 c #972c22",
".K c #a62718",
"cr c #992c22",
".v c #a92718",
"cb c #cba037",
"al c #a8392e",
"aU c #daac2f",
"cP c #4e1915",
"bW c #b12718",
"cn c #9a2b1f",
"#F c #fc3017",
"#I c #a92f20",
"#e c #9d2214",
"bB c #d8ac40",
"bm c #d5a82e",
"#H c #aa2f20",
".T c #a02214",
"dX c #943029",
"#Q c #a32b1f",
".g c #b12615",
"d5 c #a23d35",
"dG c #963029",
"#5 c #a42b1f",
"bj c #b52615",
"aR c #deb139",
"cg c #9a3029",
"cB c #95261b",
"cl c #9a261b",
"bL c #dfb036",
".Q c #a92111",
"c0 c #9c2f26",
"cJ c #9d2f26",
"au c #aa3327",
"aK c #e3af22",
"bt c #9f2f26",
"#G c #be2512",
"#M c #9c2518",
"dD c #8f2a22",
"dp c #9d2e23",
".z c #c32512",
"#Z c #ab3224",
"dV c #9f2e23",
"#K c #a02518",
"aE c #a02e23",
"cY c #8a291f",
"cy c #c72e1d",
"cp c #a22e23",
"#a c #d52913",
".J c #a32518",
".a c #ed2e17",
"bQ c #d5ab43",
"bI c #581b16",
"bM c #d3a433",
"a8 c #dcad2d",
".y c #eb2d14",
"dT c #96291f",
"#d c #a42415",
".H c #a72415",
"cD c #a6362b",
"dP c #9a322a",
"dz c #9c322a",
"ba c #dbad3e",
"#O c #a9362b",
"cT c #9e291f",
"cN c #9d322a",
"aQ c #ddac2a",
".r c #961f11",
"dr c #9f322a",
"dN c #a0322a",
"ad c #981f11",
"cS c #99281c",
".D c #a82312",
"#l c #9b281c",
"dH c #772822",
"ee c #902d26",
"d4 c #9e3127",
"dW c #9d3a32",
".n c #ae2312",
"bT c #a03127",
"#4 c #a1281c",
"aG c #c72816",
"#. c #a2281c",
"br c #d1a53c",
"c5 c #b42c1d",
"bi c #952c23",
"eg c #5c1e1a",
"#h c #a52719",
".L c #a62719",
"dc c #9a2c23",
"aB c #a7392f",
".w c #ab2719",
"ci c #ba2b1a",
"bc c #d5a634",
"co c #992b20",
"#S c #a02b20",
"dA c #94302a",
"c8 c #a22b20",
"bl c #daa82f",
"Qt c None",
"at c #9c2112",
"ce c #c18138",
"dj c #8f3832",
"bo c #d9ab3e",
".F c #9f2112",
"## c #a42a1d",
"dy c #972f27",
".Z c #a82a1d",
"ah c #922519",
"ab c #bb2513",
"bu c #962e24",
"be c #d3a63a",
"bk c #e2b232",
"#0 c #ab3225",
"a5 c #9f2e24",
"cs c #a02e24",
".b c #d32914",
"cW c #a22e24",
"#u c #992416",
".O c #d82914",
"d1 c #912920",
"#f c #a02416",
"aA c #a22d21",
"cV c #a2362c",
"cE c #a32d21",
"a# c #962920",
"#X c #941f12",
".G c #a32313",
".5 c #a42313",
"b# c #dbaf3a",
".4 c #a82313",
"az c #9b281d",
"#y c #a93529",
".o c #ab2313",
"#x c #aa3529",
"b6 c #9e3128",
"c1 c #9f3128",
"b5 c #a03128",
"bR c #d0a53d",
"aP c #dda82a",
"bx c #dfb135",
".c c #c32714",
"dC c #9f3930",
".W c #a2271a",
"#1 c #a3271a",
"#w c #a5271a",
"b2 c #d3aa47",
"b0 c #cfa337",
"aD c #a12f22",
"#p c #e22b15",
".I c #a62617",
"#7 c #a8382d",
"dU c #9d2b21",
".i c #bc2a18",
"bJ c #b12617",
"c7 c #9a2a1e",
"a3 c #c1782e",
"du c #8f2f28",
"bz c #d0a131",
"#o c #9e2a1e",
"aO c #dead29",
"#A c #a42a1e",
".f c #b22514",
"QtQtQtQtQtQtQtQtQtQtQtQtQtQtQtQtQtQtQtQtQtQtQtQtQtQtQtQtQtQtQtQtQtQtQtQtQtQtQtQtQtQtQtQtQtQtQtQt",
"QtQtQtQtQtQtQtQtQtQtQtQtQtQtQtQtQtQtQtQtQtQtQtQtQtQtQtQtQtQtQtQtQtQtQtQtQtQtQtQtQtQtQtQtQtQtQtQt",
"QtQtQtQtQtQtQtQtQtQtQtQtQtQtQtQtQtQtQtQtQtQtQtQtQtQtQtQtQtQtQtQtQtQtQtQtQtQtQtQtQtQtQtQtQtQtQtQt",
"QtQtQtQtQtQtQtQtQtQtQtQtQtQtQtQtQtQtQtQtQtQtQtQtQtQtQtQtQtQtQtQtQtQtQtQtQtQtQtQtQtQtQtQtQtQtQtQt",
"QtQtQtQtQtQtQtQtQtQtQtQtQtQtQtQtQtQtQtQtQtQtQtQtQtQtQtQtQtQtQtQtQtQtQtQtQtQtQtQtQtQtQtQtQtQtQtQt",
"QtQtQtQtQtQtQtQtQtQtQtQtQtQtQtQtQtQtQtQtQtQtQtQtQtQtQtQtQtQtQtQtQtQtQtQtQtQtQtQtQtQtQtQtQtQtQtQt",
"QtQtQtQtQtQtQtQtQtQtQtQtQtQtQtQtQtQtQtQtQtQtQtQtQtQtQtQtQtQtQtQtQtQtQtQtQtQtQtQtQtQtQtQtQtQtQtQt",
"QtQtQtQtQtQtQtQtQtQtQtQtQtQtQtQtQtQtQtQtQtQtQtQtQtQtQtQtQtQtQtQtQtQtQtQtQtQtQtQtQtQtQtQtQtQtQtQt",
"QtQtQtQtQtQtQtQtQtQtQtQtQtQtQtQtQtQtQtQtQtQtQt.#QtQtQtQtQtQtQtQtQtQtQtQtQtQtQtQtQtQtQtQtQtQtQtQt",
"QtQtQtQtQtQtQtQtQtQtQtQtQtQtQtQtQtQt.a.b.c.d.e.f.f.g.h.i.jQtQtQtQtQtQtQtQtQtQtQtQtQtQtQtQtQtQtQt",
"QtQtQtQtQtQtQtQtQtQtQtQtQtQtQtQt.k.l.m.n.o.p.q.r.s.t.u.u.v.w.xQtQtQtQtQtQtQtQtQtQtQtQtQtQtQtQtQt",
"QtQtQtQtQtQtQtQtQtQtQtQtQtQt.y.z.A.B.C.p.D.E.F.G.H.u.u.I.J.K.L.M.NQtQtQtQtQtQtQtQtQtQtQtQtQtQtQt",
"QtQtQtQtQtQtQtQtQtQtQtQtQt.O.P.B.Q.C.p.R.E.S.T.H.u.U.I.V.L.L.W.X.Y.ZQtQtQtQtQtQtQtQtQtQtQtQtQtQt",
"QtQtQtQtQtQtQtQtQtQtQtQt.0.1.2.Q.3.p.4.4.5.6.5.u.7.I.V.8.8.9.X.Y#.####QtQtQtQtQtQtQtQtQtQtQtQtQt",
"QtQtQtQtQtQtQtQtQtQtQt#a.A.2.C.p.p.4#b#c.H#d#e#f#g.V.L#h#i#j.Y#k#l#m#n#oQtQtQtQtQtQtQtQtQtQtQtQt",
"QtQtQtQtQtQtQtQtQtQt#p#q.2.C.p.D.4#b#r#s.u.u#g#t#u#v#w.9.X#x#y#z#A#B#C#D#EQtQtQtQtQtQtQtQtQtQtQt",
"QtQtQtQtQtQtQtQtQt#F#G.B.C.p.D.4#H#I.H#J#J.I.V.K#K#L#M.X#N#k###O#P#Q#R#S#T#UQtQtQtQtQtQtQtQtQtQt",
"QtQtQtQtQtQtQtQtQt.b#V.3.p.4.4#W#X#Y#J.U#Z#0.L.L.9#1#2#3#4###A#5#6#7#8#9a.a#QtQtQtQtQtQtQtQtQtQt",
"QtQtQtQtQtQtQtQtaaab.3.pacad#c.Hae.u.7#Z#0.8af.9.X.Yagahaiaj#5#Q#RakalamanaoapQtQtQtQtQtQtQtQtQt",
"QtQtQtQtQtQtQtQtaqar.R.4asat.H.u.u.I.V.V.8auav#j#N#k##awaxayaz#R#8aAaBaCaDaEaFQtQtQtQtQtQtQtQtQt",
"QtQtQtQtQtQtQtQtaGaHaIaJaJaKaLaLaMaNaNaOaPaQaRaSaTaUaVaWaXaYaZa0a1a1a2a3a4a5a6QtQtQtQtQtQtQtQtQt",
"QtQtQtQtQtQtQtQta7.4aJaKaKaLaLaMaNaNaOaQaQa8a9b.b#baaWaXbbbbbcbda1a2bebfbgbhbiQtQtQtQtQtQtQtQtQt",
"QtQtQtQtQtQtQtQtbj#caKaKaLbkaMaNaOaOaQa8a8a9blbmbnbobpbbbqbqa1a2a2bebrbrbsbtbuQtQtQtQtQtQtQtQtQt",
"QtQtQtQtQtQtQtbv.g.HaKaLaMaMbwbxaOaQa8a8a9aUaUaVbybzbAbBbBa1a2a2bCbDbDbEbFbGbHbIQtQtQtQtQtQtQtQt",
"QtQtQtQtQtQtQtQtbJ.uaLaMaNaNaObKbLa8a9a9aUaVaWaXbbbMbNbObPbQbQbebrbrbRbSbTbUbVQtQtQtQtQtQtQtQtQt",
"QtQtQtQtQtQtQtQtbW.uaMaNaNaOaQaQaRaTa9aUaVaWbXbbbbbqbYbZb0beb1b2bRbRb3b4b5b6b7QtQtQtQtQtQtQtQtQt",
"QtQtQtQtQtQtQtQtb8.Ib9aOaOaQaQa8a9aTc.aVaWaXc#c#bqa1a1cacbccbrcdcdb3b4cecfcgchQtQtQtQtQtQtQtQtQt",
"QtQtQtQtQtQtQtQtci.Vcj.L.9.X.Yckcl###Ocm#Q#R#8cncocpcqcrcsctbhbFbTcucfcfcvcwcxQtQtQtQtQtQtQtQtQt",
"QtQtQtQtQtQtQtQtcycz#h.9.X.Y#k##cAcBcCcD#R#8cEamcFcFcGcHbgcIcJcKb5cfcLcMcNcOcPQtQtQtQtQtQtQtQtQt",
"QtQtQtQtQtQtQtQtQtcQ.9cR#N#k###A#BcScTcUcVa.amcpcWcXcYcZcZbFcKc0c1cfcMc2c3c4QtQtQtQtQtQtQtQtQtQt",
"QtQtQtQtQtQtQtQtQtc5c6#N#k###A#B#Q#Rc7c8c9d.d#dadbdcddbsdeb5b5dfdgcMdhdidjdkQtQtQtQtQtQtQtQtQtQt",
"QtQtQtQtQtQtQtQtQtQtdldm#m#A#B#Q#R#RcncoamdndodpcsbsbsbTdqdqcfdrdsdhdtdudvQtQtQtQtQtQtQtQtQtQtQt",
"QtQtQtQtQtQtQtQtQtQtQt###ndw#Q#R#8cEamcqcqcWdxbgbsbFbTb5cfdydrdhdhdzdAdBQtQtQtQtQtQtQtQtQtQtQtQt",
"QtQtQtQtQtQtQtQtQtQtQtQt#C#C#S#8cEamcpcpcGbgdxdCdDdEb5cfcfdFdGdhdtdAdHdIQtQtQtQtQtQtQtQtQtQtQtQt",
"QtQtQtQtQtQtQtQtQtQtQtQtQtdJ#Sa.a.cpcWdbbgbscZdKdLdMcfdNcMdhdOdPdQdRdSQtQtQtQtQtQtQtQtQtQtQtQtQt",
"QtQtQtQtQtQtQtQtQtQtQtQtQtQtdTdUandodVbgbsbsbTdqdWcLdrcMcNdPdXdYdZQtQtQtQtQtQtQtQtQtQtQtQtQtQtQt",
"QtQtQtQtQtQtQtQtQtQtQtQtQtQtQtd0d1d2d3bhbhbGbUd4b6d5d6d7d8d9e.e#QtQtQtQtQtQtQtQtQtQtQtQtQtQtQtQt",
"QtQtQtQtQtQtQtQtQtQtQtQtQtQtQtQtQtQteaebecbHededeecOefc4egehQtQtQtQtQtQtQtQtQtQtQtQtQtQtQtQtQtQt",
"QtQtQtQtQtQtQtQtQtQtQtQtQtQtQtQtQtQtQtQtQtQtbIeicPQtQtQtQtQtQtQtQtQtQtQtQtQtQtQtQtQtQtQtQtQtQtQt",
"QtQtQtQtQtQtQtQtQtQtQtQtQtQtQtQtQtQtQtQtQtQtQtQtQtQtQtQtQtQtQtQtQtQtQtQtQtQtQtQtQtQtQtQtQtQtQtQt",
"QtQtQtQtQtQtQtQtQtQtQtQtQtQtQtQtQtQtQtQtQtQtQtQtQtQtQtQtQtQtQtQtQtQtQtQtQtQtQtQtQtQtQtQtQtQtQtQt",
"QtQtQtQtQtQtQtQtQtQtQtQtQtQtQtQtQtQtQtQtQtQtQtQtQtQtQtQtQtQtQtQtQtQtQtQtQtQtQtQtQtQtQtQtQtQtQtQt",
"QtQtQtQtQtQtQtQtQtQtQtQtQtQtQtQtQtQtQtQtQtQtQtQtQtQtQtQtQtQtQtQtQtQtQtQtQtQtQtQtQtQtQtQtQtQtQtQt",
"QtQtQtQtQtQtQtQtQtQtQtQtQtQtQtQtQtQtQtQtQtQtQtQtQtQtQtQtQtQtQtQtQtQtQtQtQtQtQtQtQtQtQtQtQtQtQtQt",
"QtQtQtQtQtQtQtQtQtQtQtQtQtQtQtQtQtQtQtQtQtQtQtQtQtQtQtQtQtQtQtQtQtQtQtQtQtQtQtQtQtQtQtQtQtQtQtQt",
"QtQtQtQtQtQtQtQtQtQtQtQtQtQtQtQtQtQtQtQtQtQtQtQtQtQtQtQtQtQtQtQtQtQtQtQtQtQtQtQtQtQtQtQtQtQtQtQt",
"QtQtQtQtQtQtQtQtQtQtQtQtQtQtQtQtQtQtQtQtQtQtQtQtQtQtQtQtQtQtQtQtQtQtQtQtQtQtQtQtQtQtQtQtQtQtQtQt",
"QtQtQtQtQtQtQtQtQtQtQtQtQtQtQtQtQtQtQtQtQtQtQtQtQtQtQtQtQtQtQtQtQtQtQtQtQtQtQtQtQtQtQtQtQtQtQtQt"};
