/* XPM */
static char *exit_xpm[]={
"24 24 103 2",
"Qt c None",
"#I c #5b0e23",
"#H c #5e0f25",
"#B c #630f26",
"#A c #661028",
".8 c #68585c",
"#t c #6a1129",
"#s c #6e112b",
"#j c #6e424e",
"#n c #6f112b",
"#G c #6f1c33",
"#m c #72122c",
"#i c #77122e",
"#u c #78273d",
"#h c #7a132f",
"#E c #7b1330",
"#r c #7b4251",
"#z c #7c3045",
"#x c #7d1331",
"#b c #7e1431",
"#p c #7f1431",
"#c c #7f2b43",
"#w c #801432",
"#o c #821432",
"#a c #831433",
"#e c #851534",
"## c #861534",
"#C c #865260",
".6 c #871534",
".7 c #871e3b",
"#. c #891535",
"#g c #892c46",
".0 c #8a1536",
".G c #8b1636",
".q c #8c1636",
".P c #8d1637",
".W c #8e1637",
".3 c #8e364e",
".1 c #8e6e77",
".x c #8f1637",
".F c #901638",
".p c #911738",
".V c #921739",
".X c #922543",
".w c #931739",
".Z c #96173a",
"#v c #982e4b",
".y c #992c4b",
"#l c #9a3b55",
".T c #9b183c",
".U c #9c2646",
".M c #9e193d",
"#f c #9e6272",
".E c #a12c4c",
".L c #a2193f",
".C c #a61a40",
"#F c #a6556b",
".Q c #a74e67",
".B c #aa1a42",
"#d c #ab4762",
".O c #ab5c72",
".N c #ab8a93",
".t c #ae1b44",
".K c #ae2e51",
".Y c #af4f69",
".k c #b21c45",
"#q c #b3a3a8",
".j c #b61c47",
".r c #b65e76",
"#y c #b98c98",
".i c #ba1d48",
".u c #ba4565",
".f c #ba617a",
".D c #bb7689",
".e c #be637c",
".H c #c0909d",
".5 c #c2919f",
"#D c #c57d90",
".S c #c5919f",
".A c #c75e7c",
".d c #cd7e93",
"#k c #d294a5",
".b c #d46785",
".o c #d492a5",
".z c #d4c4c8",
".a c #d76786",
".2 c #d9d9d9",
".J c #dccacf",
".v c #ddccd0",
".s c #de95a9",
".R c #e0e0e0",
"#J c #e1e1e1",
".g c #e2c3cb",
".l c #e2d0d5",
".4 c #e2e2e2",
".9 c #e3d2d6",
".c c #e4adbc",
".m c #e5e5e5",
".# c #e69bb0",
".n c #e7e7e7",
".I c #eaeaea",
"#K c #efefef",
".h c #f6e3e9",
"QtQtQtQtQtQtQtQtQtQtQtQtQtQtQtQtQtQtQtQtQtQtQtQt",
"QtQtQtQtQtQtQtQtQtQtQtQtQtQtQtQtQtQtQtQtQtQtQtQt",
"QtQtQtQtQtQtQtQtQtQtQtQtQtQtQtQtQtQtQtQtQtQtQtQt",
"QtQtQtQtQtQtQtQtQtQtQtQtQtQtQtQtQtQtQtQtQtQtQtQt",
"QtQtQtQt.#.a.b.cQtQtQtQtQtQt.d.e.f.gQtQtQtQtQtQt",
"QtQtQtQt.h.i.j.k.l.m.nQtQt.o.p.q.rQtQtQtQtQtQtQt",
"QtQtQtQtQt.s.k.t.uQtQtQt.v.w.x.y.zQtQtQtQtQtQtQt",
"QtQtQtQtQtQt.A.B.C.DQtQt.E.F.G.HQtQtQtQtQt.IQtQt",
"QtQtQtQtQtQt.J.K.L.M.N.O.p.P.QQtQtQtQtQtQtQtQtQt",
"QtQtQtQtQtQt.R.S.M.T.U.V.W.XQtQtQtQtQtQtQtQtQtQt",
"QtQtQtQtQtQtQtQt.Y.Z.V.x.0.1QtQtQtQtQtQtQtQtQtQt",
"QtQtQtQtQtQtQt.2Qt.V.x.0.3QtQtQtQtQtQtQtQtQtQtQt",
"QtQtQtQtQtQtQt.4.5.W.0.6.7.8QtQtQtQtQtQtQtQtQtQt",
"QtQtQtQtQtQtQt.9.P#.###a#b#cQtQtQtQtQtQtQtQtQtQt",
"QtQtQtQtQtQtQt#d#.#e#f#g#h#i#jQtQtQtQtQtQtQtQtQt",
"QtQtQtQtQtQt#k.6#a#lQtQt#i#m#nQtQtQtQtQtQtQtQtQt",
"QtQtQtQtQtQt#e#o#p#qQtQt#r#s#t#uQtQtQtQtQtQtQtQt",
"QtQtQtQtQt#v#w#x#yQtQtQtQt#z#A#B#CQtQtQtQtQtQtQt",
"QtQtQtQt#D#x#E#FQtQtQtQtQtQt#G#H#IQtQtQtQtQtQtQt",
"QtQtQtQtQtQt#JQtQtQtQtQtQtQtQtQtQtQtQtQtQtQtQtQt",
"QtQtQtQtQtQt.RQtQtQtQtQtQtQtQtQtQtQtQtQtQtQtQtQt",
"QtQtQtQtQt#KQtQtQtQtQtQtQtQtQtQtQtQtQtQtQtQtQtQt",
"QtQtQtQtQtQtQtQtQtQtQtQtQtQtQtQtQtQtQtQtQtQtQtQt",
"QtQtQtQtQtQtQtQtQtQtQtQtQtQtQtQtQtQtQtQtQtQtQtQt"};
