/* XPM */
static char * find_xpm[] = {
"22 22 3 1",
" 	c None s None",
"@	c #222333",
"%	c #AAAAAA",
"                      ",
"    @@@@@  @@@@@      ",
"     @@@    @@@       ",
"     @@@    @@@       ",
"    @@@@    @@@@      ",
"   @@@@@    @@@@@     ",
"  @@@@@@@@@@@@@@@@    ",
" %%%%%%%%%%%%%%%%%%   ",
" @@%@@@@@@@@@@@@%@@   ",
" @@%@@@@@@@@@@@@%@@   ",
" @@%@@@@@%%@@@@@%@@   ",
" @@%@@@@@@@@@@@@%@@   ",
" @@%@@@@@@@@@@@@%@@   ",
" %%%%%%%%%%%%%%%%%%   ",
" @@@@@@      @@@@@@   ",
" @@@@@@      @@@@@@   ",
" @@@@@@      @@@@@@   ",
" @@@@@@      @@@@@@   ",
" @@@@@@      @@@@@@   ",
"                      ",
"                      ",
"                      "};
