/* XPM */
static char *firefly_xpm[]={
"22 22 5 1",
"b c None",
". c None",
"# c #222222",
"a c #303030",
"c c #ff0000",
"......................",
"......#...............",
".######...##...#....#.",
".#....#...###..##..##.",
".#.......#..#..######.",
".#..##...#..#..#.##.#.",
".#....#.#a.ba#.#....#.",
".#.ccccc#..bcccc....#.",
".##ccccc#..ccccc....#.",
"..bcc...c..cc.........",
"..bcc...c..cc.........",
".#accccc.##cc#..#####.",
".#.ccccc##.cc..##.....",
".#.cc...#..cc..#......",
".##cc##.#..ccccc......",
".#.cc...##aacccc####..",
".#.........b##.....##.",
".#...........#......#.",
".#......#...##.#...##.",
".######.#####..#####..",
"......................",
"......................"};
