/* XPM */
static char *firefly_mini_xpm[]={
"16 16 4 1",
"b c None",
". c None",
"# c #585858",
"a c #ff0000",
"................",
".####..##..#..#.",
".#..#.####.####.",
".#....#..#.#..#.",
".#.##.#..#.#..#.",
".#.aaaaa.#baaa#.",
".##aa.#.a#aa..#.",
"...aa...a.aa....",
".##aaaaaa#aa###.",
".#.aa.#...aa....",
".#.aa.#...aa....",
".##aa.####baaa#.",
".#.......#....#.",
".#.......#....#.",
".####.####.####.",
"................"};
