/* XPM */
static char*gabedit_xpm[]={
"24 24 393 2",
"  	c None",
". 	c #34343F",
"+ 	c #5A5A70",
"@ 	c #30303A",
"# 	c #434350",
"$ 	c #545467",
"% 	c #32323E",
"& 	c #FFFFFF",
"* 	c #FEFEFE",
"= 	c #99999B",
"- 	c #79798B",
"; 	c #B4B4D2",
"> 	c #9494AA",
", 	c #A4A4BC",
"' 	c #ABABC7",
") 	c #63636D",
"! 	c #7E7E74",
"~ 	c #FDFDFD",
"{ 	c #FAFAFA",
"] 	c #D3D3D3",
"^ 	c #8D8D99",
"/ 	c #818198",
"( 	c #7F7F95",
"_ 	c #808096",
": 	c #7C7C90",
"< 	c #767676",
"[ 	c #B5B5A4",
"} 	c #DBEDED",
"| 	c #BBCACA",
"1 	c #97A3A3",
"2 	c #CFE0E0",
"3 	c #DAECEC",
"4 	c #D2E5E4",
"5 	c #CCDEDE",
"6 	c #C9DBDA",
"7 	c #B6BDAF",
"8 	c #B6A88A",
"9 	c #AE9268",
"0 	c #A68351",
"a 	c #AB8A5D",
"b 	c #BEA481",
"c 	c #C6C6B5",
"d 	c #D1E0DB",
"e 	c #DBEDEC",
"f 	c #EDF6F6",
"g 	c #A0A8A8",
"h 	c #686E6E",
"i 	c #C7D0D0",
"j 	c #E1E9E3",
"k 	c #B8B79A",
"l 	c #927838",
"m 	c #9B6C20",
"n 	c #A46A18",
"o 	c #A96918",
"p 	c #A76818",
"q 	c #A2671A",
"r 	c #997230",
"s 	c #A8976E",
"t 	c #D2D5C8",
"u 	c #828282",
"v 	c #363636",
"w 	c #BCBCBC",
"x 	c #F9F9F7",
"y 	c #C4BC99",
"z 	c #987B2C",
"A 	c #A87318",
"B 	c #B47618",
"C 	c #BC7918",
"D 	c #BF7818",
"E 	c #BF7718",
"F 	c #BA7518",
"G 	c #AF7218",
"H 	c #A16F1E",
"I 	c #A5884F",
"J 	c #F4F3EE",
"K 	c #C2E0E0",
"L 	c #AFCCCC",
"M 	c #1C2323",
"N 	c #060808",
"O 	c #485757",
"P 	c #C0DEDE",
"Q 	c #BEDCD6",
"R 	c #BAD8CC",
"S 	c #9AB393",
"T 	c #8D8127",
"U 	c #AA8418",
"V 	c #BF8618",
"W 	c #C68718",
"X 	c #C98918",
"Y 	c #CB8818",
"Z 	c #CB8718",
"` 	c #CA8518",
" .	c #C47F18",
"..	c #B97A18",
"+.	c #A67518",
"@.	c #918E5D",
"#.	c #B5D2CB",
"$.	c #FBFBFB",
"%.	c #C5C5C4",
"&.	c #1C1C13",
"*.	c #0B0B03",
"=.	c #45453D",
"-.	c #E4E4D3",
";.	c #E4E485",
">.	c #DADA57",
",.	c #9C9F47",
"'.	c #9D8D1A",
").	c #B69418",
"!.	c #C79618",
"~.	c #CB9718",
"{.	c #CC9919",
"].	c #CC991C",
"^.	c #CC941A",
"/.	c #CC9119",
"(.	c #CA8B18",
"_.	c #C38618",
":.	c #B68318",
"<.	c #A08434",
"[.	c #D5CFB5",
"}.	c #BAD8D7",
"|.	c #7F907E",
"1.	c #747402",
"2.	c #737300",
"3.	c #68690F",
"4.	c #A2B175",
"5.	c #DFE119",
"6.	c #E9E900",
"7.	c #8D9816",
"8.	c #A9A018",
"9.	c #BEA518",
"0.	c #CAA618",
"a.	c #CCA81A",
"b.	c #CEAF21",
"c.	c #D0B42E",
"d.	c #CDAD29",
"e.	c #CCA11E",
"f.	c #CC9718",
"g.	c #C89218",
"h.	c #BE8C18",
"i.	c #9F821C",
"j.	c #A3A775",
"k.	c #F2F2F2",
"l.	c #999982",
"m.	c #DFDF00",
"n.	c #F9F900",
"o.	c #ABAB09",
"p.	c #B9B990",
"q.	c #D4D436",
"r.	c #CFCF0B",
"s.	c #87A219",
"t.	c #B4B818",
"u.	c #C3B918",
"v.	c #CFBF18",
"w.	c #DCC31D",
"x.	c #E7C831",
"y.	c #E9CA6D",
"z.	c #E5C863",
"A.	c #D9BE34",
"B.	c #CDA819",
"C.	c #CAA018",
"D.	c #C29A18",
"E.	c #A38C18",
"F.	c #AEA966",
"G.	c #E1EBEB",
"H.	c #949A80",
"I.	c #E2E200",
"J.	c #FAFA00",
"K.	c #AFB00A",
"L.	c #B9C1B9",
"M.	c #D3DDB3",
"N.	c #C4CE8C",
"O.	c #669132",
"P.	c #8BAA19",
"Q.	c #B2BD1C",
"R.	c #CDC918",
"S.	c #E0CB1C",
"T.	c #EACC31",
"U.	c #EFCC5F",
"V.	c #ECCC55",
"W.	c #E7C62C",
"X.	c #D2B919",
"Y.	c #C9AF18",
"Z.	c #C0A818",
"`.	c #9E9419",
" +	c #A5AB6A",
".+	c #D4E4E4",
"++	c #8F987E",
"@+	c #E3E300",
"#+	c #FBFB00",
"$+	c #B1B20A",
"%+	c #B2C0BD",
"&+	c #DCEDED",
"*+	c #DDEEEE",
"=+	c #7DA978",
"-+	c #509C29",
";+	c #75BA2C",
">+	c #AAC818",
",+	c #C8CB1A",
"'+	c #DBCC24",
")+	c #E9CC32",
"!+	c #EACC2B",
"~+	c #E7CB20",
"{+	c #D6C71C",
"]+	c #C6BF1A",
"^+	c #B9B318",
"/+	c #929922",
"(+	c #AABA8B",
"_+	c #ECF0F0",
":+	c #999B82",
"<+	c #E1E100",
"[+	c #AFAF0A",
"}+	c #C5C8C6",
"|+	c #F4F6F9",
"1+	c #EDEDFA",
"2+	c #8C98BE",
"3+	c #276D67",
"4+	c #2E9E50",
"5+	c #5EB924",
"6+	c #7CC41D",
"7+	c #97C919",
"8+	c #B6CB19",
"9+	c #C2CB19",
"0+	c #C9CB19",
"a+	c #BDC822",
"b+	c #A8BF28",
"c+	c #8EA91B",
"d+	c #87A358",
"e+	c #DDE6D9",
"f+	c #CDE1E1",
"g+	c #8C967C",
"h+	c #E1E101",
"i+	c #ACAC09",
"j+	c #757FAC",
"k+	c #A1A6E6",
"l+	c #AAAAEB",
"m+	c #3946AD",
"n+	c #162D9D",
"o+	c #1C5E8B",
"p+	c #36905B",
"q+	c #48AA43",
"r+	c #59BA33",
"s+	c #72C124",
"t+	c #7FC11D",
"u+	c #89BF19",
"v+	c #7FB82A",
"w+	c #6DA634",
"x+	c #69983D",
"y+	c #ACCAB4",
"z+	c #D2E8E7",
"A+	c #E7EDED",
"B+	c #969981",
"C+	c #E0E000",
"D+	c #AAAA08",
"E+	c #9395B5",
"F+	c #D5D6F4",
"G+	c #E7E7FA",
"H+	c #2D5990",
"I+	c #1821B0",
"J+	c #1920B9",
"K+	c #213B9C",
"L+	c #315C76",
"M+	c #3A856B",
"N+	c #40A255",
"O+	c #43A53E",
"P+	c #42A236",
"Q+	c #379049",
"R+	c #2D665C",
"S+	c #728C97",
"T+	c #F2F9F8",
"U+	c #F2F9F9",
"V+	c #D8E7E6",
"W+	c #929A80",
"X+	c #B6C2C0",
"Y+	c #E1F0F0",
"Z+	c #E2F1F1",
"`+	c #3B8288",
" @	c #183AB3",
".@	c #1819C9",
"+@	c #331D9C",
"@@	c #6F1531",
"#@	c #421676",
"$@	c #2529A8",
"%@	c #1F31A8",
"&@	c #1A30AE",
"*@	c #191FBA",
"=@	c #1825AA",
"-@	c #6A88B0",
";@	c #DCE8E7",
">@	c #91987F",
",@	c #B8C2BF",
"'@	c #E5F2F2",
")@	c #E6F3F3",
"!@	c #77AC9F",
"~@	c #225496",
"{@	c #2A2FA4",
"]@	c #665E51",
"^@	c #825F3B",
"/@	c #4234AF",
"(@	c #2726CC",
"_@	c #1B1BCC",
":@	c #1819CC",
"<@	c #1826C2",
"[@	c #2353A1",
"}@	c #92B7BD",
"|@	c #C8C8C7",
"1@	c #C7DACA",
"2@	c #6F8E52",
"3@	c #8A8D24",
"4@	c #98980A",
"5@	c #7C7C58",
"6@	c #6A6AC4",
"7@	c #4B4DCC",
"8@	c #232BCC",
"9@	c #1835CB",
"0@	c #186CA9",
"a@	c #47998B",
"b@	c #D3E5DB",
"c@	c #BDD9D9",
"d@	c #859479",
"e@	c #E4E400",
"f@	c #B2B30A",
"g@	c #A1B8B5",
"h@	c #C4E2E2",
"i@	c #C5E2E2",
"j@	c #BBD2AC",
"k@	c #C4C81E",
"l@	c #E6E600",
"m@	c #D9D900",
"n@	c #8E942A",
"o@	c #3755A8",
"p@	c #2463BF",
"q@	c #1A7CAE",
"r@	c #1B9E8D",
"s@	c #4BAC68",
"t@	c #9DC9AE",
"u@	c #F0F2F2",
"v@	c #969784",
"w@	c #BAB700",
"x@	c #D5D000",
"y@	c #8F8D0B",
"z@	c #C8CAC8",
"A@	c #FAFCFC",
"B@	c #FBFDFD",
"C@	c #E9EAC2",
"D@	c #D7D826",
"E@	c #F2F200",
"F@	c #9EB124",
"G@	c #429278",
"H@	c #369D7D",
"I@	c #4AA872",
"J@	c #76BA80",
"K@	c #CFE2CA",
"L@	c #F6F9F7",
"M@	c #FCFEFE",
"N@	c #C1DADA",
"O@	c #6E7876",
"P@	c #7B3100",
"Q@	c #9A3D00",
"R@	c #582909",
"S@	c #9FB3B3",
"T@	c #C9E4E4",
"U@	c #CAE5E5",
"V@	c #C3DED2",
"W@	c #B6C95A",
"X@	c #D2D505",
"Y@	c #C2C911",
"Z@	c #9EBC6D",
"`@	c #8CBEA3",
" #	c #8BBFA3",
".#	c #A1CBB7",
"+#	c #BBDAD3",
"@#	c #F4F4F4",
"##	c #9F8A8A",
"$#	c #C30202",
"%#	c #DD0303",
"&#	c #9B0F0F",
"*#	c #CECCCC",
"=#	c #FEFEFC",
"-#	c #F5F5E8",
";#	c #F9F9F3",
">#	c #E5EFEF",
",#	c #ACB3B3",
"'#	c #835050",
")#	c #945252",
"!#	c #7B5D5D",
"~#	c #D1DADA",
"{#	c #EAF4F4",
"]#	c #EBF5F5",
"^#	c #BDDADA",
"/#	c #A4C0C0",
"(#	c #A7C2C2",
"_#	c #A9C5C5",
":#	c #C4E1E1",
"                . + @ # $ %                     ",
"  & & & & & * = - ; > , ' ) ! & & & & & & & &   ",
"  & & ~ { * & ] ^ / ( _ : < [ & & & & & & & &   ",
"  } } | 1 2 } 3 4 5 5 6 7 8 9 0 a b c d e } }   ",
"  f f g h i f f f f j k l m n o p q r s t f f   ",
"  & & u v w & & & x y z A B C D E F G H I J &   ",
"  K L M N O P Q R S T U V W X Y Z `  ...+.@.#.  ",
"  $.%.&.*.=.-.;.>.,.'.).!.~.{.].^./.(._.:.<.[.  ",
"  }.|.1.2.3.4.5.6.7.8.9.0.a.b.c.d.e.f.g.h.i.j.  ",
"  k.l.m.n.o.p.q.r.s.t.u.v.w.x.y.z.A.B.C.D.E.F.  ",
"  G.H.I.J.K.L.M.N.O.P.Q.R.S.T.U.V.W.X.Y.Z.`. +  ",
"  .+++@+#+$+%+&+*+=+-+;+>+,+'+)+!+~+{+]+^+/+(+  ",
"  _+:+<+J.[+}+|+1+2+3+4+5+6+7+8+9+0+a+b+c+d+e+  ",
"  f+g+h+J.i+j+k+l+m+n+o+p+q+r+s+t+u+v+w+x+y+z+  ",
"  A+B+C+J.D+E+F+G+H+I+J+K+L+M+N+O+P+Q+R+S+T+U+  ",
"  V+W+@+#+$+X+Y+Z+`+ @.@+@@@#@$@%@&@*@=@-@Z+Z+  ",
"  ;@>@I.J.K.,@'@)@!@~@{@]@^@/@(@_@:@<@[@}@)@)@  ",
"  k.l.m.J.o.|@~ & 1@2@3@4@5@6@7@8@9@0@a@b@& &   ",
"  c@d@e@#+f@g@h@i@j@k@l@m@n@o@p@q@r@s@t@h@i@i@  ",
"  u@v@w@x@y@z@A@B@C@D@E@e@F@G@H@I@J@K@L@B@B@M@  ",
"  N@O@P@Q@R@S@T@U@V@W@X@Y@Z@`@ #.#+#U@U@U@U@U@  ",
"  @###$#%#&#*#* & & =#-#;#& & & & & & & & & &   ",
"  >#,#'#)#!#~#{#]#]#]#]#]#]#]#]#]#]#]#]#]#]#]#  ",
"  i@^#/#(#_#:#i@i@i@i@i@i@i@i@i@i@i@i@i@i@i@i@  "};
