/* XPM */
static char *gabedit_mini_xpm[]={
"16 16 221 2",
"Qt c #ffffff",
"#W c #a8b580",
"#G c #aba967",
"#q c #b3b48a",
"#a c #bfd1c3",
"bA c #d1e8e8",
"a8 c #d7ebeb",
"aa c #d9e6dd",
"bl c #daeded",
".G c #e1f0f0",
"aD c #e3f1f1",
"ap c #e7f3f3",
"aS c #f6fafa",
".W c #f8fbfb",
".q c #fefefe",
"aT c #cee1e1",
"#b c #cfe3e3",
"bt c #cfe6e6",
"a9 c #d0e2e2",
".X c #d5e9e9",
"#H c #d8e6e6",
"aq c #d9e7e6",
".b c #dcdcdc",
"ab c #dee9e9",
"#X c #e1eaea",
".r c #e1f0f0",
"aE c #eaeeee",
"#r c #ecefef",
"bm c #eef2f2",
".H c #f8fbfb",
".a c #fefefe",
".# c #ffffff",
".g c #5b5b5e",
".c c #565662",
".Z c #151916",
"ah c #192fa9",
"aA c #1a27b5",
"az c #1b28b6",
"aO c #1b2aca",
"av c #1d2cb5",
"ay c #2328b4",
"aP c #2464a5",
"#4 c #26786b",
"ag c #28439e",
"a3 c #2a7da3",
"ai c #2e617b",
".0 c #323936",
"aN c #3437cb",
"a4 c #359e8d",
"au c #3d7698",
"aj c #408b5c",
"am c #4a9044",
"ax c #52256d",
"ak c #52ab3f",
"aw c #543167",
"#d c #555506",
"#3 c #556fa2",
"#e c #585915",
"a2 c #587b72",
"al c #58ab2f",
"#5 c #59b032",
"aB c #5a78b0",
".e c #5d5d6d",
".f c #616174",
"an c #61896c",
"aK c #647256",
"aM c #676098",
".d c #6b6b7f",
"#N c #6fa04c",
".J c #747676",
"bh c #77b89a",
"#6 c #7ac125",
"#O c #7cb226",
"ba c #805507",
".o c #828292",
"bg c #82b380",
"aL c #847e30",
"a. c #87a928",
".n c #8a8aa0",
"#x c #8aa31e",
".m c #8e8ea6",
"a5 c #8ec79d",
"aJ c #8faf9f",
".p c #929289",
"aQ c #93babc",
".K c #979999",
".3 c #979f5c",
"b. c #97a29c",
"#h c #989922",
"b# c #996100",
".l c #9999a2",
"bi c #9acab0",
"bv c #9b9b9b",
"ae c #9ca0c6",
"#V c #9ca140",
"bw c #9ca1a1",
"aU c #a0ae9d",
"bp c #a12626",
"#9 c #a1be27",
".P c #a37320",
".t c #a3afaf",
"#7 c #a3c71c",
"#F c #a49733",
"## c #a4a276",
".T c #a57528",
".4 c #a5871c",
"#p c #a59347",
".B c #a77b41",
"#I c #a8b2a0",
"ar c #a9b3a1",
"#c c #a9b7ae",
"a# c #aac299",
".A c #ab8955",
".z c #aba07c",
"ac c #abb3a2",
"#Y c #adb4a3",
".U c #af9563",
"#. c #b07b18",
".C c #b08956",
".O c #b0a270",
"#8 c #b0c719",
".Q c #b17319",
"aF c #b2b4a5",
".S c #b37019",
"#i c #b39d18",
"#s c #b3b5a5",
"bo c #b41d1d",
"#y c #b5b719",
".u c #b5c1c1",
".R c #b77218",
"#1 c #b9bdce",
".D c #bbb397",
"bb c #bbcaca",
"aX c #bbccca",
"bn c #bcb5b5",
"#P c #bdc919",
"bf c #bdc926",
"#o c #be8a18",
"#U c #beb218",
"aW c #bebd07",
"bu c #bfd5d5",
"#L c #c0cdc5",
".Y c #c0d3d3",
"#v c #c1c488",
".9 c #c28118",
".5 c #c38b18",
"#E c #c3a018",
"a1 c #c3c70d",
"ad c #c4c406",
"as c #c4d1cf",
"#u c #c5c506",
"#f c #c5cc77",
".2 c #c5d9ab",
"aG c #c6c606",
"#0 c #c7c707",
"#K c #c8c907",
".y c #c8d4cc",
".6 c #c98d18",
"#n c #c99118",
"#j c #c9a018",
".8 c #ca8918",
"aZ c #cad582",
"bd c #cadba1",
".7 c #cb8c19",
".1 c #cbdfcf",
"bx c #cbe1e1",
"#m c #cc9e1f",
"#k c #cca51c",
"#D c #ccaa19",
"#l c #cda827",
"af c #cdcef2",
"#w c #cdd044",
"a6 c #cde5de",
"#T c #cfbf1a",
"bj c #d0e6e1",
".E c #d1dbd2",
"by c #d1e7e7",
"bz c #d1e8e8",
"aH c #d2d7d5",
"#z c #d3c31a",
"be c #d3d81c",
"#M c #d5e4d0",
".x c #d5e4e3",
"#2 c #d6d7f3",
"aY c #d6eaea",
"a7 c #d7ebeb",
"#Q c #d9cb24",
"bc c #d9ecec",
"bk c #daeded",
"bq c #dcdede",
".w c #dcebeb",
"aV c #dddc00",
"ao c #deece7",
"a0 c #dfe00b",
"#C c #e0c23f",
".v c #e0efef",
".s c #e1efef",
".F c #e1f0f0",
"#g c #e2e328",
"at c #e2f0f0",
"aC c #e3f1f1",
"#A c #e4c72b",
".N c #e6e7de",
"#S c #e7ca2b",
"#t c #e8e800",
".k c #e8e8e9",
"#B c #e9c964",
"#Z c #e9e900",
"#R c #eacc3e",
"#J c #eaea00",
".V c #f3f5f3",
"br c #f3f6f0",
"bs c #f5f8f5",
"aI c #f5f9f9",
"aR c #f6fafa",
".I c #f7fafa",
".M c #f8fafa",
".L c #f8fbfb",
".i c #fcfcfc",
".j c #fdfdfd",
".h c #fefefe",
"Qt.#.#.a.b.c.d.e.f.g.#.#.#.#.#Qt",
".a.h.i.j.k.l.m.n.o.p.h.h.h.h.h.q",
".r.s.t.u.v.w.x.y.z.A.B.C.D.E.F.G",
".H.I.J.K.L.M.N.O.P.Q.R.S.T.U.V.W",
".X.Y.Z.0.1.2.3.4.5.6.7.8.9#.###a",
"#b#c#d#e#f#g#h#i#j#k#l#m#n#o#p#q",
"#r#s#t#u#v#w#x#y#z#A#B#C#D#E#F#G",
"#H#I#J#K#L#M#N#O#P#Q#R#S#T#U#V#W",
"#X#Y#Z#0#1#2#3#4#5#6#7#8#9a.a#aa",
"abac#tadaeafagahaiajakalamanaoap",
"aqar#J#KasatauavawaxayazaAaBaCaD",
"aEaF#taGaHaIaJaKaLaMaNaOaPaQaRaS",
"aTaUaVaWaXaYaZa0a1a2a3a4a5a6a7a8",
"a9b.b#babbbcbdbebfbgbhbibjbcbkbl",
"bmbnbobpbq.I.Ibrbs.L.L.L.L.L.L.W",
"btbubvbwbxbybzbzbzbzbzbzbzbzbzbA"};
