/* XPM */
static char *gamess_mini_xpm[]={
"16 16 3 1",
"# c None",
". c None",
"a c #585858",
"....##..........",
"#aaaa#.aa.#a..a#",
"#a##a#aaaa#aaaa#",
"#a####a##a#a..a#",
"#a#aa#a##a#a##a#",
"#a##a#a..a#a..a#",
"#aaaa#a..a#a..a#",
"#.........#...##",
"#aaaa#aaaa#aaaa#",
"#a...#a##.#a##..",
"#a...#a####a###.",
"#aaaa#aaaa#aaaa#",
"#a...#.##a####a#",
"#a#######a####a#",
"#aaaa#aaaa#aaaa.",
"................"};
