/* XPM */
static char *gamess_xpm[]={
"22 22 2 1",
". c None",
"# c #222222",
"......................",
"......#...............",
".######...##...#....#.",
".#....#...###..##..##.",
".#.......#..#..######.",
".#..##...#..#..#.##.#.",
".#....#.#....#.#....#.",
".#....#.#....#.#....#.",
".######.#....#.#....#.",
"......................",
"......................",
".######..#####..#####.",
".#......##.....##.....",
".#......#......#......",
".######.#......#......",
".#......#####..#####..",
".#..........##.....##.",
".#...........#......#.",
".#......#...##.#...##.",
".######.#####..#####..",
"......................",
"......................"};
