/* XPM */
static char*geometry_xpm[]={
"24 24 115 2",
"  	c None",
". 	c #9C9900",
"+ 	c #939201",
"@ 	c #9A9700",
"# 	c #37500E",
"$ 	c #1C411C",
"% 	c #327332",
"& 	c #2D6D2D",
"* 	c #999A04",
"= 	c #63B23C",
"- 	c #50BA50",
"; 	c #2B662B",
"> 	c #419C41",
", 	c #409640",
"' 	c #818100",
") 	c #000000",
"! 	c #919605",
"~ 	c #569530",
"{ 	c #3F963F",
"] 	c #3A833A",
"^ 	c #337133",
"/ 	c #306B30",
"( 	c #245524",
"_ 	c #337F33",
": 	c #368136",
"< 	c #337833",
"[ 	c #989500",
"} 	c #858500",
"| 	c #416B1A",
"1 	c #438D39",
"2 	c #3E943E",
"3 	c #2D6F2D",
"4 	c #368036",
"5 	c #388538",
"6 	c #999701",
"7 	c #999700",
"8 	c #8B8A00",
"9 	c #317831",
"0 	c #347C34",
"a 	c #2F732F",
"b 	c #317631",
"c 	c #378537",
"d 	c #2A5E21",
"e 	c #808705",
"f 	c #8D8C00",
"g 	c #595900",
"h 	c #676700",
"i 	c #585800",
"j 	c #316D31",
"k 	c #2F6D2F",
"l 	c #378637",
"m 	c #47A847",
"n 	c #357D32",
"o 	c #B2B200",
"p 	c #FDFD00",
"q 	c #2F6A2F",
"r 	c #368536",
"s 	c #225822",
"t 	c #B3B300",
"u 	c #FFFF00",
"v 	c #1C431C",
"w 	c #2F6E2F",
"x 	c #357E35",
"y 	c #327432",
"z 	c #2A602A",
"A 	c #2F762F",
"B 	c #337433",
"C 	c #316F31",
"D 	c #B4B400",
"E 	c #336B28",
"F 	c #429A40",
"G 	c #3C913C",
"H 	c #326F32",
"I 	c #6F6E00",
"J 	c #7F8D0A",
"K 	c #417624",
"L 	c #255725",
"M 	c #2C632C",
"N 	c #1B3D1B",
"O 	c #327532",
"P 	c #3A853A",
"Q 	c #235223",
"R 	c #7B7900",
"S 	c #2F682F",
"T 	c #265A26",
"U 	c #265726",
"V 	c #378337",
"W 	c #3E933E",
"X 	c #296229",
"Y 	c #367D36",
"Z 	c #388838",
"` 	c #347834",
" .	c #3C8B3C",
"..	c #367936",
"+.	c #439543",
"@.	c #367C36",
"#.	c #327232",
"$.	c #5AB05A",
"%.	c #398839",
"&.	c #429842",
"*.	c #367B36",
"=.	c #99A30E",
"-.	c #2E632C",
";.	c #9B9800",
">.	c #8A8900",
",.	c #979600",
"'.	c #E0DF00",
").	c #969600",
"!.	c #949200",
"~.	c #888700",
"{.	c #610D00",
"].	c #A71A00",
"^.	c #959300",
"/.	c #890000",
"(.	c #D00000",
"                                .               ",
"                              . .               ",
"                              .                 ",
"                            + @                 ",
"      . .                   #                   ",
"        . .             $ % &                   ",
"          . * = -       ; > ,                 ' ",
"    )       ! ~ { ] ^ / ( _ : <             [ } ",
"    )       | 1 2 3           4 5       6 7 8   ",
"  ) ) )       9 0               a b c d e f     ",
"  g h i     j k                   l m n         ",
"  o p o     q j                   a r s         ",
"  t u t     v w                   x y           ",
"  t u t   z A r                   B C           ",
"  t u D   E F G                   H /           ",
"  t u o I J K L M             N O P Q           ",
"  o u o R       S j j T     / U V W X           ",
"  o u o           C Y Z `  ...+.@.#.$.          ",
"  o u o             %.&.*.            =..       ",
"  o u t               -.                ;.>.    ",
"  ,.'.).            6                     !.~.  ",
"  {.].{.            .                       ^.  ",
"  /.(./.          . .                           ",
"                .                               "};
