/* XPM */
static char*H[]={
"21 18 41 1",
"E c #bebebe",
"e c #8e8a8e",
"M c #79869e",
"s c #9696ae",
"b c #cfc7cf",
"L c #a6a2a6",
"q c #961408",
"u c #595128",
"l c #cf5528",
"h c #b6b2b6",
"G c #bebabe",
"o c #ff8e08",
"d c #bec3cf",
"B c #808000",
"p c #413841",
"D c #717571",
"f c #aeaeb6",
"I c #b6aeb6",
"t c #616161",
"# c #cfd3cf",
"n c #797979",
"z c #202020",
"g c #aeb2cf",
"j c #ae6161",
"A c #ffb610",
"K c #666666",
"w c #ffff00",
"a c None",
"r c #690808",
"C c #000018",
"m c #c4c4c4",
"c c #cccccc",
"H c #c7bac7",
"J c #b9b9b9",
"i c #be2020",
". c #dcdcdc",
"y c #717986",
"F c #202851",
"k c #867986",
"x c #3d3b3d",
"v c #aeb228",
".#a###############aaa",
"aaaaaaaaaaaaaaaaaaaba",
"caaaaaaaaaaaaaaaaaaba",
"caaaaaaaadefgaaahaaba",
"caaaaaaadeijgghaaaaca",
"caaaaaadkllljgghaaaca",
"maaaaagnllloljfgaaama",
"maaaagpqliiiiirsaaama",
"maaaatuvvwwwvvvxaaama",
"maaaayvuzwAwBCvDsaaEa",
"maaaasvuFvqBBFvjgaaGa",
"HaaaasvxFvlvuFvDgaaGa",
"GaaaasvvvvqvwBwDIaaJa",
"GaaaasuAABquAAvKIaaJa",
"JaaaaLkyyyeMyyysLaaha",
"Jaaaaaaaaaaaaaaaaaaha",
"Gaaaaaaaaaaaaaaaaaama",
"aaaaaaaaaaaaaaaaaaaaa"};
