/* XPM */
static char *hide_xpm[]={
"24 24 9 1",
"c c #000000",
"a c #1b1b1b",
"d c #1c1c1c",
"b c #606060",
"# c #6d6d6d",
"g c #6e6e6e",
"f c #898989",
"e c #a4a4a4",
". c #c0c0c0",
"........................",
"........................",
"........................",
"........................",
"........................",
"....#aaaa......aaaa#....",
"....bcddd......dddcb....",
"....bc............cb....",
"....bc............cb....",
"....bc............cb....",
"....ef............fe....",
"........................",
"........................",
"....ef............fe....",
"....bc............cb....",
"....bc............cb....",
"....bc............cb....",
"....bcaaa......aaacb....",
"....gdddd......ddddg....",
"........................",
"........................",
"........................",
"........................",
"........................"};
