/* XPM */
static char* home_xpm[]={
"21 18 33 1",
"a c #8e8a8e",
"D c #79869e",
"n c #9696ae",
"C c #a6a2a6",
"l c #961408",
"p c #595128",
"h c #cf5528",
"d c #b6b2b6",
"j c #ff8e08",
"# c #bec3cf",
"w c #808000",
"k c #413841",
"y c #717571",
"b c #aeaeb6",
"A c #b6aeb6",
"o c #616161",
"i c #797979",
"u c #202020",
"c c #aeb2cf",
"f c #ae6161",
"v c #ffb610",
"B c #666666",
"r c #ffff00",
". c None",
"m c #690808",
"x c #000018",
"E c #c4c4c4",
"e c #be2020",
"t c #717986",
"z c #202851",
"g c #867986",
"s c #3d3b3d",
"q c #aeb228",
".....................",
".....................",
".....................",
".........#abc...d....",
"........#aefccd......",
".......#ghhhfccd.....",
"......cihhhjhfbc.....",
".....cklheeeeemn.....",
".....opqqrrrqqqs.....",
".....tqpurvrwxqyn....",
".....nqpzqlwwzqfc....",
".....nqszqhqpzqyc....",
".....nqqqqlqrwryA....",
".....npvvwlpvvqBA....",
".....CgtttaDtttnC....",
".....................",
"...................E.",
"....................."};
