/* XPM */
static char * icon1_xpm[] = {
"66 66 117 2",
"  	c None",
". 	c #FFFFFF",
"+ 	c #E80A0A",
"@ 	c #EB3131",
"# 	c #FEFEFE",
"$ 	c #EB3030",
"% 	c #F8B9B9",
"& 	c #ED4848",
"* 	c #E81111",
"= 	c #E92121",
"- 	c #F06868",
"; 	c #FCECEC",
"> 	c #EC3B3B",
", 	c #F7B4B4",
"' 	c #F7B1B1",
") 	c #ED4B4B",
"! 	c #F7B8B8",
"~ 	c #FDF3F3",
"{ 	c #FCE9E9",
"] 	c #F06C6C",
"^ 	c #EE5151",
"/ 	c #FDF9F9",
"( 	c #F16F6F",
"_ 	c #E91A1A",
": 	c #E91F1F",
"< 	c #F38E8E",
"[ 	c #FEFDFD",
"} 	c #F38787",
"| 	c #EA2828",
"1 	c #E91919",
"2 	c #F06666",
"3 	c #FDF4F4",
"4 	c #F6ACAC",
"5 	c #EC4242",
"6 	c #EC3F3F",
"7 	c #F6ADAD",
"8 	c #FDF8F8",
"9 	c #F17474",
"0 	c #F59A9A",
"a 	c #EA2727",
"b 	c #FAD4D4",
"c 	c #FDF2F2",
"d 	c #E81616",
"e 	c #F9CDCD",
"f 	c #E92323",
"g 	c #F49393",
"h 	c #F28383",
"i 	c #ED4A4A",
"j 	c #FCE4E4",
"k 	c #FBE3E3",
"l 	c #ED4747",
"m 	c #F49090",
"n 	c #ED4949",
"o 	c #FBDEDE",
"p 	c #FCEEEE",
"q 	c #EF6161",
"r 	c #F17777",
"s 	c #EA2D2D",
"t 	c #F9C6C6",
"u 	c #F8C1C1",
"v 	c #F28181",
"w 	c #F28282",
"x 	c #EE5656",
"y 	c #FBDFDF",
"z 	c #F38585",
"A 	c #F7B2B2",
"B 	c #ED4444",
"C 	c #F7B5B5",
"D 	c #E91D1D",
"E 	c #EA2B2B",
"F 	c #FAD6D6",
"G 	c #EB2F2F",
"H 	c #FAD9D9",
"I 	c #FCE8E8",
"J 	c #F59C9C",
"K 	c #EE5454",
"L 	c #ED4D4D",
"M 	c #F59D9D",
"N 	c #EA2A2A",
"O 	c #FCE7E7",
"P 	c #FDF5F5",
"Q 	c #E81212",
"R 	c #FACFCF",
"S 	c #EA2424",
"T 	c #FAD0D0",
"U 	c #F49797",
"V 	c #E92222",
"W 	c #F9CBCB",
"X 	c #FDF7F7",
"Y 	c #E70B0B",
"Z 	c #F6A8A8",
"` 	c #F8C2C2",
" .	c #F27D7D",
"..	c #FAD5D5",
"+.	c #EB2E2E",
"@.	c #F38B8B",
"#.	c #E70D0D",
"$.	c #F38C8C",
"%.	c #F6AAAA",
"&.	c #F9CACA",
"*.	c #EA2C2C",
"=.	c #ED4C4C",
"-.	c #FAD7D7",
";.	c #FAD3D3",
">.	c #EF5D5D",
",.	c #F27F7F",
"'.	c #F28080",
").	c #EA2626",
"!.	c #FCE5E5",
"~.	c #F38A8A",
"{.	c #F06D6D",
"].	c #E91E1E",
"^.	c #F49595",
"/.	c #E81010",
"(.	c #EB3434",
"_.	c #F17272",
":.	c #F38686",
". . . . . . . . . . . . . . . . . . . . . . . . . . . . . . . . . . . . . . . . . . . . . . . . . . . . . . . . . . . . . . . . . . ",
". . . . . . . . . . . . . . . . . . . . . . . . . . . . . . . . . . . . . . . . . . . . . . . . . . . . . . . . . . . . . . . . . . ",
". . . . . . . . . . . . . . . . . . . . . . . . . . . . . . . . . . . . . . . . . . . . . . . . . . . . . . . . . . . . . . . . . . ",
". . . . . . . . . . . . . . . . . . . . . . . . . . . . . . . . . . . . . . . . . . . . . . . . . . . . . . . . . . . . . . . . . . ",
". . . . . . . . . . . . . . . . . . . . . . . . . . . . . . . . . . . . . . . . . . . . . . . . . . . . . . . . . . . . . . . . . . ",
". . . . . . . . . . . . . . . . . . . . . . . . . . . . . . . . . . . . . . . . . . . . . . . . . . . . . . . . . . . . . . . . . . ",
". . . . . . . . . . . . . . . . . . . . . . . . . . . . . . . . . . . . . . . . . . . . . . . . . . . . . . . . . . . . . . . . . . ",
". . . . . . . . . . . . . . . . . . . . . . . . . . . . . . . . . . . . . . . . . . . . . . . . . . . . . . . . . . . . . . . . . . ",
". . . . . . . . . . . . . . . . . . . . . . . . . . . . . . . . . . . . . . . . . . . . . . . . . . . . . . . . . . . . . . . . . . ",
". . . . . . . . . . . . . . . . . . . . . . . . . . . . . . . . . . . . . . . . . . . . . . . . . . . . . . . . . . . . . . . . . . ",
". . . . . . . . . . . . . . . . . . . . . . . . . . . . . . . . . . . . . . . . . . . . . . . . . . . . . . . . . . . . . . . . . . ",
". . . . . . . . . . . . . . . . . . . . . . . . . . . . . . . . . . . . . . . . . . . . . . . . . . . . . . . . . . . . . . . . . . ",
". . . . . . . . . . . . . . . . . . . . . . . . . . . . . . . . . . . . . . . . . . . . . . . . . . . . . . . . . . . . . . . . . . ",
". . . . . . . . . . . . . . . . . . . . . . . . . . . . . . . . . . . . . . . . . . . . . . . . . . . . . . . . . . . . . . . . . . ",
". . . . . . . . . . . . . . . . . . . . . . . . . . . . . . . . . . . . . . . . . . . . . . . . . . . . . . . . . . . . . . . . . . ",
". . . . . . . . . . . . . . . . . . . . . . . . . . . . . . . . . . . . . . . . . . . . . . . . . . . . . . . . . . . . . . . . . . ",
". . . . . . . . . . . . . . . . . . . . . . . . . . . . . . . . . . . . . . . . . . . . . . . . . . . . . . . . . . . . . . . . . . ",
". . . . . . . . . . . . . . . . . . . . . . . . . . . . . . . . . . . . . . . . . . . . . . . . . . . . . . . . . . . . . . . . . . ",
". . . . . . . . . . . . . . . . . . . . . . . . . . . . . . . . . . . . . . . . . . . . . . . . . . . . . . . . . . . . . . . . . . ",
". . . . . . . . . . . . . . . . . . . . . . . . . . . . . . . . . . . . . . . . . . . . . . . . . . . . . . . . . . . . . . . . . . ",
". . . . . . . . . . . . . . . . . . . . . . . . . . . . . . . . . . . . . . . . . . . . . . . . . . . . . . . . . . . . . . . . . . ",
". . . . . . . . . . . . . . . . . . . . . . . . . . . . . . . . . . . . . . . . . . . . . . . . . . . . . . . . . . . . . . . . . . ",
". . . . . . . . . . . . . . . . . . . . . . . . . . . . . . . . . . . . . . . . . . . . . . . . . . . . . . . . . . . . . . . . . . ",
". . . . . . . . . . . . . . . . . . . . . . . . . . . . . . . . . . . . . . . . . . . . . . . . . . . . . . . . . . . . . . . . . . ",
". . . . . . . . . . . . . . . . . . . . . . . . . . . . . . . . . . . . . . . . . . . . . . . . . . . . . . . . . . . . . . . . . . ",
". . . . . . . . . . . . . . . . . . . . . . . . . . . . . . . . . . . . . . . . . . . . . . . . . . . . . . . . . . . . . . . . . . ",
". . . . . . . . . . . + . . . . . . . . . . . . . . . . . . . . . . . . . . . . . . . . . . . . . . . + . . . . . . . . . . . . . . ",
". . . . . . . . . . . + . . . . . . . . . . . . . . . . . . . . . . . . . . . . . . . . . . . . . . . + . . . . . . . . . . . . . . ",
". . . . . . . . . . . + . . . . . . . . + @ # . . . # $ + . . . . . . . . . . . . . . . % & * = - ; . + . . . . . . . . . . . . . . ",
". . . . . . . . . . . + . . . . . . . . + > , . . . ' > + . . . . . . . . . . . . . . . ) ! ~ { ] ^ . + . . . . . . . . . . . . . . ",
". . . . . . / ( _ : < + . [ } | 1 2 3 . + 4 5 . . . 6 7 + . 8 9 : : 9 8 . + 0 a * 6 b . . . . . c d . + . . e f g . . . . . . . . . ",
". . . . . . h i j k l + . m n o p q r . + [ s t . u s [ + . v i k k l w . + x y 3 z 5 . . . . . A B . + . C D A . . . . . . . . . . ",
". . . . . . E F . . b + . G H . . I a . + . J K . L M . + . N F . . b E . + O . . P Q . . . . R S T . + U V W . . . . . . . . . . . ",
". . . . . . * X . . X + . Q + + + + Y . + . 8 = Z = 8 . + . * X . . X * . + . . . . + . . . u S ` . . + N  .. . . . . . . . . . . . ",
". . . . . . E F . . ..+ . +.y . . . . . + . . @.#.$.. . + . N F . . b E . + . . . . + . . %.V &.. . . + k *.< . . . . . . . . . . . ",
". . . . . . v =.j j i + . g i -./ ;.>.. + . . . . . . . + . ,.i k k & '.. + . . . . + . m ).-.. . . . + . !.+.~.. . . . . . . . . . ",
". . . . . . 8 {.1 ].< + . [ ^.G /.(.A . + . . . . . . . + . X _.: : _.X . + . . . . + . + + + + + + ~ + . . O $ :.. . . . . . . . . ",
". . . . . . . . . . . . . . . . . . . . . . . . . . . . . . . . . . . . . . . . . . . . . . . . . . . . . . . . . . . . . . . . . . ",
". . . . . . . . . . . . . . . . . . . . . . . . . . . . . . . . . . . . . . . . . . . . . . . . . . . . . . . . . . . . . . . . . . ",
". . . . . . . . . . . . . . . . . . . . . . . . . . . . . . . . . . . . . . . . . . . . . . . . . . . . . . . . . . . . . . . . . . ",
". . . . . . . . . . . . . . . . . . . . . . . . . . . . . . . . . . . . . . . . . . . . . . . . . . . . . . . . . . . . . . . . . . ",
". . . . . . . . . . . . . . . . . . . . . . . . . . . . . . . . . . . . . . . . . . . . . . . . . . . . . . . . . . . . . . . . . . ",
". . . . . . . . . . . . . . . . . . . . . . . . . . . . . . . . . . . . . . . . . . . . . . . . . . . . . . . . . . . . . . . . . . ",
". . . . . . . . . . . . . . . . . . . . . . . . . . . . . . . . . . . . . . . . . . . . . . . . . . . . . . . . . . . . . . . . . . ",
". . . . . . . . . . . . . . . . . . . . . . . . . . . . . . . . . . . . . . . . . . . . . . . . . . . . . . . . . . . . . . . . . . ",
". . . . . . . . . . . . . . . . . . . . . . . . . . . . . . . . . . . . . . . . . . . . . . . . . . . . . . . . . . . . . . . . . . ",
". . . . . . . . . . . . . . . . . . . . . . . . . . . . . . . . . . . . . . . . . . . . . . . . . . . . . . . . . . . . . . . . . . ",
". . . . . . . . . . . . . . . . . . . . . . . . . . . . . . . . . . . . . . . . . . . . . . . . . . . . . . . . . . . . . . . . . . ",
". . . . . . . . . . . . . . . . . . . . . . . . . . . . . . . . . . . . . . . . . . . . . . . . . . . . . . . . . . . . . . . . . . ",
". . . . . . . . . . . . . . . . . . . . . . . . . . . . . . . . . . . . . . . . . . . . . . . . . . . . . . . . . . . . . . . . . . ",
". . . . . . . . . . . . . . . . . . . . . . . . . . . . . . . . . . . . . . . . . . . . . . . . . . . . . . . . . . . . . . . . . . ",
". . . . . . . . . . . . . . . . . . . . . . . . . . . . . . . . . . . . . . . . . . . . . . . . . . . . . . . . . . . . . . . . . . ",
". . . . . . . . . . . . . . . . . . . . . . . . . . . . . . . . . . . . . . . . . . . . . . . . . . . . . . . . . . . . . . . . . . ",
". . . . . . . . . . . . . . . . . . . . . . . . . . . . . . . . . . . . . . . . . . . . . . . . . . . . . . . . . . . . . . . . . . ",
". . . . . . . . . . . . . . . . . . . . . . . . . . . . . . . . . . . . . . . . . . . . . . . . . . . . . . . . . . . . . . . . . . ",
". . . . . . . . . . . . . . . . . . . . . . . . . . . . . . . . . . . . . . . . . . . . . . . . . . . . . . . . . . . . . . . . . . ",
". . . . . . . . . . . . . . . . . . . . . . . . . . . . . . . . . . . . . . . . . . . . . . . . . . . . . . . . . . . . . . . . . . ",
". . . . . . . . . . . . . . . . . . . . . . . . . . . . . . . . . . . . . . . . . . . . . . . . . . . . . . . . . . . . . . . . . . ",
". . . . . . . . . . . . . . . . . . . . . . . . . . . . . . . . . . . . . . . . . . . . . . . . . . . . . . . . . . . . . . . . . . ",
". . . . . . . . . . . . . . . . . . . . . . . . . . . . . . . . . . . . . . . . . . . . . . . . . . . . . . . . . . . . . . . . . . ",
". . . . . . . . . . . . . . . . . . . . . . . . . . . . . . . . . . . . . . . . . . . . . . . . . . . . . . . . . . . . . . . . . . ",
". . . . . . . . . . . . . . . . . . . . . . . . . . . . . . . . . . . . . . . . . . . . . . . . . . . . . . . . . . . . . . . . . . ",
". . . . . . . . . . . . . . . . . . . . . . . . . . . . . . . . . . . . . . . . . . . . . . . . . . . . . . . . . . . . . . . . . . ",
". . . . . . . . . . . . . . . . . . . . . . . . . . . . . . . . . . . . . . . . . . . . . . . . . . . . . . . . . . . . . . . . . . ",
". . . . . . . . . . . . . . . . . . . . . . . . . . . . . . . . . . . . . . . . . . . . . . . . . . . . . . . . . . . . . . . . . . ",
". . . . . . . . . . . . . . . . . . . . . . . . . . . . . . . . . . . . . . . . . . . . . . . . . . . . . . . . . . . . . . . . . . "};
