/* XPM */
static char* info_xpm[]={
"48 48 294 2",
"aZ c #f4e9c1",
"as c #e4d07f",
"b2 c #4f4f4e",
"aR c #e6d68c",
"a6 c #f4e7bb",
".U c #faedb7",
"#Y c #f6e593",
"#y c #f3e295",
"bN c #d7d7d3",
"#W c #f4eaca",
"cC c #0b0b09",
"ci c #6d6d6d",
"b1 c #70706b",
"#H c #f7ebb1",
"aW c #f8ebb1",
"aB c #f2e4a1",
"aN c #f3e4a1",
"aI c #f9ebb1",
"ae c #d9c677",
"b5 c #aeaea9",
"av c #faf2d2",
".0 c #eed681",
"bG c #131311",
".g c #f8eaae",
"az c #f1e6ad",
"a0 c #f3e6ad",
"a1 c #eedb8b",
"cH c #010101",
"#T c #fbf7ed",
"#O c #f6e496",
"aJ c #faf3db",
"bL c #0d0d0a",
"bH c #8d8d87",
"#E c #f9f6ea",
".9 c #f7e691",
".f c #f7e7a5",
"ac c #f5e393",
".W c #f8e691",
"bj c #baa864",
"ap c #f1e3a4",
"aD c #f0df92",
"#m c #f3e290",
"#a c #dbc878",
".S c #faf5e7",
"#b c #efd882",
"#9 c #faecaf",
"cg c #464644",
"bc c #383526",
".s c #faf3d0",
"be c #5a594c",
"a3 c #d1c076",
"#v c #f5e9c2",
"#A c #c6b36a",
"ct c #9e9e9a",
".k c #f5e49c",
"bK c #5c5c5b",
".o c #efda8e",
".O c #f8efcf",
"cv c #10100e",
"#U c #faeebb",
"a4 c #d1bf73",
"#J c #f6e697",
"#t c #f8f2de",
"aS c #dac87e",
"ck c #333331",
"aO c #f3e296",
"#5 c #faf4d9",
"#6 c #f8f1db",
"#h c #f9f1db",
".q c #f9f0c7",
"bT c #71716f",
"b4 c #bcbcb9",
"cD c #31312b",
"#D c #f9f6e5",
".8 c #f7e7a0",
"#0 c #f2e090",
".K c #efdd92",
"ai c #faf2d3",
"by c #f6f6f6",
"#P c #f7eaaf",
".p c #f8eaaf",
".H c #f9e99b",
"bS c #474742",
".M c #f3df8d",
"cr c #12120f",
"#1 c #e4d17e",
"bo c #dadad8",
"aE c #e5d48d",
".2 c #f8e8a9",
".i c #f8e795",
"bM c #525248",
"at c #cdbc70",
"cI c #1a1a17",
"bi c #dbc97c",
".Z c #d1bc70",
".n c #efd986",
"c. c #6f6f6f",
"#X c #f3e6a3",
"#. c #f7e58f",
"#S c #faf5e8",
"bD c #c7c7c5",
"bx c #d4d4d1",
"bW c #080807",
"b9 c #929292",
"#w c #f4e5a0",
".u c #f9e89e",
"ak c #f9f4e5",
"cp c #56564f",
"aU c #c4b36b",
"aA c #f4e49d",
"#u c #f7efd0",
"c# c #696968",
"#k c #f6ebbe",
".E c #fbf9ef",
"bm c #b4b4b2",
"#3 c #f2dc8a",
"bU c #757571",
"#o c #c1ae67",
".F c #faf8ec",
".h c #f9e9a7",
"aK c #f8f1dc",
"bZ c #fbfbfb",
"bh c #dbc77c",
"bB c #4d4c47",
"bs c #a99959",
"b# c #d9c679",
".C c #faf6e6",
".x c #efdd93",
"b6 c #4b4b44",
".J c #f6e38f",
".A c #f4e7b2",
"bX c #96968e",
"a. c #f5e7b2",
"bF c #3d3d35",
".B c #f9f5e3",
"aY c #f3eac1",
"bt c #050504",
"b8 c #92928d",
"#K c #f6e59b",
"co c #434342",
"ce c #b9b9b1",
"#F c #f9f4e0",
"br c #b3a05e",
".j c #f8e796",
"#q c #f6e498",
"cf c #525249",
"bQ c #cfcfc8",
".d c #ecd78c",
"bV c #000000",
"#8 c #f9efcb",
"cd c #f0f0f0",
"bq c #1d1d16",
"an c #f6e7a7",
"aq c #f4e395",
"a9 c #f2e097",
"cb c #75756c",
"cF c #30302f",
"bz c #cacac4",
"ay c #f7eed9",
"a5 c #c9b76d",
"aT c #dac777",
"ax c #f9f4e6",
"aM c #f4e9c4",
"cA c #141411",
"cw c #21211d",
"cy c #383837",
"cn c #cfcfce",
"ao c #f3e7ad",
"#2 c #c4b269",
"bl c #9d9d99",
"ad c #efdc8b",
".r c #faf5de",
"#d c #f8edba",
".D c #fbf8ed",
"cl c #b3b3b0",
".a c #f4e298",
"aP c #f1e195",
".l c #ebdb99",
"bk c #35352e",
"aw c #faf7ea",
".I c #f8e791",
"b3 c #42423a",
"aj c #fbf7ea",
"#Z c #f6e493",
".w c #f7e493",
"aH c #b9a964",
"aQ c #e9da96",
"#I c #f5e7a2",
"#N c #ccb96e",
"#R c #f9f6e7",
".4 c #faf6e7",
".R c #fbf6e7",
"bA c #585851",
".7 c #f7eec3",
"bY c #dfdfde",
"aG c #d9c577",
".5 c #f9f5e4",
".N c #f7e69f",
"#e c #faf5e4",
"cu c #6b6b6a",
"bb c #121211",
"a2 c #dccb84",
".3 c #faf4e1",
"bg c #e7d180",
"aC c #f1e19b",
"#c c #f6e499",
".m c #e2cd7f",
"bp c #696964",
"bO c #fdfdfd",
"aF c #dbc97e",
".t c #faeaa6",
"cj c #44443b",
"#j c #f8f2db",
"aX c #f9f2db",
"ag c #f1dc86",
"af c #ab9b5b",
"ch c #7f7f7b",
"bn c #efefee",
"ba c #cab871",
"a8 c #f3e3a7",
"ab c #f6e591",
".1 c #f5e293",
"bJ c #7b7b7a",
"b. c #e3d186",
"#7 c #f9f4e7",
".e c #f5e190",
"ca c #141412",
"ar c #eada91",
".# c #efdd8f",
"bv c #55554e",
"#z c #e6d27e",
"bd c #5f5e59",
"b7 c #0f0f0e",
"#B c #fbf8ee",
"b0 c #b3b3b1",
"aV c #f3de87",
".z c #f4de87",
"#V c #f8ecb8",
"#4 c #f7e8a6",
"#C c #faf7eb",
"bw c #8d8d85",
"#L c #f2e093",
"#r c #faf6e8",
".X c #f5e391",
".c c #f3e093",
"aL c #f7efd8",
"cq c #161613",
"bC c #23231f",
"#l c #f6e6a0",
"#s c #f9f5e5",
"Qt c None",
".P c #faf5e5",
"cs c #2c2c2a",
"ah c #f6e59d",
".V c #f9e89b",
"a7 c #f1dfa1",
".Q c #f9f4e2",
"bI c #c3c3c1",
"#n c #e4d07e",
"cz c #737373",
"a# c #ede7ba",
"#x c #f7e695",
".Y c #e8d68b",
"cJ c #0c0c0b",
"cm c #efefef",
"cE c #33332f",
"#G c #f4eac9",
".y c #e5d187",
".b c #f4e191",
"bP c #f7f7f7",
"bf c #a9a077",
"## c #f1e08e",
"al c #faf3e5",
"cx c #20201c",
"aa c #f2e29a",
"bE c #a9a9a4",
".L c #dfcb80",
"am c #f8ecb9",
"au c #f7e8a7",
".v c #f8e793",
"#Q c #fbf7ec",
".G c #faf3da",
".T c #faf6e9",
"cG c #4e4e45",
"cB c #090908",
"bu c #161614",
".6 c #f9f5e6",
"#g c #faf5e6",
"#f c #fbf5e6",
"#p c #efd881",
"bR c #2f2f29",
"#M c #e7d480",
"#i c #f9f4e3",
"cc c #c3c3c2",
"QtQtQtQtQtQtQtQtQtQtQtQtQtQtQtQtQtQtQtQtQtQtQtQtQtQtQtQtQtQtQtQtQtQtQtQtQtQtQtQtQtQtQtQtQtQtQtQt",
"QtQtQtQtQtQtQtQtQtQtQtQtQtQtQtQtQtQtQtQtQtQtQtQtQtQtQtQtQtQtQtQtQtQtQtQtQtQtQtQtQtQtQtQtQtQtQtQt",
"QtQtQtQtQtQtQtQtQtQtQtQtQtQtQtQtQtQtQtQtQtQtQtQtQtQtQtQtQtQtQtQtQtQtQtQtQtQtQtQtQtQtQtQtQtQtQtQt",
"QtQtQtQtQtQtQtQtQtQtQtQtQtQtQtQtQtQtQtQtQtQtQtQtQtQtQtQtQtQtQtQtQtQtQtQtQtQtQtQtQtQtQtQtQtQtQtQt",
"QtQtQtQtQtQtQtQtQtQtQtQtQtQtQtQtQtQtQtQtQtQtQtQtQtQtQtQtQtQtQtQtQtQtQtQtQtQtQtQtQtQtQtQtQtQtQtQt",
"QtQtQtQtQtQtQtQtQtQtQtQtQtQtQtQtQtQtQtQtQtQtQtQtQtQtQtQtQtQtQtQtQtQtQtQtQtQtQtQtQtQtQtQtQtQtQtQt",
"QtQtQtQtQtQtQtQtQtQtQtQtQtQtQtQtQtQtQtQtQtQtQtQtQtQtQtQtQtQtQtQtQtQtQtQtQtQtQtQtQtQtQtQtQtQtQtQt",
"QtQtQtQtQtQtQtQtQtQtQtQtQtQtQtQtQtQtQtQtQtQtQtQtQtQtQtQtQtQtQtQtQtQtQtQtQtQtQtQtQtQtQtQtQtQtQtQt",
"QtQtQtQtQtQtQtQtQtQtQtQtQtQtQtQtQtQtQtQtQtQtQtQtQtQtQtQtQtQtQtQtQtQtQtQtQtQtQtQtQtQtQtQtQtQtQtQt",
"QtQtQtQtQtQtQtQtQtQtQtQtQtQtQtQtQtQtQtQtQtQtQtQtQtQtQtQtQtQtQtQtQtQtQtQtQtQtQtQtQtQtQtQtQtQtQtQt",
"QtQtQtQtQtQtQtQtQtQtQtQtQtQtQtQtQtQtQtQtQtQtQtQtQtQtQtQtQtQtQtQtQtQtQtQtQtQtQtQtQtQtQtQtQtQtQtQt",
"QtQtQtQtQtQtQtQtQtQtQtQtQtQtQtQtQtQtQtQtQtQtQtQtQtQtQtQtQtQtQtQtQtQtQtQtQtQtQtQtQtQtQtQtQtQtQtQt",
"QtQtQtQtQtQtQtQtQtQtQtQtQtQtQtQtQtQtQtQtQtQtQtQtQtQt.#.a.b.c.dQtQtQtQtQtQtQtQtQtQtQtQtQtQtQtQtQt",
"QtQtQtQtQtQtQtQtQtQtQtQtQtQtQtQtQtQtQtQtQtQtQtQtQt.e.f.g.h.i.j.k.l.mQtQtQtQtQtQtQtQtQtQtQtQtQtQt",
"QtQtQtQtQtQtQtQtQtQtQtQtQtQtQtQtQtQtQtQtQtQtQt.n.o.p.q.r.s.t.u.v.w.x.yQtQtQtQtQtQtQtQtQtQtQtQtQt",
"QtQtQtQtQtQtQtQtQtQtQtQtQtQtQtQtQtQtQtQtQtQtQt.z.A.B.C.D.E.F.G.H.I.J.K.LQtQtQtQtQtQtQtQtQtQtQtQt",
"QtQtQtQtQtQtQtQtQtQtQtQtQtQtQtQtQtQtQtQtQtQt.M.N.O.P.Q.R.S.T.C.U.V.W.X.Y.ZQtQtQtQtQtQtQtQtQtQtQt",
"QtQtQtQtQtQtQtQtQtQtQtQtQtQtQtQtQtQtQtQtQt.0.1.2.3.4.Q.5.Q.6.S.7.8.9#.###aQtQtQtQtQtQtQtQtQtQtQt",
"QtQtQtQtQtQtQtQtQtQtQtQtQtQtQtQtQtQtQtQtQt#b#c#d#e.P#f#g#h#i#j#k#l.W.W#m#n#oQtQtQtQtQtQtQtQtQtQt",
"QtQtQtQtQtQtQtQtQtQtQtQtQtQtQtQtQtQtQtQtQt#p#q#d.5#r#r#s.Q#t#u#v#w#x#x#y#z#AQtQtQtQtQtQtQtQtQtQt",
"QtQtQtQtQtQtQtQtQtQtQtQtQtQtQtQtQtQtQtQtQt#p.1#d.S#B#C#D#E#F#G#H#I#J#K#L#M#NQtQtQtQtQtQtQtQtQtQt",
"QtQtQtQtQtQtQtQtQtQtQtQtQtQtQtQtQtQtQtQtQtQt#O#P.P#Q#R#S#T#U#V#W#X#Y#Z#0#1#2QtQtQtQtQtQtQtQtQtQt",
"QtQtQtQtQtQtQtQtQtQtQtQtQtQtQtQtQtQtQtQtQtQt#3#4#5#B#6#7#8#9a.a#aaabacadaeafQtQtQtQtQtQtQtQtQtQt",
"QtQtQtQtQtQtQtQtQtQtQtQtQtQtQtQtQtQtQtQtQtQtagahaiajakalamanaoapaq.XarasatQtQtQtQtQtQtQtQtQtQtQt",
"QtQtQtQtQtQtQtQtQtQtQtQtQtQtQtQtQtQtQtQtQtQtQtauavawaxayazaAaBaCaDaEaFaGaHQtQtQtQtQtQtQtQtQtQtQt",
"QtQtQtQtQtQtQtQtQtQtQtQtQtQtQtQtQtQtQtQtQtQtQtaIaJaKaLaMaNaOaPaQaRaSaTaUQtQtQtQtQtQtQtQtQtQtQtQt",
"QtQtQtQtQtQtQtQtQtQtQtQtQtQtQtQtQtQtQtQtQtQtaVaWaXaYaZa0aC.#a1a2a3a4a5QtQtQtQtQtQtQtQtQtQtQtQtQt",
"QtQtQtQtQtQtQtQtQtQtQtQtQtQtQtQtQtQtQtQtQtQtQtQta6a7a8a9.#b.b#baQtQtQtQtQtQtQtQtQtQtQtQtQtQtQtQt",
"QtQtQtQtQtQtQtQtQtQtQtQtQtQtQtQtQtQtQtQtQtbbbcbdbebfQtbgbhbibjQtQtQtQtQtQtQtQtQtQtQtQtQtQtQtQtQt",
"QtQtQtQtQtQtQtQtQtQtQtQtQtQtQtQtQtQtQtQtbkblbmbnbobpbqQtQtbrbsQtQtQtQtQtQtQtQtQtQtQtQtQtQtQtQtQt",
"QtQtQtQtQtQtQtQtQtQtQtQtQtQtQtQtQtQtQtQtbtbubvbwbxbybzbAbBQtQtQtQtQtQtQtQtQtQtQtQtQtQtQtQtQtQtQt",
"QtQtQtQtQtQtQtQtQtQtQtQtQtQtQtQtQtQtQtQtbCbDbEbFbGbHbIbJbKbLQtQtQtQtQtQtQtQtQtQtQtQtQtQtQtQtQtQt",
"QtQtQtQtQtQtQtQtQtQtQtQtQtQtQtQtQtQtQtQtbMbNbObPbQbRbSbTbUQtQtQtQtQtQtQtQtQtQtQtQtQtQtQtQtQtQtQt",
"QtQtQtQtQtQtQtQtQtQtQtQtQtQtQtQtQtQtQtbVbWbRbXbYbZb0b1b2b3QtQtQtQtQtQtQtQtQtQtQtQtQtQtQtQtQtQtQt",
"QtQtQtQtQtQtQtQtQtQtQtQtQtQtQtQtQtQtQtbVb4b5b6b7b8b9c.c#caQtQtQtQtQtQtQtQtQtQtQtQtQtQtQtQtQtQtQt",
"QtQtQtQtQtQtQtQtQtQtQtQtQtQtQtQtQtQtbVcbcccdcdcecfcgchciQtQtQtQtQtQtQtQtQtQtQtQtQtQtQtQtQtQtQtQt",
"QtQtQtQtQtQtQtQtQtQtQtQtQtQtQtQtQtQtbVbVcjckclcmcnc#cocpQtQtQtQtQtQtQtQtQtQtQtQtQtQtQtQtQtQtQtQt",
"QtQtQtQtQtQtQtQtQtQtQtQtQtQtQtQtQtQtQtbVcqcrbRcsctc.cubVQtQtQtQtQtQtQtQtQtQtQtQtQtQtQtQtQtQtQtQt",
"QtQtQtQtQtQtQtQtQtQtQtQtQtQtQtQtQtQtQtbVbVcvcwcxcyc#czbVQtQtQtQtQtQtQtQtQtQtQtQtQtQtQtQtQtQtQtQt",
"QtQtQtQtQtQtQtQtQtQtQtQtQtQtQtQtQtQtQtcAcBcqbGcCcDcEcFQtQtQtQtQtQtQtQtQtQtQtQtQtQtQtQtQtQtQtQtQt",
"QtQtQtQtQtQtQtQtQtQtQtQtQtQtQtQtQtQtQtcGcHcAcIcJQtQtQtQtQtQtQtQtQtQtQtQtQtQtQtQtQtQtQtQtQtQtQtQt",
"QtQtQtQtQtQtQtQtQtQtQtQtQtQtQtQtQtQtQtQtQtQtQtQtQtQtQtQtQtQtQtQtQtQtQtQtQtQtQtQtQtQtQtQtQtQtQtQt",
"QtQtQtQtQtQtQtQtQtQtQtQtQtQtQtQtQtQtQtQtQtQtQtQtQtQtQtQtQtQtQtQtQtQtQtQtQtQtQtQtQtQtQtQtQtQtQtQt",
"QtQtQtQtQtQtQtQtQtQtQtQtQtQtQtQtQtQtQtQtQtQtQtQtQtQtQtQtQtQtQtQtQtQtQtQtQtQtQtQtQtQtQtQtQtQtQtQt",
"QtQtQtQtQtQtQtQtQtQtQtQtQtQtQtQtQtQtQtQtQtQtQtQtQtQtQtQtQtQtQtQtQtQtQtQtQtQtQtQtQtQtQtQtQtQtQtQt",
"QtQtQtQtQtQtQtQtQtQtQtQtQtQtQtQtQtQtQtQtQtQtQtQtQtQtQtQtQtQtQtQtQtQtQtQtQtQtQtQtQtQtQtQtQtQtQtQt",
"QtQtQtQtQtQtQtQtQtQtQtQtQtQtQtQtQtQtQtQtQtQtQtQtQtQtQtQtQtQtQtQtQtQtQtQtQtQtQtQtQtQtQtQtQtQtQtQt",
"QtQtQtQtQtQtQtQtQtQtQtQtQtQtQtQtQtQtQtQtQtQtQtQtQtQtQtQtQtQtQtQtQtQtQtQtQtQtQtQtQtQtQtQtQtQtQtQt"};
