/* XPM */
static char * insert_fragment_xpm[] = {
"24 24 5 1",
" 	c None",
".	c #000000",
"+	c #FF0000",
"@	c #FFFF00",
"f	c #cc0000",
"                        ",
"                        ",
"                  ..    ",
"                 .++.   ",
" ffffffffffff   ..+++.  ",
" ffffffffffff  .@@.++.  ",
" fff          .@@@@..   ",
" fff         .@@@@@.    ",
" fff        .@@@@@.     ",
" fff       .@@@@@.      ",
" fff      .@@@@@.       ",
" ffffffff.@@@@@.        ",
" fffffff.@@@@@.         ",
" fff   .@@@@@.          ",
" fff  .@@@@@.           ",
" fff .@@@@@.            ",
" fff ..@@@.             ",
" fff....@.              ",
" fff.....               ",
" ff....                 ",
" ff..                   ",
" f.                     ",
"                        ",
"                        "};
