/* XPM */
static char * knot_xpm[] = {
"24 23 3 1",
" 	c #FFFFFF",
".	c #2E8B57",
"+	c #2E8B57",
"        ..          ++++",
"       .......     +++++",
"     ..........  +++++++",
"+   ............. ++++++",
"+++  ............. ++   ",
"+++   .............     ",
"++++    .    .......    ",
"++++++    ++  .......  .",
"+++++++  ++++  ...... ..",
" +++++++ +++++  .... ...",
"  +++++ ++++++   .. ....",
".   ++ ++++++      .....",
"..   + +++++ +     .....",
"...   +++++ ++++  ......",
"...  ++++++ +++++    .. ",
"...  +++++ +++++++      ",
".. ++++++ ++++++++++    ",
".. ++++++ +++++++++++++ ",
"..  +++     ++++++++++++",
"....      .. +++++++++++",
"............    ++++++++",
"...............    +++++",
" .............        ++"};
