/* XPM */
static char * knot_xpm[] = {
"20 20 3 1",
" 	c #FFFFFF",
".	c #A0522D",
"+	c #2E8B57",
" ..........  +++++++",
"............. ++++++",
" ............. ++   ",
"  .............     ",
"    .    .......    ",
"++    ++  .......  .",
"+++  ++++  ...... ..",
"++++ +++++  .... ...",
"+++ ++++++   .. ....",
"++ ++++++      .....",
" + +++++ +     .....",
"  +++++ ++++  ......",
" ++++++ +++++    .. ",
" +++++ +++++++      ",
"+++++ ++++++++++    ",
"+++++ +++++++++++++ ",
"+++     ++++++++++++",
"      .. +++++++++++",
"........    ++++++++",
"...........    +++++"};
