/* XPM */
static char *molcas_mini_xpm[]={
"16 16 150 2",
"Qt c None",
"al c #9a997d",
"ab c #cdcca2",
".H c #b1b0a4",
".x c #a8a8a0",
".a c #c2c1a8",
".f c #dddcb2",
"ac c #848382",
".r c #a5a49c",
".l c #bab8a4",
".c c #adada1",
".# c #c1c0a7",
"at c #9d9e76",
"ar c #d5d4a1",
".y c #5e5e85",
".G c #70708b",
"am c #7d7e79",
".b c #d8d7ad",
".i c #888890",
".T c #020267",
"#s c #060666",
"#I c #393965",
".I c #5c5b83",
"#d c #767680",
"as c #7d7d6f",
"#c c #89898e",
"#Y c #9e9e8c",
"a# c #696a69",
"#8 c #70706f",
"#9 c #858672",
"aa c #a9a986",
"a. c #afb090",
"ak c #b9b98d",
"#f c #bcbd9e",
"#7 c #b4b38f",
".S c #a4a392",
".o c #505079",
"#Q c #57567a",
"aq c #9b9b78",
"#e c #949591",
".2 c #121263",
".e c #97968e",
"ad c #81817c",
".F c #656586",
"#E c #61607b",
"#D c #8a8a7b",
"#b c #969592",
".d c #7a7a8d",
".z c #636385",
"ap c #4c4d5e",
".1 c #2b2b5a",
"aj c #777768",
"an c #6e6e7c",
"ae c #1e1d65",
".h c #6b6a80",
".g c #959496",
".3 c #929284",
"#A c #a3a18a",
"#g c #010065",
".U c #010066",
".7 c #010067",
"ag c #020166",
"#4 c #030365",
"#x c #040364",
".6 c #040367",
".8 c #050467",
"#t c #070663",
"ah c #080762",
"#3 c #090966",
"#y c #0a0a5f",
"#0 c #0a0a65",
"af c #0b0a66",
".V c #0c0c66",
".K c #0d0c67",
"#1 c #0e0d69",
".4 c #0e0e65",
"#w c #141369",
"#h c #14145f",
".Q c #141462",
"#2 c #171668",
".Y c #1d1c63",
".M c #1e1d5e",
"#5 c #1e1e66",
".O c #201e63",
"#K c #201f62",
"ai c #27285e",
"#N c #29285d",
"#L c #2b2b6f",
"#O c #2c2c59",
".D c #313068",
".u c #31306a",
".X c #323265",
".J c #333276",
"#J c #34345c",
"#u c #39385c",
"#P c #3a3a68",
"ao c #3a3b68",
".n c #3d3d65",
".L c #434365",
".C c #444369",
".B c #44446f",
".Z c #494970",
"#M c #4b4b71",
"#i c #4c4c73",
"#B c #4d4b75",
".R c #4d4c76",
"#R c #4f4e6e",
".p c #4f4e70",
"#F c #4f4f6d",
".t c #4f506a",
".A c #515072",
".j c #515178",
".N c #52526a",
".E c #52526f",
".v c #53526d",
"#6 c #545364",
".5 c #555571",
"#U c #56566b",
"#j c #56566f",
"#l c #57567c",
".P c #5a5972",
"#C c #5a5a6e",
"#V c #5b5b70",
".w c #5c5c6e",
"#T c #5e5f73",
"#W c #616073",
"#Z c #616177",
"#q c #61617a",
"#p c #626275",
"## c #626282",
"#n c #63636f",
"#m c #646473",
".q c #6b6b71",
"#. c #6b6b72",
"#v c #6f6f83",
".W c #70706e",
"#z c #727272",
".k c #767579",
"#G c #76757f",
".s c #7a7a85",
"#k c #817f7a",
".9 c #828388",
".m c #868589",
"#o c #868788",
"#a c #8a8a81",
".0 c #8b8b82",
"#S c #909081",
"#X c #9d9e85",
"#H c #a7a790",
"#r c #bab996",
"QtQtQtQtQtQt.#.aQtQtQtQtQtQtQtQt",
"QtQtQt.b.b.c.d.eQtQtQtQtQtQtQtQt",
"QtQt.f.g.h.i.j.kQtQtQtQtQtQtQtQt",
"QtQt.l.m.n.o.p.qQtQtQtQtQtQtQtQt",
"QtQt.r.s.t.u.v.wQtQtQtQtQtQtQtQt",
".x.y.z.A.B.C.D.E.F.G.HQtQtQtQtQt",
".I.J.K.L.M.N.O.P.Q.R.SQtQtQtQtQt",
".T.U.V.W.X.Y.Z.0.1.2.3QtQtQtQtQt",
".T.U.4.5.6.7.8.9#.###a#b#c#d#e#f",
".T#g#h#i.U.U.U#j#k#l#m#n#o#p#q#r",
"#s#t#u#v#w#x#y#z#A#B#C#D#E#F#G#H",
"#I#J#K#L#M#N#O#P#Q#R#S#T#U#V#W#X",
"#Y#Z#0.U#1#2#3#4#5#6#7#8#9a.a#aa",
"abacadaeafagahaiajakalQtQtQtQtQt",
"QtQtQtamanaoapaqQtQtQtQtQtQtQtQt",
"QtQtQtQtarasatQtQtQtQtQtQtQtQtQt"};
