/* XPM */
static char * molcas_xpm[] = {
"22 22 189 2",
"Qt c None",
"aQ c #000165",
"#J c #010065",
".Z c #010066",
"#k c #010067",
"## c #010165",
".O c #010166",
"#l c #020163",
"#d c #020164",
".Y c #020166",
"aA c #020266",
"aR c #020362",
".9 c #030264",
"aP c #030364",
"aw c #040366",
".c c #050463",
"#A c #050464",
"#i c #050564",
".U c #060462",
"#4 c #060464",
".A c #060560",
"#s c #060564",
".f c #060565",
"#v c #07075f",
"#n c #0a0968",
"aB c #0b0a65",
"a1 c #0b0c58",
"#o c #0d0c67",
".J c #0d0d5f",
"#0 c #0e0e57",
"av c #0e0e67",
".7 c #0f0e59",
".Q c #0f0e68",
".1 c #100f58",
"#K c #111158",
"a0 c #121260",
"#c c #131366",
"ad c #131368",
".5 c #14125d",
".T c #15156a",
"aW c #151652",
".i c #161658",
"ag c #171655",
".R c #171767",
".l c #1a1b57",
".N c #1f1e6f",
"#e c #1f1f6b",
".F c #20206a",
".y c #20215f",
"#C c #21215e",
"aq c #222159",
".W c #232371",
"aS c #24234d",
"#H c #26255d",
"#Z c #26256c",
"aD c #26266d",
"aV c #272663",
"ah c #27274c",
"aa c #28285a",
"az c #29286a",
"al c #2a295d",
"ap c #2e2d62",
"a. c #2e2d64",
".s c #2e2e5f",
"ac c #2f2e64",
"#h c #30305b",
".2 c #38394f",
"#8 c #383964",
"ax c #393874",
".H c #3c3a63",
"#q c #3e3d5e",
".u c #3f3e6a",
".o c #403f5e",
".C c #404075",
"aL c #414156",
"af c #414264",
"aO c #424166",
"ab c #43444c",
"#X c #444353",
"ay c #44436c",
"aC c #48477b",
"a2 c #494a4f",
"#T c #4c4c66",
"ai c #4e4e57",
".8 c #4f4e5c",
".r c #4f4f65",
".4 c #504f61",
"ar c #505073",
".n c #53537f",
"ao c #535472",
"au c #545475",
".m c #555370",
".3 c #55555c",
".t c #56567f",
"#y c #575664",
".I c #575672",
"an c #575878",
"aj c #595a72",
"#7 c #5a597c",
".P c #5c5b67",
".D c #5c5c69",
"#U c #5d5e7d",
".B c #5f5d64",
"aE c #5f5e73",
"#D c #5f5f7a",
"#5 c #64656f",
".w c #666671",
".G c #666675",
"aX c #676758",
".0 c #686869",
"a5 c #686966",
"#w c #696870",
"#P c #696a71",
".S c #6a6b7c",
".K c #6b6a74",
"as c #6b6a83",
"#G c #6b6c84",
".E c #6d6c78",
"aG c #6e6e76",
"#M c #70716c",
"#b c #727275",
"#F c #72727c",
"aH c #727462",
".v c #757476",
"#S c #757684",
".V c #767679",
".6 c #797979",
"#Q c #797a6d",
".p c #7c7c78",
"aZ c #7c7d78",
"#N c #7d7b77",
"#x c #7d7e7c",
".h c #7e7e91",
".z c #7f7e7a",
"#L c #848482",
".L c #858591",
"#a c #878872",
"aK c #898a79",
"ak c #8a8881",
"am c #8b8b79",
"#m c #8c8c79",
"aT c #8d8b6b",
"#V c #8e8e87",
"#f c #8e8f86",
"aI c #90907a",
".j c #949382",
"#6 c #95947f",
"ae c #98978b",
"#B c #999983",
"#3 c #9c9a8a",
"a6 c #9c9d75",
".g c #9e9d8d",
"#E c #a0a099",
"aU c #a1a184",
".x c #a2a199",
"#R c #a2a384",
"#g c #a3a38a",
".M c #a5a59c",
".q c #a8a79d",
"#1 c #a8a880",
"at c #a8a986",
"#Y c #acac97",
".b c #acaca0",
".X c #adac9e",
"#j c #afb087",
"#2 c #b0af8f",
"#O c #b0af95",
"a3 c #baba87",
"#9 c #bbba98",
"aJ c #bdbd99",
".# c #c1c0a6",
".d c #c1c198",
".k c #c3c1a7",
"#p c #c3c49f",
"#z c #c4c4a0",
"aN c #c9c899",
"#. c #c9c89b",
"#t c #cecdac",
"a# c #cecea1",
"aM c #d0d098",
"#u c #d1d1ac",
"aY c #d3d39a",
"a4 c #d5d4a0",
"#r c #d7d8a9",
"#W c #d8d79f",
".a c #d8d7ad",
".e c #e1e0b2",
"#I c #e1e2a8",
"aF c #e3e3a9",
"QtQtQtQtQtQtQtQtQtQtQtQtQtQtQtQtQtQtQtQtQtQt",
"QtQtQtQtQtQtQtQtQt.#QtQtQtQtQtQtQtQtQtQtQtQt",
"QtQtQtQtQt.aQtQt.b.c.dQtQtQtQtQtQtQtQtQtQtQt",
"QtQtQtQt.e.f.gQt.h.i.jQtQtQtQtQtQtQtQtQtQtQt",
"QtQtQtQt.k.l.mQt.n.o.pQtQtQtQtQtQtQtQtQtQtQt",
"QtQtQtQt.q.r.s.t.u.v.wQtQtQtQtQtQtQtQtQtQtQt",
"QtQtQtQt.x.y.z.A.B.C.DQtQtQtQtQtQtQtQtQtQtQt",
"QtQtQt.h.E.F.G.H.I.J.K.LQtQtQtQtQtQtQtQtQtQt",
"Qt.M.N.O.P.Q.R.S.T.U.V.O.W.XQtQtQtQtQtQtQtQt",
"Qt.Y.Z.Z.0.1.2.3.4.5.6.7.8.9#.QtQtQtQtQtQtQt",
"Qt.O.Z###a#b#c#d#e#f#g#hQt#i#jQtQtQtQtQtQtQt",
"Qt.O#k#l#m#n.Z#k#k#o#p#q#r#s#j#tQtQtQtQt#uQt",
"Qt.O.Z#v#w#k.Z.Z.Z.O#x#y#z#A#B#C#D#E#F#G#H#I",
"Qt.O#J#K#L.O.Z.Z.Z#k#M#N#O#A#P#Q#R#S#T#U#V#W",
"Qt.O#d#X#Y#Z.Z.Z.Z#0#1#2#3#4#5#6Qt#7#8#9a.a#",
"QtaaabacadaeafagahaiajQtakalamanaoapaqarasat",
"Qtauav.Z.ZawaxayazaAaBaCaDaEaFaGaHaIaJaKaLaM",
"QtaNaOaP.Z.Z.Z.Z.Z.ZaQaRaSaTQtQtQtQtQtQtQtQt",
"QtQtQtaUaV.Z.Z#k#k##aWaXaYQtQtQtQtQtQtQtQtQt",
"QtQtQtQtQtaZa0.Oa1a2a3QtQtQtQtQtQtQtQtQtQtQt",
"QtQtQtQtQtQta4a5a6QtQtQtQtQtQtQtQtQtQtQtQtQt",
"QtQtQtQtQtQtQtQtQtQtQtQtQtQtQtQtQtQtQtQtQtQt"};
