/* XPM */
static char* molden_xpm[]={
"22 22 2 1",
". c #16535e",
"# c #ffffff",
"......................",
"......................",
"######################",
"#....................#",
"#....................#",
"#....................#",
"#.#.#.###.#.##.##.#.##",
"#.###.#.#.#.#.##..#.##",
"#.###.#.#.#.#.##..#.##",
"#.#.#.#.#.#.#.##..#.##",
"#.#.#.#.#.#.#.###.####",
"#.#.#.#.#.#.#.##..####",
"#.#.#.#.#.#.#.##..####",
"#.#.#.#.#.#.#.##..####",
"#.#.#.###..###.##.#.##",
"#....................#",
"#....................#",
"#....................#",
"#....................#",
"######################",
"......................",
"......................"};
