/* XPM */
static char* molpro_xpm[]={
"22 22 5 1",
"g c #1515ff",
"i c #1313ff",
". c None",
"c c #aa0000",
"h c #1010ff",
"..........cc..........",
"........c....c........",
"........c....cc.......",
".......c......c.......",
"......gh......gh......",
".....iiii....iiiii....",
"....ii..ii..ii...ii...",
"...ii.c..ii.i..c..i...",
"..ii..c..ii.i..c..ii..",
"..ii..c...iii..c..ii..",
"..ii..c...iii..c..ii..",
".ii..cc...iii..cc..ii.",
".ii..c.....i....c..ii.",
".ii..c.....i....c..ii.",
".ii..c..........c..ii.",
".ii..c..........c..ii.",
".ii..c..........c..ii.",
".ii..c..........c..ii.",
".ii..c..........c..ii.",
".ii..c..........c..ii.",
".ii..c..........c..ii.",
".ii..c..........c..ii."};
