/* XPM */
static char *molpro_mini_xpm[]={
"16 16 9 1",
". c None",
"e c #1111ff",
"d c #1212ff",
"f c #1313ff",
"c c #1414ff",
"a c #98021e",
"b c #9c0219",
"g c #a2010e",
"# c #aa0000",
".......##.......",
"......#..##.....",
".....a....b.....",
"....cd....ce....",
"...ff.f..f..ff..",
"..ffg.ff.f.#.f..",
".ff.#..ff..#.ff.",
".ff.#..ff..#.ff.",
".f..#..ff..#..f.",
".f..#...f..#..f.",
".f..#......#..f.",
".f..#......#..f.",
".f..#......#..f.",
".f..#......#..f.",
".f..#......#..f.",
".f............f."};
