/* XPM */
static char * mopac_xpm[] = {
"24 24 3 1",
"a c #005555",
"b c #303030",
". c #ff5500",
"........................",
"....bbb.....bbb.........",
"....bb.b...b.bb.........",
"....bb..b.b..bb.........",
"....bb...b...bb.........",
"....bb.......bb.........",
"....bb.......bb.........",
"........................",
"...........bbbbbb.......",
".........bb......bb.....",
"........bb........bb....",
".......bb..........bb...",
"........bb........bb....",
".........bb......bb.....",
"...........bbbbbbb......",
"........................",
"..............bbbbbbbb..",
"..............bb.....bb.",
"..............bb......bb",
"..............bb.....bb.",
"..............bbbbbbbb..",
"..............bb........",
"..............bb........",
"..............bb........"};
