/* XPM */
static char* move_atom_xpm[]={
"24 24 4 1",
"# c #c3c3c3",
"b c #0000c0",
". c None",
"a c #ff0000",
"........................",
".#...#####..............",
"....#aaaaa#.............",
"...#abbbbba#............",
"..#abbbbbbba##..........",
".#abbbbbbbbbaa#.........",
".abbbbbbbbbbbaa#........",
".abbbbbbbbbbba.a#.......",
".abbbbbbbbbbba..a#......",
".abbbbbbbbbbbaaa.a#.....",
".abbbbbbbbbbba##aa#.....",
"..abbbbbbbbba...#a#.....",
"...abbbbbbba.....aa#....",
"....abbbbba.....#a#a#...",
".....aaaaa.....#a#.a.#..",
".......a##....#a#..a.#..",
".......aa#####a#...a.#..",
".......a.aaaaa#....a.#..",
".......#a#........a#.#..",
"........#a#......a#.#...",
".........#a#....a#.#....",
"..........#aaaaa#.#.....",
"...........#######......",
"........................"};
