/* XPM */
static char *mpqc_mini_xpm[]={
"16 16 146 2",
".f c None",
"Qt c None",
"#Y c #301313",
".0 c #311313",
".M c #321414",
"#Z c #361616",
"#X c #362525",
"#1 c #372d2d",
"#H c #3a2020",
".O c #3b1a1a",
".Z c #3c2c2c",
".N c #401a1a",
".L c #402e2e",
"#S c #404040",
"#0 c #412323",
"#D c #414141",
"#e c #431d1d",
"#W c #443e3e",
"#q c #494949",
".z c #4a1f1f",
"#8 c #4a4a4a",
"ad c #4b4b4b",
"#u c #4c1f1f",
"#I c #4e2020",
"#2 c #4f4f4f",
".1 c #512121",
"ae c #515151",
"af c #565656",
".P c #593030",
"#b c #5b5b5b",
"#E c #5c5c5c",
"#T c #5d5d5d",
"#3 c #5f5f5f",
"#t c #614d4d",
".Y c #616161",
"#r c #626262",
"#J c #632828",
".2 c #632c2c",
"#4 c #646464",
".p c #674a4a",
"ak c #676767",
".q c #682929",
"#f c #682a2a",
".A c #6a2b2b",
"#M c #6b3737",
".b c #6c3636",
"#d c #6d6565",
"#U c #6e6e6e",
"#v c #6f2c2c",
"#7 c #6f6f6f",
"#K c #702d2d",
"#L c #712d2d",
"#V c #717171",
".5 c #744040",
".7 c #752f2f",
".c c #753838",
".i c #783d3d",
".y c #786a6a",
"#c c #787878",
".h c #795b5b",
"#P c #797979",
"#N c #7a7676",
"#R c #7a7a7a",
".S c #7b4141",
".B c #7d3232",
"#a c #7d7d7d",
"#G c #807b7b",
".6 c #823c3c",
"#w c #833434",
"#9 c #838282",
"ac c #848484",
".j c #863737",
"#g c #883939",
".Q c #884f4f",
".9 c #888888",
".8 c #896565",
".X c #8b8b8b",
".T c #8c3838",
"#y c #8c3b3b",
"#o c #8c8c8c",
"#O c #8d8d8d",
".r c #8e3838",
".4 c #8f4d4d",
"aj c #909090",
"#z c #917474",
".k c #923c3c",
".U c #924e4e",
"#x c #933b3b",
".a c #937b7b",
"#C c #939393",
"#l c #954b4b",
".G c #963b3b",
".C c #963d3d",
"#Q c #9a9a9a",
".l c #9b4949",
".d c #9e7575",
"#. c #9e9e9e",
"#F c #9f9f9f",
".m c #a16262",
".w c #a25757",
".H c #a26868",
"#m c #a29797",
".s c #a34141",
"al c #a6a6a6",
"#h c #a84b4b",
".R c #a96a6a",
"#p c #a9a9a9",
"#k c #aa4545",
"#B c #aaaaaa",
".D c #ab4c4c",
".V c #aba7a7",
"ag c #ababab",
"#n c #acacac",
"#s c #adacac",
"#j c #ae4b4b",
".v c #af4747",
"#i c #af4c4c",
".g c #b0a9a9",
".F c #b14c4c",
"#A c #b2b2b2",
".t c #b34848",
"#6 c #b3b3b3",
"#5 c #b4b4b4",
".u c #b74949",
".3 c #b75b5b",
".n c #b89a9a",
".E c #b95858",
"a# c #bab7b7",
".W c #bbbbbb",
"aa c #bcb8b8",
".o c #c0bbbb",
"ah c #c0c0c0",
"ab c #c1bebe",
".x c #c2aaaa",
"a. c #c4c2c2",
"am c #c5c5c5",
"## c #c8c8c8",
".K c #cdcdcd",
".e c #d0c6c6",
"ao c #d1d1d1",
".# c #d3cfcf",
"ap c #d5d5d5",
"an c #d7d7d7",
".I c #dbd6d6",
"ai c #dbdbdb",
".J c #dfdfdf",
"QtQtQtQtQtQtQtQtQtQtQtQtQtQtQtQt",
"QtQtQtQtQtQtQtQtQtQtQtQtQtQtQtQt",
"QtQtQtQtQt.#.a.b.c.d.eQtQtQtQtQt",
"QtQt.f.f.g.h.i.j.k.l.m.n.fQtQtQt",
"QtQtQt.o.p.q.r.s.t.u.v.w.xQtQtQt",
"QtQtQt.y.z.A.B.C.D.E.F.G.H.IQtQt",
"Qt.J.K.L.M.N.O.P.Q.R.S.T.U.V.JQt",
".W.X.Y.Z.0.1.2.3.4.5.6.7.8.9#.##",
"#a#b#c#d#e#f#g#h#i#j#k#l#m#n#o#p",
"#q#r.9#s#t#u#v#w.T#x#y#z#A#B#o#C",
"#D#E#a#F#G#H#I#J#K#L#M#N.X#O#P#Q",
"#R#S#T#U#V#W#X#Y#Z#0#1#2.Y#3#4#5",
"#6#7#8#2#E#9a.a#aaabacadaeafagah",
"QtaiajakalamQtQtQtQt.JanaoapQtQt",
"QtQtQtQtQtQtQtQtQtQtQtQtQtQtQtQt",
"QtQtQtQtQtQtQtQtQtQtQtQtQtQtQtQt"};
