/* XPM */
static char *mpqc_xpm[]={
"25 25 266 2",
"Qt c None",
"bX c #190909",
"bY c #1b0b0b",
"#H c #200c0c",
"cb c #202020",
"bC c #210d0d",
"b1 c #212121",
"#l c #240e0e",
"#k c #260f0f",
"ca c #262626",
"bj c #291111",
".5 c #2a1010",
"#G c #2b1515",
"b8 c #2b2b2b",
"#I c #2e1212",
"#p c #2e1717",
"bx c #2e2e2e",
"bZ c #301f1f",
"cc c #303030",
"bD c #331414",
".9 c #331717",
"#m c #351515",
"aZ c #351f1f",
"b2 c #353535",
"al c #371919",
"aU c #373737",
"#n c #381616",
"bc c #383838",
"bW c #3a3030",
"bB c #3a3333",
"ag c #3a3a3a",
"aG c #3b1717",
"a0 c #3b1818",
"b0 c #3d3636",
"b9 c #3d3d3d",
".T c #3e1919",
"bJ c #3e3333",
".4 c #402f2f",
"bE c #411a1a",
".u c #422020",
"b7 c #424242",
".7 c #431b1b",
"#. c #442222",
"bk c #451b1b",
"bd c #454545",
"#J c #461c1c",
"bI c #471c1c",
"bF c #481d1d",
"bU c #484848",
".6 c #491d1d",
"#K c #491f1f",
"#1 c #493b3b",
"aB c #494949",
".H c #4a3434",
"am c #4b1e1e",
"#o c #4b1f1f",
".8 c #4c1f1f",
"aV c #4d4d4d",
"aH c #4e1f1f",
"b4 c #4e4e4e",
"bG c #4f1f1f",
"#P c #4f3939",
"bV c #4f4b4b",
"#E c #4f4f4f",
"bH c #502020",
"b3 c #505050",
"#2 c #522121",
"aA c #535353",
"#L c #542929",
"#Y c #545454",
".I c #552121",
"bK c #555555",
"#e c #562323",
"bS c #575757",
"#F c #585858",
".j c #593d3d",
"#q c #5a3232",
"#Q c #5a3636",
"cf c #5b5b5b",
".v c #5c2424",
"a1 c #5d2525",
"bP c #5e5e5e",
".k c #5f2626",
"bl c #602626",
"#S c #612727",
"#r c #613939",
"bO c #616161",
"by c #626262",
"#O c #633e3e",
"bT c #636363",
"an c #642828",
"ah c #656565",
"#f c #672929",
"bq c #673131",
"aW c #676767",
"bL c #686868",
"bm c #692a2a",
".J c #6a2a2a",
".c c #6a3636",
"#Z c #6a6a6a",
"#3 c #6b2b2b",
"aC c #6b6b6b",
".d c #6c3030",
"bi c #6c6767",
"aI c #6d2b2b",
"#v c #6d3c3c",
"bp c #6e2c2c",
"#X c #6e6e6e",
"bo c #702d2d",
"#R c #703636",
"aF c #706262",
"bN c #717171",
".U c #722e2e",
"bM c #727272",
"bn c #742e2e",
"bw c #747474",
".l c #752f2f",
"br c #757373",
"ai c #767676",
"#a c #774747",
"be c #777777",
"a2 c #783030",
".e c #783939",
"#0 c #787878",
"ba c #797979",
"aJ c #7c3131",
"a6 c #7c6161",
"az c #7c7c7c",
"ao c #7d3333",
"#d c #7d3c3c",
"bz c #7d7d7d",
"bs c #7e7e7e",
".w c #803333",
"#z c #807878",
"#V c #808080",
"a5 c #813333",
".b c #816161",
"#U c #828282",
"#u c #835757",
"bA c #848484",
"aj c #858585",
".m c #863535",
"## c #863e3e",
"ak c #868484",
"bt c #868686",
"a3 c #873636",
"#4 c #873838",
"bf c #878787",
"a4 c #883636",
"aO c #884141",
"ad c #888888",
"aK c #8a3737",
"bv c #8a8a8a",
"aL c #8b3838",
".r c #8b4545",
"b# c #8b8b8b",
".x c #8d3838",
"#g c #8d3c3c",
"ap c #8e3b3b",
"#T c #8e5959",
"#W c #8e8e8e",
".n c #8f3939",
".Q c #8f3b3b",
"#b c #8f5959",
".f c #8f5c5c",
"aD c #8f8f8f",
"#y c #903c3c",
"#D c #909090",
"bu c #919191",
".q c #923a3a",
"ac c #929292",
".E c #933e3e",
"#c c #935050",
".S c #938a8a",
"aa c #948c8c",
"aT c #949494",
"#5 c #954040",
"av c #956565",
"b. c #959595",
"aM c #963b3b",
"ab c #969696",
"ae c #979797",
".o c #983c3c",
".p c #993d3d",
"aN c #9b3e3e",
"bb c #9b9b9b",
".y c #9c3e3e",
"a7 c #9d9d9d",
"aq c #a14747",
".3 c #a16d6d",
"bh c #a1a1a1",
"#x c #a24141",
"#s c #a26262",
"aw c #a2a2a2",
".2 c #a34141",
"aP c #a39f9f",
"bg c #a3a3a3",
".z c #a44141",
"aS c #a4a4a4",
".V c #a54242",
"ar c #a54646",
"a9 c #a6a6a6",
".K c #a84343",
"#N c #a85858",
"a8 c #a8a8a8",
".D c #a94343",
"ce c #a9a9a9",
"ay c #aaaaaa",
"as c #ab4646",
"af c #ababab",
"a. c #ac4949",
".L c #ad4545",
"#9 c #ad4c4c",
".a c #aea1a1",
"au c #af4a4a",
".C c #b04646",
".1 c #b14646",
".B c #b14747",
".A c #b24747",
"at c #b34d4d",
".g c #b49a9a",
"#A c #b5b5b5",
"#w c #b64949",
".W c #b64a4a",
".P c #b84a4a",
"#6 c #b85656",
"#j c #b8b8b8",
"a# c #bb4e4e",
"aY c #bcbbbb",
"aE c #bcbcbc",
".O c #bd4c4c",
".X c #bd5353",
".M c #be4d4d",
"#8 c #be5959",
"b5 c #bebebe",
".N c #bf4e4e",
"aQ c #bfbfbf",
".s c #c0aeae",
".F c #c2aaaa",
"#7 c #c35d5d",
"aX c #c3c3c3",
".0 c #c45151",
".Y c #c45b5b",
"b6 c #c4c4c4",
".t c #c5c3c3",
".i c #c7c5c5",
"aR c #c8c8c8",
"ax c #cacaca",
"#M c #cd6666",
".R c #d0c6c6",
"cd c #d0d0d0",
".Z c #d15c5c",
"cg c #d1d1d1",
"bR c #d4d4d4",
"ch c #d5d5d5",
"#h c #dbd6d6",
".h c #dbd7d7",
".G c #dddcdc",
"#i c #dedede",
"#t c #e08f8f",
"bQ c #e0e0e0",
".# c #e1e1e1",
"#C c #e2e2e2",
"c. c #e3e3e3",
"c# c #e4e4e4",
"#B c #e5e5e5",
"QtQtQtQtQtQtQtQtQtQtQtQtQtQtQtQtQtQtQtQtQtQtQtQtQt",
"QtQtQtQtQtQtQtQtQtQtQtQtQtQtQtQtQtQtQtQtQtQtQtQtQt",
"QtQtQtQtQtQtQtQtQtQtQtQtQtQtQtQtQtQtQtQtQtQtQtQtQt",
"QtQtQtQtQtQtQtQtQtQtQtQtQtQtQtQtQtQtQtQtQtQtQtQtQt",
"QtQtQtQtQtQtQtQt.#.a.b.c.d.e.f.g.hQtQtQtQtQtQtQtQt",
"QtQtQtQtQtQtQt.i.j.k.l.m.n.o.p.q.r.sQtQtQtQtQtQtQt",
"QtQtQtQtQtQt.t.u.v.w.x.y.z.A.B.C.D.E.FQtQtQtQtQtQt",
"QtQtQtQtQt.G.H.I.J.x.p.K.L.M.N.O.P.K.Q.RQtQtQtQtQt",
"QtQtQtQtQt.S.T.k.U.n.q.V.W.X.Y.Z.0.1.2.3QtQtQtQtQt",
"QtQtQtQtQt.4.5.6.7.8.9#.###a#b#c#d#e#f#g#hQtQtQtQt",
"QtQtQt#i#j#k#l#m#n#o#p#q#r#s#t#u#v#w#x#y#z#A#BQtQt",
"Qt#C#D#E#F#G#H#I#J#K#L#M#N#O#P#Q#R.J#S#T#U#V#W.#Qt",
"Qt#X#Y#Z#0#1#n#2#3#4#5#6#7#8#9a.a#.x.EaaabacadaeQt",
"afagahaiajakalamanaoapaqarasatau.K.yavawaxay#Wazax",
"aAaBaC#VaDaEaFaGaHaIaJaKaLaMaNaN.qaOaPaQaRaSaT#VaS",
"aUaVaW#VabaXaYaZa0a1.Ja2aJa3a4a3a5a6a7a8a9b.b#babb",
"bcbdahbebfbgbhbibjbk#2blbmbnbobpbqbrbsbtbubvbsaC#A",
"bwbx#Eby#XbzbAaibBbCbDbEbFbGbHbIbJbKbLbMbN#XbObPbQ",
"bRbcaU#EbSbObLbTbUbVbWbXbY#HbZb0b1b2aBaAb3b4bdb5Qt",
"Qtb6b7b8b9bdaBb9bz#B#Bc.c.c.c##B#Dcacbb8cc#FcdQtQt",
"QtQt.#cebNcfbfaXQtQtQtQtQtQtQtQtQt#icdcgchQtQtQtQt",
"QtQtQtQtQtQtQtQtQtQtQtQtQtQtQtQtQtQtQtQtQtQtQtQtQt",
"QtQtQtQtQtQtQtQtQtQtQtQtQtQtQtQtQtQtQtQtQtQtQtQtQt",
"QtQtQtQtQtQtQtQtQtQtQtQtQtQtQtQtQtQtQtQtQtQtQtQtQt",
"QtQtQtQtQtQtQtQtQtQtQtQtQtQtQtQtQtQtQtQtQtQtQtQtQt"};
