/* XPM */
static char * nbo_xpm[] = {
"23 22 4 1",
" 	c None",
".	c #45BA79",
"+	c #4550BA",
"@	c #BA456E",
"                       ",
"                       ",
"                       ",
"                       ",
"                       ",
"         ....          ",
"         .   .         ",
"         .   .         ",
" +    +  ....          ",
" ++   +  .   .         ",
" + +  +  .   .         ",
" +    +  ....    @@@@  ",
" +  + +         @@  @@ ",
" +   ++         @    @ ",
" +    +         @    @ ",
"                @    @ ",
"                @@  @@ ",
"                 @@@@  ",
"                       ",
"                       ",
"                       ",
"                       "};
