/* XPM */
static char* no_xpm[]={
"20 20 185 2",
"au c #904339",
"aa c #a57872",
".C c #040404",
"#m c #d5a9a4",
".o c #a45045",
"ad c #924b41",
"#9 c #8a2c1f",
"#c c #952d22",
".T c #e2c7c3",
"aL c #a06a63",
"ae c #9d544c",
"#d c #8b281e",
".3 c #722217",
"#6 c #963427",
"#y c #c9958e",
"ax c #882f23",
".S c #d6aba5",
"#M c #b57168",
"#D c #ab5246",
".M c #92372b",
"#A c #c9908a",
"#l c #dfbcb8",
"aX c #060101",
"#o c #b5645c",
"ac c #080101",
".R c #b97970",
"aO c #3d1712",
"aS c #915a54",
"ao c #a87d77",
"a# c #9d6760",
".I c #cd9892",
"#b c #9b3628",
"aj c #8f3124",
".z c #8e3a2f",
".6 c #c68a83",
".B c #4a160f",
".G c #dfbfbc",
".f c #7e352b",
"#S c #973124",
"## c #bc7369",
"aD c #4b2722",
".E c #ca928b",
"aC c #a2736f",
".5 c #5f342e",
".P c #380c07",
"aA c #a26961",
".w c #c68d87",
"ay c #863027",
"#4 c #a04a3f",
".n c #ad6056",
"#R c #9e3d33",
"aB c #a97a74",
"#U c #8a2619",
"#q c #9a3325",
".j c #5d3732",
"a1 c #80524d",
".H c #dab4b1",
"a0 c #8e5f59",
"aZ c #73443e",
".F c #d9b3ae",
"#E c #9e3b2d",
"aV c #966761",
"ah c #984037",
"aW c #48241f",
".J c #bc7971",
".p c #9a4037",
"#3 c #a7564e",
".V c #e2c4c1",
"aN c #5c312b",
"#u c #782419",
"aJ c #853a30",
".N c #883125",
"#z c #cb9790",
".9 c #efe2e0",
"#k c #dbb6b2",
"#H c #882419",
"aU c #a27771",
".a c #030303",
"an c #9b615a",
"aq c #080303",
"az c #934a40",
"#n c #c4847d",
"#7 c #8f2b1e",
"#0 c #a66057",
".Q c #120b0b",
"av c #8e3c31",
".W c #d1a29c",
"#5 c #9b3d34",
"aP c #71332c",
".1 c #8b2e22",
".7 c #dab3af",
"#I c #822a21",
".Z c #9b3b2e",
".x c #b67067",
".c c #592924",
"ab c #5a322f",
".# c #000000",
"#O c #bb7972",
".s c #784c47",
".4 c #050000",
"#2 c #ab6258",
".h c #070000",
"aG c #803a31",
"aH c #823a31",
"#Y c #804c47",
"#W c #8e473d",
"#i c #c78e86",
"#v c #631f16",
".i c #080808",
"#C c #b86b63",
"a2 c #532c28",
"#t c #802317",
"#1 c #ac665f",
"#N c #bb7c76",
"#f c #791f16",
"#X c #9c615b",
"ar c #451d16",
".O c #802b1f",
"#V c #882b1f",
"#a c #a74e42",
"#Z c #562621",
"#B c #c2837b",
"ag c #9b493e",
"#G c #912a1c",
"aY c #4a211d",
"at c #90453d",
".0 c #943327",
".m c #b9756c",
"as c #8d443a",
".r c #3d130e",
"am c #91443a",
"aT c #9b6b64",
".Y c #a95146",
".l c #bf7d74",
"aw c #8a362b",
"#L c #87473e",
".U c #ecd9d7",
".X c #bc776d",
"#K c #83423a",
"#x c #bf8078",
".D c #5b3832",
".8 c #e5cbc8",
".K c #a85347",
"aR c #874a42",
"aQ c #7d3d36",
"a. c #8e4137",
"ai c #93382c",
"#F c #962f21",
".e c #a04e43",
"#P c #b1645a",
"aM c #a1716c",
".L c #9b4034",
".u c #d1a29e",
".y c #a8564b",
".d c #88443b",
".k c #b6756d",
"#e c #802519",
"Qt c None",
"aI c #82372f",
"af c #9c5147",
"#j c #d5aaa6",
"ap c #9a6b65",
"al c #882d21",
"#J c #873e34",
".2 c #7e281d",
"#g c #3d0d08",
"#r c #932c1e",
".A c #853128",
".g c #4b1a14",
"ak c #8a281d",
"#8 c #8b271a",
".b c #0c0707",
"#Q c #a95348",
".q c #88382d",
"#. c #cf9e98",
"#p c #a44539",
".t c #ca9089",
"#h c #92524b",
"aF c #803b31",
"aK c #915148",
"#s c #8c291b",
"aE c #54241d",
"#T c #90291b",
"#w c #a95e54",
".v c #d0a099",
"QtQtQtQtQtQtQtQtQtQtQtQtQtQtQtQtQtQtQtQt",
"QtQtQtQtQtQtQt.#.#.#.#.#QtQtQtQtQtQtQtQt",
"QtQtQtQtQt.a.b.c.d.e.f.g.h.#QtQtQtQtQtQt",
"QtQtQtQt.i.j.k.l.m.n.o.p.q.r.#QtQtQtQtQt",
"QtQtQtQt.s.t.u.v.w.x.y.p.z.A.B.#QtQtQtQt",
"QtQt.C.D.E.F.G.H.I.J.K.L.M.N.O.P.#QtQtQt",
"QtQt.Q.R.S.T.U.V.W.X.Y.Z.0.1.2.3.4QtQtQt",
"Qt.#.5.6.7.8.9.8#.###a#b#c#d#e#f#g.#QtQt",
"Qt.##h#i#j#k#l#m#n#o#p#q#r#s#t#u#v.#QtQt",
"Qt.##w#x#y#z#A#B#C#D#E#F#G#H#I#J#K.#QtQt",
"Qt.##L#M#N#O.x#P#Q#R#S#T#U#V#W#X#Y.#QtQt",
"Qt.##Z#0#1#2#3#4#5#6#7#8#9a.a#aaab.#QtQt",
"QtQtacadaeafagahaiajakalamanaoapaqQtQtQt",
"QtQt.#arasatauavawaxayazaAaBaCaD.#QtQtQt",
"QtQtQt.#aEaFaGaHaIaJaKaLaoaMaN.#QtQtQtQt",
"QtQtQtQt.#aOaPaQaRaSaTaUaVaW.#QtQtQtQtQt",
"QtQtQtQtQt.#aXaYaZa0a1a2aq.#QtQtQtQtQtQt",
"QtQtQtQtQtQtQt.#.#.#.#.#QtQtQtQtQtQtQtQt",
"QtQtQtQtQtQtQtQtQtQtQtQtQtQtQtQtQtQtQtQt",
"QtQtQtQtQtQtQtQtQtQtQtQtQtQtQtQtQtQtQtQt"};
