/* XPM */
static char * nwchem_xpm[] = {
"23 22 165 2",
"  	c #FAFAFA",
". 	c #F5F6F3",
"+ 	c #DFE5D6",
"@ 	c #C8D3B6",
"# 	c #AEBF92",
"$ 	c #92A96C",
"% 	c #94AB6F",
"& 	c #C0CDAB",
"* 	c #E7EBE0",
"= 	c #EDF0EA",
"- 	c #C7D2B5",
"; 	c #ACBD8F",
"> 	c #91A86A",
", 	c #799649",
"' 	c #63852B",
") 	c #5D8023",
"! 	c #5B7F21",
"~ 	c #5E8125",
"{ 	c #789548",
"] 	c #A2B681",
"^ 	c #CED8BE",
"/ 	c #EEF0E9",
"( 	c #F9F9F9",
"_ 	c #C1CBBB",
": 	c #436427",
"< 	c #517424",
"[ 	c #66872F",
"} 	c #87A15D",
"| 	c #B4C598",
"1 	c #F1F4ED",
"2 	c #CCD4C7",
"3 	c #3C5C29",
"4 	c #416228",
"5 	c #507224",
"6 	c #5A7E21",
"7 	c #5C8122",
"8 	c #628825",
"9 	c #6B9228",
"0 	c #729B2C",
"a 	c #7AA333",
"b 	c #E5ECD9",
"c 	c #D6DCD2",
"d 	c #406128",
"e 	c #4E7024",
"f 	c #5A7D22",
"g 	c #618624",
"h 	c #688F27",
"i 	c #70982B",
"j 	c #76A02E",
"k 	c #78A22F",
"l 	c #7CA536",
"m 	c #ECF0E4",
"n 	c #DCE1D9",
"o 	c #3F5F28",
"p 	c #547826",
"q 	c #6E962A",
"r 	c #759F2E",
"s 	c #A2BB76",
"t 	c #A4C073",
"u 	c #7DA637",
"v 	c #7FA73A",
"w 	c #F4F6F1",
"x 	c #E2E6E0",
"y 	c #51742B",
"z 	c #A1B382",
"A 	c #81A640",
"B 	c #B9C79F",
"C 	c #739B2E",
"D 	c #85AB43",
"E 	c #F8F9F8",
"F 	c #EBEEEA",
"G 	c #3F5E2C",
"H 	c #8CB04F",
"I 	c #859C5C",
"J 	c #9DBA6B",
"K 	c #789348",
"L 	c #8EB151",
"M 	c #F0F2EF",
"N 	c #436231",
"O 	c #77A12E",
"P 	c #A1B47F",
"Q 	c #739A2E",
"R 	c #9AAB7D",
"S 	c #96B65D",
"T 	c #F2F4F2",
"U 	c #466535",
"V 	c #89AE48",
"W 	c #899E64",
"X 	c #98B762",
"Y 	c #7B974A",
"Z 	c #9DBB6A",
"` 	c #F3F5F3",
" .	c #4B693A",
"..	c #78A22E",
"+.	c #BFD19E",
"@.	c #C2D0A8",
"#.	c #A8B68F",
"$.	c #759E2E",
"%.	c #AAC47D",
"&.	c #F4F5F4",
"*.	c #506D3F",
"=.	c #83AA41",
"-.	c #F4F8EF",
";.	c #FBFBFB",
">.	c #819A55",
",.	c #B3CA8B",
"'.	c #F7F7F7",
").	c #69825B",
"!.	c #B9CF93",
"~.	c #FFFFFF",
"{.	c #CBCFC3",
"].	c #739B2D",
"^.	c #BDD19C",
"/.	c #7A8F6D",
"(.	c #7AA331",
"_.	c #F1F5E9",
":.	c #869C5F",
"<.	c #C6D7AA",
"[.	c #E8E8E9",
"}.	c #D4D4D6",
"|.	c #7F8E77",
"1.	c #3E5E2C",
"2.	c #CBDAB0",
"3.	c #B8C1AA",
"4.	c #82A93F",
"5.	c #B1C888",
"6.	c #EEF2E7",
"7.	c #EBEBEC",
"8.	c #C4C3C6",
"9.	c #BCBBBF",
"0.	c #979F93",
"a.	c #466334",
"b.	c #80A541",
"c.	c #9EB17E",
"d.	c #DBDED6",
"e.	c #F8F8F8",
"f.	c #F3F3F4",
"g.	c #CAC9CC",
"h.	c #ABAEAB",
"i.	c #546E45",
"j.	c #85A74B",
"k.	c #A4B28C",
"l.	c #BABABA",
"m.	c #BDBCC0",
"n.	c #D0CFD2",
"o.	c #B7B7B9",
"p.	c #6B7F60",
"q.	c #79A331",
"r.	c #8CA959",
"s.	c #ABB59B",
"t.	c #CBCACD",
"u.	c #E8E7E8",
"v.	c #DEDDDF",
"w.	c #BDBDC0",
"x.	c #BBBBBE",
"y.	c #99A58C",
"z.	c #B1B7A7",
"A.	c #CFCED1",
"B.	c #C1C0C4",
"C.	c #BFBEC2",
"D.	c #D4D3D6",
"E.	c #EFEFEF",
"F.	c #F0F0F0",
"G.	c #D8D7DA",
"H.	c #F1F1F2",
"                                              ",
"              . + @ # $ % & *                 ",
"    = - ; > , ' ) ! ! ! ! ! ~ { ] ^ / (       ",
"    _ : < ! ! ! ! ! ! ! ! ! ! ! ! ! [ } | 1   ",
"    2 3 3 4 5 6 ! ! ! ! ! ! ! ! 7 8 9 0 a b   ",
"    c 3 3 3 3 d e f ! ! ! g h i j k k k l m   ",
"    n 3 3 3 3 3 3 o p q r k k k s t u k v w   ",
"    x 3 3 3 3 3 3 3 y k k k k k z A B C D E   ",
"    F G 3 3 3 3 3 3 y k k k k H I J K k L     ",
"    M N 3 3 3 3 3 3 y k k k O P Q R O k S     ",
"    T U 3 3 3 3 3 3 y k k k V W X Y k k Z     ",
"    `  .3 3 3 3 3 3 y k k ..+.@.#.$.k k %.    ",
"    &.*.3 3 3 3 3 3 y k k =.-.;.>.k k k ,.    ",
"    '.).3 3 3 3 3 3 y k k !.~.{.].k k k ^.    ",
"      F /.3 3 3 3 3 y k (._.~.:.k k k k <.    ",
"      [.}.|.1.3 3 3 y k k 2.3.Q k k 4.5.6.    ",
"      7.8.9.0.a.3 3 y k k O O ..b.c.d.e.      ",
"        f.g.9.h.i.3 y k k k j.k.l.9.m.n.'.    ",
"          '.}.9.o.p.y q.r.s.9.9.m.t.u.(       ",
"            ( v.w.x.y.z.9.9.m.A.7.(           ",
"                [.B.9.9.C.D.E.                ",
"                  F.g.G.H.                    "};
