/* XPM */
static char * nwchem_mini_xpm[] = {
"14 16 116 2",
"  	c #FAFAFA",
". 	c #F4F5F1",
"+ 	c #DEE4D4",
"@ 	c #D4DCC6",
"# 	c #ECEFE9",
"$ 	c #C5D1B2",
"% 	c #AABC8C",
"& 	c #91A96A",
"* 	c #749244",
"= 	c #61842A",
"- 	c #5C8022",
"; 	c #5B7F21",
"> 	c #64862D",
", 	c #89A360",
"' 	c #B5C59C",
") 	c #DFE5D5",
"! 	c #F8F8F7",
"~ 	c #BBC6B5",
"{ 	c #436427",
"] 	c #527523",
"^ 	c #5D8123",
"/ 	c #769541",
"( 	c #B7CA96",
"_ 	c #C6CFC1",
": 	c #3C5C29",
"< 	c #426327",
"[ 	c #517324",
"} 	c #5B7E21",
"| 	c #5E8222",
"1 	c #658C26",
"2 	c #6D952A",
"3 	c #759E2E",
"4 	c #78A22F",
"5 	c #9FBD6D",
"6 	c #CDD4C8",
"7 	c #416128",
"8 	c #628828",
"9 	c #739B2C",
"0 	c #9BB76B",
"a 	c #98B860",
"b 	c #78A230",
"c 	c #A9C37C",
"d 	c #D4DBD1",
"e 	c #678E2D",
"f 	c #79A330",
"g 	c #8FA765",
"h 	c #9AB36D",
"i 	c #799D39",
"j 	c #B4CB8D",
"k 	c #DEE2DB",
"l 	c #3D5D2A",
"m 	c #92B05E",
"n 	c #7FA045",
"o 	c #86A158",
"p 	c #BCD09A",
"q 	c #E3E7E0",
"r 	c #3E5E2B",
"s 	c #96AD6F",
"t 	c #94AE67",
"u 	c #759D2F",
"v 	c #C5D6A8",
"w 	c #E7EAE5",
"x 	c #3F5F2D",
"y 	c #96B65C",
"z 	c #FBFCF9",
"A 	c #95AB6F",
"B 	c #D0DDB8",
"C 	c #F1F2F0",
"D 	c #536F43",
"E 	c #D4E1BC",
"F 	c #E4E6E1",
"G 	c #759B31",
"H 	c #DAE4C8",
"I 	c #E2E6E1",
"J 	c #617952",
"K 	c #7DA536",
"L 	c #F7FAF3",
"M 	c #A0B281",
"N 	c #81A83D",
"O 	c #E8EEDE",
"P 	c #F9F9F9",
"Q 	c #D5D4D7",
"R 	c #B9B9BC",
"S 	c #718367",
"T 	c #81A640",
"U 	c #769F2F",
"V 	c #80A541",
"W 	c #ABBD8C",
"X 	c #EFF2EB",
"Y 	c #DEDDDF",
"Z 	c #BDBCC0",
"` 	c #8A9685",
" .	c #405F2D",
"..	c #85A74B",
"+.	c #A4B28C",
"@.	c #BABABC",
"#.	c #BEBDC1",
"$.	c #D9D8DA",
"%.	c #E7E7E8",
"&.	c #C0BFC3",
"*.	c #9FA69D",
"=.	c #829C5D",
"-.	c #AAB499",
";.	c #BCBBBE",
">.	c #BFBEC2",
",.	c #D7D6D9",
"'.	c #F2F2F2",
").	c #EFEFF0",
"!.	c #C5C4C7",
"~.	c #BCBBBF",
"{.	c #C1C0C4",
"].	c #DADADC",
"^.	c #F4F4F5",
"/.	c #F5F5F5",
"(.	c #E1E1E2",
"_.	c #F6F6F7",
"          . + @ .           ",
"# $ % & * = - ; > , ' ) !   ",
"~ { ] ; ; ; ; ; ; ; ; ^ / ( ",
"_ : : < [ } ; ; | 1 2 3 4 5 ",
"6 : : : : 7 8 9 4 4 0 a b c ",
"d : : : : : e 4 4 f g h i j ",
"k l : : : : e 4 4 m n o 4 p ",
"q r : : : : e 4 4 s t u 4 v ",
"w x : : : : e 4 y z A 4 4 B ",
"C D : : : : e 4 E F G 4 4 H ",
"  I J : : : e K L M 4 4 N O ",
"P Q R S : : e 4 T U V W X   ",
"  P Y Z `  .e 4 ..+.@.#.$.P ",
"      %.&.*.=.-.;.>.,.'.    ",
"        ).!.~.{.].^.        ",
"          /.(._.            "};
