/* XPM */
static char * o_xpm[] = {
"24 20 250 2",
"  	c None",
". 	c #676600",
"+ 	c #838200",
"@ 	c #939200",
"# 	c #ACAB00",
"$ 	c #B0AF00",
"% 	c #B2B200",
"& 	c #B4B200",
"* 	c #A7A600",
"= 	c #9D9C00",
"- 	c #757300",
"; 	c #A9A800",
"> 	c #C8C600",
", 	c #D9D700",
"' 	c #E5E200",
") 	c #E7E400",
"! 	c #E7E500",
"~ 	c #E4E200",
"{ 	c #CCCA00",
"] 	c #BEBC00",
"^ 	c #BFBD00",
"/ 	c #575500",
"( 	c #828000",
"_ 	c #C1BF00",
": 	c #E1DE00",
"< 	c #E6E300",
"[ 	c #E8E400",
"} 	c #E8E500",
"| 	c #E9E500",
"1 	c #D3D000",
"2 	c #C5C200",
"3 	c #7F7C00",
"4 	c #BEBA00",
"5 	c #DBD700",
"6 	c #E1DC00",
"7 	c #E2DD00",
"8 	c #E2DE00",
"9 	c #DED900",
"0 	c #D0CB00",
"a 	c #C9C500",
"b 	c #6C6A00",
"c 	c #BAB500",
"d 	c #D6D000",
"e 	c #DAD500",
"f 	c #DBD600",
"g 	c #DCD700",
"h 	c #DBD500",
"i 	c #D9D400",
"j 	c #DDD800",
"k 	c #5B5800",
"l 	c #969100",
"m 	c #CEC800",
"n 	c #D4CE00",
"o 	c #D5CF00",
"p 	c #D4CD01",
"q 	c #CEC806",
"r 	c #CEC707",
"s 	c #D2CC03",
"t 	c #D5CE00",
"u 	c #DED700",
"v 	c #E6DF00",
"w 	c #6F6B00",
"x 	c #ACA500",
"y 	c #CDC500",
"z 	c #CEC700",
"A 	c #CFC700",
"B 	c #C8C106",
"C 	c #A39D29",
"D 	c #6E6A5A",
"E 	c #6C685D",
"F 	c #8F8B3B",
"G 	c #C3BC0B",
"H 	c #CEC600",
"I 	c #D6CE00",
"J 	c #E1D800",
"K 	c #DDD400",
"L 	c #797400",
"M 	c #B6AE00",
"N 	c #C7BE00",
"O 	c #C8BF00",
"P 	c #C3BB05",
"Q 	c #837E43",
"R 	c #28279A",
"S 	c #25249C",
"T 	c #292798",
"U 	c #1D1CA4",
"V 	c #6B675A",
"W 	c #BBB20D",
"X 	c #CCC400",
"Y 	c #DAD000",
"Z 	c #DCD200",
"` 	c #878000",
" .	c #B9B000",
"..	c #C0B700",
"+.	c #C1B800",
"@.	c #A79F1A",
"#.	c #322F8E",
"$.	c #373489",
"%.	c #9C9425",
"&.	c #A29A1E",
"*.	c #5A5665",
"=.	c #1E1CA2",
"-.	c #888239",
";.	c #BFB503",
">.	c #C6BC00",
",.	c #DBD000",
"'.	c #E6DA00",
").	c #867F00",
"!.	c #B4A900",
"~.	c #BAAF00",
"{.	c #BBB000",
"].	c #898134",
"^.	c #1D1BA2",
"/.	c #797243",
"(.	c #BAB001",
"_.	c #BAB000",
":.	c #9D941E",
"<.	c #201E9F",
"[.	c #5D5860",
"}.	c #B5AB06",
"|.	c #C0B600",
"1.	c #D7CA00",
"2.	c #E3D600",
"3.	c #837B00",
"4.	c #ABA000",
"5.	c #B3A800",
"6.	c #6D674B",
"7.	c #1C1AA2",
"8.	c #908727",
"9.	c #A59B10",
"0.	c #2D2A90",
"a.	c #4D486E",
"b.	c #ADA207",
"c.	c #BFB300",
"d.	c #DBCD00",
"e.	c #E5D600",
"f.	c #776F00",
"g.	c #9D9200",
"h.	c #ACA000",
"i.	c #ADA100",
"j.	c #6B6449",
"k.	c #1A18A4",
"l.	c #827930",
"m.	c #9D9212",
"n.	c #292693",
"o.	c #4C466C",
"p.	c #A79B07",
"q.	c #AEA200",
"r.	c #C1B400",
"s.	c #DDCD00",
"t.	c #E3D300",
"u.	c #6B6300",
"v.	c #8D8200",
"w.	c #A59800",
"x.	c #A69900",
"y.	c #A79900",
"z.	c #7D7230",
"A.	c #1715A6",
"B.	c #5A5359",
"C.	c #A59803",
"D.	c #A69901",
"E.	c #82782B",
"F.	c #5B5456",
"G.	c #A29505",
"H.	c #A79A00",
"I.	c #AA9D00",
"J.	c #C8B700",
"K.	c #DAC900",
"L.	c #7E7300",
"M.	c #9C8D00",
"N.	c #9F9000",
"O.	c #9F9100",
"P.	c #A09100",
"Q.	c #928511",
"R.	c #3C3677",
"S.	c #1A18A1",
"T.	c #5A5255",
"U.	c #61584D",
"V.	c #2A278E",
"W.	c #28248F",
"X.	c #817524",
"Y.	c #9F9101",
"Z.	c #A19200",
"`.	c #A39500",
" +	c #B2A200",
".+	c #D1BE00",
"++	c #D9C500",
"@+	c #7A6E00",
"#+	c #8C7E00",
"$+	c #968800",
"%+	c #998A00",
"&+	c #9A8A00",
"*+	c #988902",
"=+	c #7B6E25",
"-+	c #3B3575",
";+	c #1C199C",
">+	c #2B2689",
",+	c #6E6236",
"'+	c #958605",
")+	c #9A8B00",
"!+	c #9D8E00",
"~+	c #AC9B00",
"{+	c #C3B000",
"]+	c #D3BD00",
"^+	c #7D6F00",
"/+	c #887900",
"(+	c #918100",
"_+	c #938300",
":+	c #928102",
"<+	c #867611",
"[+	c #6F632E",
"}+	c #6E622F",
"|+	c #7E6F1B",
"1+	c #908004",
"2+	c #948300",
"3+	c #978600",
"4+	c #A59300",
"5+	c #BCA700",
"6+	c #C9B300",
"7+	c #C9B200",
"8+	c #7D6E00",
"9+	c #8A7900",
"0+	c #918000",
"a+	c #927F00",
"b+	c #8F7E00",
"c+	c #8F7D00",
"d+	c #907E00",
"e+	c #968300",
"f+	c #9B8800",
"g+	c #A79200",
"h+	c #B8A100",
"i+	c #C0A800",
"j+	c #BFA800",
"k+	c #887600",
"l+	c #917D00",
"m+	c #927E00",
"n+	c #917E00",
"o+	c #978200",
"p+	c #988300",
"q+	c #9A8500",
"r+	c #A48E00",
"s+	c #AA9300",
"t+	c #B09800",
"u+	c #B8A000",
"v+	c #8C7700",
"w+	c #988100",
"x+	c #9A8300",
"y+	c #9C8400",
"z+	c #A48C00",
"A+	c #A78F00",
"                                                ",
"            . + @ # $ $ $ $ % & * =             ",
"          - ; > , ' ) ) ) ) ! ~ , { ] ^         ",
"      / ( _ : < [ } } | | | } [ ) < : 1 2       ",
"      3 4 5 6 7 7 8 8 8 8 8 8 8 7 7 6 9 0 a     ",
"    b c d e f g g g g g g g g g g g f h i e j   ",
"  k l m n n o o o o o p q r s o o o t n t u v   ",
"  w x y z A A A A z B C D E F G A A A A H I J K ",
"  L M N O O O O O P Q R S T U V W O O O O X Y Z ",
"  `  ...+.+.+.+.+.@.#.$.%.&.*.=.-.;.+.+.+.>.,.'.",
"  ).!.~.{.{.{.{.{.].^./.(._.:.<.[.}.{.{.{.|.1.2.",
"  3.4.5.!.!.!.!.!.6.7.8.!.!.9.0.a.b.!.!.!.c.d.e.",
"  f.g.h.i.i.i.i.i.j.k.l.i.i.m.n.o.p.i.i.q.r.s.t.",
"  u.v.w.x.y.y.y.y.z.A.B.C.D.E.A.F.G.y.H.I.J.K.  ",
"    L.M.N.O.P.P.P.Q.R.S.T.U.V.W.X.Y.Z.`. +.+++  ",
"    @+#+$+%+%+&+&+*+=+-+;+;+>+,+'+)+!+~+{+]+    ",
"      ^+/+(+_+_+_+_+:+<+[+}+|+1+2+3+4+5+6+7+    ",
"        8+9+0+a+b+c+c+c+c+c+d+e+f+g+h+i+j+      ",
"          k+l+m+n+o+p+p+p+p+q+r+s+t+u+          ",
"                v+w+x+x+x+x+y+z+A+              "};
