/* XPM */
static char * open_babel_xpm[] = {
"24 24 138 2",
"  	c None",
". 	c #D7D7D7",
"+ 	c #CBCBCB",
"@ 	c #C8C8C8",
"# 	c #CDCDCD",
"$ 	c #CCCCCC",
"% 	c #C6C6C6",
"& 	c #C9C9C9",
"* 	c #EEEEEE",
"= 	c #FFFFFF",
"- 	c #B7B7B7",
"; 	c #B3B3B3",
"> 	c #B2B2B2",
", 	c #919191",
"' 	c #B5B5B5",
") 	c #F3F3F3",
"! 	c #B4B4B4",
"~ 	c #B1B1B1",
"{ 	c #A7A7A7",
"] 	c #9A9A9A",
"^ 	c #C3C3C3",
"/ 	c #5C5C5C",
"( 	c #707070",
"_ 	c #8A8A8A",
": 	c #565656",
"< 	c #6A6A6A",
"[ 	c #575757",
"} 	c #6E6E6E",
"| 	c #C4C4C4",
"1 	c #A0A0A0",
"2 	c #696969",
"3 	c #6D6D6D",
"4 	c #737373",
"5 	c #616161",
"6 	c #646464",
"7 	c #EDEDED",
"8 	c #787878",
"9 	c #6C6C6C",
"0 	c #636363",
"a 	c #000000",
"b 	c #444444",
"c 	c #5E5E5E",
"d 	c #555555",
"e 	c #4C4C4C",
"f 	c #C1C1C1",
"g 	c #9D9D9D",
"h 	c #434343",
"i 	c #8F8F8F",
"j 	c #484848",
"k 	c #FDFDFD",
"l 	c #4E4E4E",
"m 	c #757575",
"n 	c #505050",
"o 	c #202020",
"p 	c #F6F6F6",
"q 	c #D4D4D4",
"r 	c #7B7B7B",
"s 	c #999999",
"t 	c #686868",
"u 	c #1D1D1D",
"v 	c #969696",
"w 	c #8B8B8B",
"x 	c #151515",
"y 	c #383838",
"z 	c #C7C7C7",
"A 	c #7A7A7A",
"B 	c #545454",
"C 	c #666666",
"D 	c #F7F7F7",
"E 	c #606060",
"F 	c #4B4B4B",
"G 	c #959595",
"H 	c #878787",
"I 	c #020202",
"J 	c #898989",
"K 	c #A1A1A1",
"L 	c #4A4A4A",
"M 	c #AEAEAE",
"N 	c #E1E1E1",
"O 	c #5F5F5F",
"P 	c #141414",
"Q 	c #3C3C3C",
"R 	c #1C1C1C",
"S 	c #BFBFBF",
"T 	c #9B9B9B",
"U 	c #5A5A5A",
"V 	c #A5A5A5",
"W 	c #727272",
"X 	c #6F6F6F",
"Y 	c #6B6B6B",
"Z 	c #424242",
"` 	c #585858",
" .	c #3D3D3D",
"..	c #C0C0C0",
"+.	c #4D4D4D",
"@.	c #9F9F9F",
"#.	c #595959",
"$.	c #272727",
"%.	c #262626",
"&.	c #282828",
"*.	c #989898",
"=.	c #7D7D7D",
"-.	c #5B5B5B",
";.	c #FCFCFC",
">.	c #AAAAAA",
",.	c #5D5D5D",
"'.	c #090909",
").	c #454545",
"!.	c #181818",
"~.	c #DFDFDF",
"{.	c #E8E8E8",
"].	c #D8D8D8",
"^.	c #7F7F7F",
"/.	c #464646",
"(.	c #D1D1D1",
"_.	c #676767",
":.	c #414141",
"<.	c #838383",
"[.	c #767676",
"}.	c #A6A6A6",
"|.	c #777777",
"1.	c #7C7C7C",
"2.	c #929292",
"3.	c #AFAFAF",
"4.	c #0B0B0B",
"5.	c #A9A9A9",
"6.	c #626262",
"7.	c #888888",
"8.	c #292929",
"9.	c #1F1F1F",
"0.	c #0C0C0C",
"a.	c #494949",
"b.	c #797979",
"c.	c #191919",
"d.	c #949494",
"e.	c #131313",
"f.	c #161616",
"g.	c #0A0A0A",
"                                                ",
"                                                ",
"                                                ",
"                                                ",
". . . . . . . . .   . . . . . . . . . . .       ",
". .   + @ # @ $ . . . . % & & @ @ @ & & . . .   ",
".   * = = - ; > , ' .   % = ) ! ! ; > ~ { ] . . ",
"  = = ^ / ( _ : < [ }   | = 1 ( 2 2 3 < 4 5 6 . ",
"7 = > 8 9 0 a b c 9 d e f = g 0 h a a 3 i < ( j ",
"= k l m n a o   p q 6 8 r = s t h u   | = s < d ",
"= v 3 w x y .   z = 0 A B = ] C b u   D = E 4 F ",
"= G H y I J .   ^ = K 2 L = M C 2 = = = N O 3 P ",
"= K c Q R . .   S = T U j = V W 6 m C t X Y Z a ",
"= ] `  .R . .   ..= v U +.= @.0 #.$.%.&.*.=.} -.",
";.>.0 ,.R . .   = = r 0 F = ] 4 h '.).!.~.= #.A ",
"{.].^./.n .   (.= = _.0 ` = 1 _.:.u .   k = 0 <.",
"  D h 2 _._ = = ;.B 9 [.9 = }.0 : [.D = = 1 |._ ",
". & | 1.2._.3.w Y ( 2 4.} = M 4 < ' ! 5.6.7.w 8.",
". . .   9.6.O ( 9 /.0.I _   a.r r m |.b.H 9 c.a ",
". . . . d.e.a a a a &.7.. .   f.a a a a a a g._.",
"    . . . . . . . . . . . . . . . . . . . . . . ",
"                                                ",
"                                                ",
"                                                "};
