/* XPM */
static char * open_xpm[] = {
"24 24 9 1",
" 	c None",
".	c #020204",
"+	c #918571",
"@	c #D6BF92",
"#	c #AAAEA7",
"$	c #E6EBE3",
"%	c #776A50",
"&	c #D1B68C",
"*	c #A39371",
"                        ",
"                        ",
"                        ",
"                        ",
"                        ",
"            .....       ",
"    ...  ...#$$$.....   ",
"  ...$#..#$$$...%*@@.   ",
"  .$$$$$$$...%*@@@&@.   ",
"  .#$$$...%*@@@@@@@&.   ",
"  .+$$.%*@@@@@@@&@@&.   ",
"   .$$.@@@@@@@@@@&&&.   ",
"   .#$.@$@@@@@@@&@&&.   ",
"   .+$.@@@@@@@@&&&&&.   ",
"    .$.@@@@@@@&@&&+%.   ",
"    .#.@@@@@@&&&+%..    ",
"    .+.@@@@&@+%...      ",
"     ..@@@*%...         ",
"     ..*%...            ",
"      ...               ",
"                        ",
"                        ",
"                        ",
"                        "};
