/* XPM */
static char *orbitals_xpm[] = {
/* width height num_colors chars_per_pixel */
"    24    24       98            2",
/* colors */
".. c None",
".# c #000420",
".a c #000429",
".b c #000431",
".c c #000439",
".d c #000441",
".e c #00044a",
".f c #00045a",
".g c #000462",
".h c #00046a",
".i c #000473",
".j c #00047b",
".k c #000483",
".l c #00048b",
".m c #000494",
".n c #0004a4",
".o c #0004ac",
".p c #0004b4",
".q c #0004bd",
".r c #0004c5",
".s c #080829",
".t c #080831",
".u c #080839",
".v c #080841",
".w c #08084a",
".x c #08085a",
".y c #080862",
".z c #08086a",
".A c #080883",
".B c #08088b",
".C c #080894",
".D c #08089c",
".E c #0808a4",
".F c #0808ac",
".G c #0808b4",
".H c #0808bd",
".I c #0808c5",
".J c #0808cd",
".K c #080cac",
".L c #1010c5",
".M c #1014c5",
".N c #1818de",
".O c #1818e6",
".P c #200808",
".Q c #2020de",
".R c #290400",
".S c #2928ee",
".T c #310400",
".U c #310808",
".V c #390808",
".W c #3938de",
".X c #3938e6",
".Y c #393ce6",
".Z c #410400",
".0 c #410808",
".1 c #4a0400",
".2 c #4a0808",
".3 c #520400",
".4 c #520808",
".5 c #5a0400",
".6 c #5a0808",
".7 c #620400",
".8 c #620808",
".9 c #6a0400",
"#. c #730400",
"## c #730808",
"#a c #7b0400",
"#b c #7b0808",
"#c c #830400",
"#d c #830808",
"#e c #8b0400",
"#f c #8b0808",
"#g c #940400",
"#h c #9c0400",
"#i c #9c0808",
"#j c #a40400",
"#k c #a40808",
"#l c #ac0400",
"#m c #ac0808",
"#n c #ac0c08",
"#o c #b40400",
"#p c #b40808",
"#q c #bd0400",
"#r c #bd0808",
"#s c #c50400",
"#t c #c50808",
"#u c #c50c08",
"#v c #cd0808",
"#w c #cd1818",
"#x c #d51410",
"#y c #de1410",
"#z c #de2420",
"#A c #de3031",
"#B c #de3431",
"#C c #e62829",
"#D c #e62c29",
"#E c #ee4041",
"#F c #f65d5a",
/* pixels */
"................................................",
"................................................",
"................................................",
"................................................",
".................t.x.f.w.....4.6.1..............",
"...............f.A.B.m.B.u.Z#d#i#e##.0..........",
".............f.l.n.o.p.o.i.1#h#o#l#h#a.Z........",
"...........e.j.n.p.r.J.q.j.1#j#s#s#o#h.9........",
"...........y.C.o.I.Q.S.Q.B.Z#n#D#z#r#m#c.V......",
".........T.z.C.o.I.M.W.L.A.Z#n#w#u#r#k#c.0......",
".........3.f.h.k.k.j.j.i.g.3#a#a#a#.#..7.R......",
".........1#j.c.c.Z.9.9.7.T.b.e.h.h.g.b.R........",
"...........2###g#p#r#t#t#f.b.C.I.q.G.D.i........",
"...........5#e#l#s#A#E#C#h.b.K.X.Y.r.o.l.e......",
".........a.7#g#l#s#B#F#y#h.b.F.O.N.r.o.l.e......",
".........c.8#f#l#r#v#x#v#k.b.D.J.J.H.E.k.v......",
".........#.0#b#g#m#r#q#r#d.c.D.H.p.F.C.h........",
"...........i.3#a#g#j#l#h.9.d.l.n.n.m.i.d........",
".............l.1#.#a#c#a.Z.c.i.k.j.h.d..........",
".............s.j.U.4.5.4.P#e.w.x.e.8............",
".................v.y.f.....T.6.4................",
"................................................",
"................................................",
"................................................"
};
