/* XPM */
static char * orca_xpm[] = {
"24 24 230 2",
"  	c #FFFFFF",
". 	c #A7A7A7",
"+ 	c #2F2F2F",
"@ 	c #151515",
"# 	c #3D3D3D",
"$ 	c #C5C5C5",
"% 	c #C7C7C7",
"& 	c #2B2B2B",
"* 	c #343434",
"= 	c #797979",
"- 	c #FEFEFE",
"; 	c #B2B2B2",
"> 	c #363636",
", 	c #141414",
"' 	c #303030",
") 	c #CACACA",
"! 	c #FCFCFC",
"~ 	c #3A3A3A",
"{ 	c #DFDFDF",
"] 	c #C6C6C6",
"^ 	c #010101",
"/ 	c #6F6F6F",
"( 	c #CECECE",
"_ 	c #484848",
": 	c #0D0D0D",
"< 	c #EAEAEA",
"[ 	c #BBBBBB",
"} 	c #000000",
"| 	c #929292",
"1 	c #737373",
"2 	c #C8C8C8",
"3 	c #CBCBCB",
"4 	c #030303",
"5 	c #5C5C5C",
"6 	c #CFCFCF",
"7 	c #B1B1B1",
"8 	c #B5B5B5",
"9 	c #111111",
"0 	c #828282",
"a 	c #767676",
"b 	c #F5F5F5",
"c 	c #C3C3C3",
"d 	c #0B0B0B",
"e 	c #E5E5E5",
"f 	c #777777",
"g 	c #F1F1F1",
"h 	c #565656",
"i 	c #6C6C6C",
"j 	c #242424",
"k 	c #707070",
"l 	c #FBFBFB",
"m 	c #A1A1A1",
"n 	c #262626",
"o 	c #060606",
"p 	c #636363",
"q 	c #717171",
"r 	c #020202",
"s 	c #F9F9F9",
"t 	c #F0F0F0",
"u 	c #080808",
"v 	c #7A7A7A",
"w 	c #A3A3A3",
"x 	c #B0B0B0",
"y 	c #979797",
"z 	c #FAFAFA",
"A 	c #676767",
"B 	c #DEDEDE",
"C 	c #A4A4A4",
"D 	c #BDBDBD",
"E 	c #B7B7B7",
"F 	c #808080",
"G 	c #D9D9D9",
"H 	c #999999",
"I 	c #0F0F0F",
"J 	c #040404",
"K 	c #121212",
"L 	c #A0A0A0",
"M 	c #FDFDFD",
"N 	c #2A2A2A",
"O 	c #3E3E3E",
"P 	c #898989",
"Q 	c #0E0E0E",
"R 	c #090909",
"S 	c #BABABA",
"T 	c #464646",
"U 	c #787878",
"V 	c #E8E8E8",
"W 	c #E6E6E6",
"X 	c #F8F8F8",
"Y 	c #B3B3B3",
"Z 	c #6B6B6B",
"` 	c #616161",
" .	c #606060",
"..	c #909090",
"+.	c #EFEFEF",
"@.	c #9E9E9E",
"#.	c #292929",
"$.	c #222222",
"%.	c #3C3C3C",
"&.	c #232323",
"*.	c #FDFEFF",
"=.	c #FDFEFE",
"-.	c #FDFCFD",
";.	c #EDEDED",
">.	c #3F3F3F",
",.	c #414141",
"'.	c #8F8F8F",
").	c #333333",
"!.	c #555555",
"~.	c #FAFEFC",
"{.	c #FAF8F9",
"].	c #B7B8B8",
"^.	c #888A89",
"/.	c #868686",
"(.	c #353535",
"_.	c #373737",
":.	c #434343",
"<.	c #3B3B3B",
"[.	c #383838",
"}.	c #8E8E8E",
"|.	c #6A6A6A",
"1.	c #C4C4C4",
"2.	c #FDFBFC",
"3.	c #73777A",
"4.	c #090B0D",
"5.	c #21201F",
"6.	c #ADADAD",
"7.	c #E9E9E9",
"8.	c #656565",
"9.	c #FCFDFE",
"0.	c #FAFEFB",
"a.	c #F7F5F8",
"b.	c #A8ACB1",
"c.	c #2A414E",
"d.	c #4C555D",
"e.	c #808180",
"f.	c #626262",
"g.	c #FCFCFD",
"h.	c #FCFBFC",
"i.	c #989FA1",
"j.	c #AECACF",
"k.	c #EAF4F5",
"l.	c #9C9A9B",
"m.	c #171717",
"n.	c #FAFCFB",
"o.	c #A4A5A8",
"p.	c #75827E",
"q.	c #E3F5F6",
"r.	c #D8E0E4",
"s.	c #252526",
"t.	c #413F40",
"u.	c #323232",
"v.	c #0A0A0A",
"w.	c #BFBFBF",
"x.	c #E3E3E5",
"y.	c #50626F",
"z.	c #5695A9",
"A.	c #4B8093",
"B.	c #525C5C",
"C.	c #363535",
"D.	c #313431",
"E.	c #373534",
"F.	c #2A2B2B",
"G.	c #111113",
"H.	c #4D5458",
"I.	c #505859",
"J.	c #A3B0B2",
"K.	c #FCFEFC",
"L.	c #F8FCF6",
"M.	c #FAFAF9",
"N.	c #A5B0B1",
"O.	c #92999C",
"P.	c #222524",
"Q.	c #404145",
"R.	c #40433E",
"S.	c #434042",
"T.	c #343338",
"U.	c #383E3E",
"V.	c #2B3030",
"W.	c #BEBCBE",
"X.	c #65828C",
"Y.	c #6F7176",
"Z.	c #6E9096",
"`.	c #FEFCFA",
" +	c #FAFDFA",
".+	c #718691",
"++	c #98B4BC",
"@+	c #191C1F",
"#+	c #373937",
"$+	c #3B373A",
"%+	c #464B48",
"&+	c #767474",
"*+	c #121F21",
"=+	c #306378",
"-+	c #C7CACD",
";+	c #99BEC6",
">+	c #F5F6F7",
",+	c #608588",
"'+	c #FCFEFA",
")+	c #FDFDFE",
"!+	c #B1BCC0",
"~+	c #BCDEE1",
"{+	c #6DAFC2",
"]+	c #1C4758",
"^+	c #4B545B",
"/+	c #CCCBCD",
"(+	c #456579",
"_+	c #A1CAD1",
":+	c #38444A",
"<+	c #91989E",
"[+	c #F3F8F9",
"}+	c #F9FFFE",
"|+	c #FBFCFA",
"1+	c #F0F5F4",
"2+	c #DCE4E3",
"3+	c #B2C0C3",
"4+	c #A1E1E8",
"5+	c #FAFCFC",
"6+	c #848586",
"7+	c #DBDCE0",
"8+	c #FEFDFC",
"9+	c #FFFDFF",
"0+	c #FEFDFE",
"a+	c #FCFFFE",
"b+	c #FCFEFE",
"c+	c #FEFDFD",
"d+	c #F7FDFE",
"e+	c #FDFDFB",
"f+	c #FEFDFF",
"g+	c #FEFEFF",
"                                                ",
"                                                ",
"  . + @ # $   % & & * = -   ; > , ' )   ! ~ & { ",
"] ^ / ( _ : < [ } | 1 } 2 3 4 5 6 7 2   8 ^ 9 0 ",
"a ^ b   c } . [ } | 1 d e f ^ g         h # i j ",
"k 4 l   3 } m [ } n o p   q r s       t u v w } ",
"x } y z A 4 B [ } c C } D E } F l { G H ^ I I J ",
"  v u } K L   [ } c M N O   P Q } R S ~ T     U ",
"    s V !                   - l W X M M         ",
"    - - - - - - - - - M M b Y Z `  ...+.M -     ",
"    - - - - - - M - - l @.#.$.* %.+ #.&.= -     ",
"    - - - *.=.-.-.! ;._ n >.,.%.'.H ).> !.-     ",
"    - - - ~.{.].^./.N (.,.,._.:.<.[.}.|.1.-     ",
"    - - - 2.3.4.5.(.,.,.,.,.,.' 6.7.8.3 l -     ",
"    9.0.a.b.c.d.e.(.,.,.,.,.,.+ D f.e M M -     ",
"    g.h.i.j.k.l.m.,.,.,.# [.,.&.v b M - - -     ",
"    n.o.p.q.r.s.t.,.,.u.K &.> v.w.M - - - -     ",
"    x.y.z.A.B.C.,.,.D.E.F.G.H.I.J.K.- - - -     ",
"    L.M.N.O.P.Q.R.S.T.U.V.W.X.Y.Z.`.- - -       ",
"    -. +.+++@+#+$+%+&+*+=+-+;+>+,+0.- - M -     ",
"    '+)+!+~+{+]+^+/+(+_+:+s <+3 [+-.- - M       ",
"    - - - }+|+1+2+3+4+5+X M 6+7+8+9+- - M       ",
"          0+a+b+c+d+e+f+    - g+                ",
"                                                "};
