/* XPM */
static char * orca_mini_xpm[] = {
"16 16 137 2",
"  	c #FFFFFF",
". 	c #F6F6F6",
"+ 	c #CBCBCB",
"@ 	c #BDBDBD",
"# 	c #E4E4E4",
"$ 	c #F8F8F8",
"% 	c #CACACA",
"& 	c #C1C1C1",
"* 	c #D9D9D9",
"= 	c #EFEFEF",
"- 	c #A8A8A8",
"; 	c #525252",
"> 	c #6B6B6B",
", 	c #5D5D5D",
"' 	c #DDDDDD",
") 	c #444444",
"! 	c #626262",
"~ 	c #535353",
"{ 	c #DFDFDF",
"] 	c #616161",
"^ 	c #909090",
"/ 	c #E8E8E8",
"( 	c #A3A3A3",
"_ 	c #1A1A1A",
": 	c #A2A2A2",
"< 	c #E1E1E1",
"[ 	c #404040",
"} 	c #B3B3B3",
"| 	c #3A3A3A",
"1 	c #6E6E6E",
"2 	c #474747",
"3 	c #F0F0F0",
"4 	c #FBFBFB",
"5 	c #5A5A5A",
"6 	c #686868",
"7 	c #5F5F5F",
"8 	c #8E8E8E",
"9 	c #D6D6D6",
"0 	c #393939",
"a 	c #BEBEBE",
"b 	c #666666",
"c 	c #B9B9B9",
"d 	c #3C3C3C",
"e 	c #D5D5D5",
"f 	c #252525",
"g 	c #515151",
"h 	c #333333",
"i 	c #C3C3C3",
"j 	c #4D4D4D",
"k 	c #7D7D7D",
"l 	c #555555",
"m 	c #AEAEAE",
"n 	c #808080",
"o 	c #434343",
"p 	c #8B8B8B",
"q 	c #707070",
"r 	c #CFCFCF",
"s 	c #F5F5F5",
"t 	c #FEFEFE",
"u 	c #FDFDFD",
"v 	c #929292",
"w 	c #545454",
"x 	c #505050",
"y 	c #828282",
"z 	c #C4C4C4",
"A 	c #FDFEFE",
"B 	c #FDFCFD",
"C 	c #F9F9F9",
"D 	c #A9A9A9",
"E 	c #373737",
"F 	c #757575",
"G 	c #303030",
"H 	c #FCFDFD",
"I 	c #B2B3B4",
"J 	c #6D6F6E",
"K 	c #585858",
"L 	c #414141",
"M 	c #3D3D3D",
"N 	c #494949",
"O 	c #6D6D6D",
"P 	c #848484",
"Q 	c #FBFCFB",
"R 	c #D6D7DA",
"S 	c #3E4B54",
"T 	c #525556",
"U 	c #9D9D9D",
"V 	c #F7F7F7",
"W 	c #C3C6C7",
"X 	c #AFC2C4",
"Y 	c #BFC5C6",
"Z 	c #3F3F3F",
"` 	c #3E3E3E",
" .	c #2F2F2F",
"..	c #424242",
"+.	c #F1F2F3",
"@.	c #68808A",
"#.	c #749FAC",
"$.	c #656B6C",
"%.	c #3B3B3B",
"&.	c #3D3E3D",
"*.	c #363534",
"=.	c #1E1F1F",
"-.	c #36393B",
";.	c #5F6667",
">.	c #E2E5E5",
",.	c #FBFDFB",
"'.	c #D8DDDE",
").	c #94A2A7",
"!.	c #292B2C",
"~.	c #3E3F3E",
"{.	c #464547",
"].	c #363B3C",
"^.	c #5E6C71",
"/.	c #8FA4AB",
"(.	c #8B989C",
"_.	c #CCD7D7",
":.	c #FDFEFC",
"<.	c #DCE1E3",
"[.	c #A9C3C9",
"}.	c #426A77",
"|.	c #3B484F",
"1.	c #878E93",
"2.	c #68848C",
"3.	c #71828A",
"4.	c #B0BCC0",
"5.	c #D1D7D8",
"6.	c #E9EEEF",
"7.	c #FCFEFE",
"8.	c #F9FBFA",
"9.	c #ECF0F0",
"0.	c #C6DCDF",
"a.	c #E7F6F8",
"b.	c #C8C8C9",
"c.	c #EFEFF1",
"d.	c #FFFEFE",
"e.	c #FEFFFF",
"f.	c #FFFEFF",
"                                ",
". + @ # $ % & *   # @ + $ = & . ",
"- ; > , ' ) ! ~ { ] > ^ / ( _ @ ",
"; : < [ } | 1 2 } [ 3 $ 4 5 , 6 ",
"7 8 9 0 a 0 b ~ c d { 3 e f g h ",
"i j ) k < l * ! m n o 6 p q r ! ",
"  4 s t t t t u r v w x y z t   ",
"  t t t A B C D 2 E j F G g t   ",
"  t t H I J K E L M N O P @ t   ",
"  A Q R S T 0 L L L , U + V t   ",
"  u W X Y Z L `  .0 ..e t t t   ",
"  +.@.#.$.%.&.*.=.-.;.>.t t t   ",
"  ,.'.).!.~.{.].^./.(._.t t     ",
"  :.<.[.}.|.1.2.3.4.5.6.t u     ",
"    t 7.8.9.0.a.4 b.c.d.t t     ",
"        e.t A f.                "};
