/* XPM */
static char * paste_xpm[] = {
"24 24 10 1",
" 	c None",
".	c #000005",
"+	c #86867A",
"@	c #CECBBB",
"#	c #E7E7D1",
"$	c #AFAE9F",
"%	c #454541",
"&	c #65655F",
"*	c #2A2A28",
"g	c #00FFFF",
"                        ",
"                        ",
"                        ",
"         ...            ",
"       ..@@@.      g    ",
"     ..@@@@@.   ggggg   ",
"   ..@@+*&+@@.  ggggg   ",
"  .@@@&#$+%@@.     g    ",
"  .@@@%$&%@@@@.         ",
"   .@@&%$@@@@@. ..      ",
"   .@@@@@@@@@@..@+.     ",
"    .@@@@$@@.*$$@#.     ",
"    .@@@@@@@.#&@@@$.    ",
"     .@@@@@@.#%$###.    ",
"     .@@@@@$.&$@@##$.   ",
"      .@@$@@.$#@####$.  ",
"      .$@$@$.+##@####.  ",
"       .@$$$..#######$. ",
"       .$$.. .$####$..  ",
"        ..    .##$..    ",
"              .$..      ",
"               .        ",
"                        ",
"                        "};
