/* XPM */
static char * pdb_xpm[] = {
"32 32 2 1",
" 	c None",
".	c #5F71D8",
"                                ",
"                      ....      ",
"                     ......     ",
"                    .   ...     ",
"                   ..    .  .   ",
"                  ....   ...... ",
"                 ......  ...... ",
"                    ....    ... ",
"                     ....    .. ",
"                      ....   .. ",
"             ......    ....  .  ",
"            ........    .....   ",
"           .     ....    ...    ",
"          ..      ....    .     ",
"         ...       ...   .      ",
"        .....       ..          ",
"          ....      ..          ",
"           ....      .          ",
"     .....  ....     .          ",
"    ......   ....   .           ",
"   .   ...    ......            ",
"  ..    ..     ....             ",
" ....   ..      ..              ",
"  ....  .       .               ",
"   .....                        ",
"    ....                        ",
"     ....                       ",
"      ....                      ",
"       .....                    ",
"        ...                     ",
"         .                      ",
"        .                       "};
