/* XPM */
static char * psicode_mini_xpm[] = {
"16 12 27 1",
" 	c None",
".	c #333885",
"+	c #49488D",
"@	c #48498D",
"#	c #2C3687",
"$	c #263083",
"%	c #323A88",
"&	c #283284",
"*	c #3A3F8B",
"=	c #323785",
"-	c #454990",
";	c #444489",
">	c #605995",
",	c #4E4989",
"'	c #353B8B",
")	c #515599",
"!	c #605F9B",
"~	c #5A5C9B",
"{	c #4B4D90",
"]	c #363F8E",
"^	c #414A94",
"/	c #424B92",
"(	c #404893",
"_	c #273283",
":	c #2D398D",
"<	c #37408F",
"[	c #323B8B",
"                ",
"  .+@#    $     ",
"     %   &      ",
"     *  =       ",
"     - ;>,'     ",
"     )!~{]      ",
"     ^/(        ",
"     _:         ",
"     <          ",
"    [           ",
"   #            ",
"                "};
