/* XPM */
static char * psicode_xpm[] = {
"22 17 49 1",
" 	c None",
".	c #1F2A7E",
"+	c #263184",
"@	c #2F3A89",
"#	c #243083",
"$	c #222F86",
"%	c #242E7F",
"&	c #353F90",
"*	c #1E297B",
"=	c #283286",
"-	c #2C3687",
";	c #273285",
">	c #2F3887",
",	c #2A3588",
"'	c #343C8A",
")	c #2E388A",
"!	c #1F2B7F",
"~	c #202D82",
"{	c #373E8B",
"]	c #303989",
"^	c #36347B",
"/	c #23328A",
"(	c #3F458F",
"_	c #313885",
":	c #72669C",
"<	c #323681",
"[	c #343E91",
"}	c #494E96",
"|	c #897FAA",
"1	c #45478A",
"2	c #61619F",
"3	c #756C9D",
"4	c #4E559C",
"5	c #6D6EA5",
"6	c #424A95",
"7	c #696AA1",
"8	c #2E3888",
"9	c #3C4692",
"0	c #303B88",
"a	c #424B94",
"b	c #2D388B",
"c	c #1F2A7C",
"d	c #2C388C",
"e	c #26348C",
"f	c #202A7B",
"g	c #454D9B",
"h	c #394292",
"i	c #2E398A",
"j	c #2A3485",
"                      ",
"   .+@#$       %&     ",
" *=    -      ;       ",
"       >     ,        ",
"       '    )    !~!  ",
"       {   ]  ^;/     ",
"       (  _: <[       ",
"       }|123_         ",
"       45678          ",
"       90ab           ",
"       cde            ",
"       8              ",
"      fg              ",
"      h               ",
"     i                ",
"    j                 ",
"                      "};
