/* XPM */
static char * qchem_xpm[] = {
"24 24 3 1",
"a c #00ffff",
"# c #303030",
". c #58a8ff",
"................#.......",
"................##......",
"..............###.#.....",
".............#.#...#....",
"............#...#...#...",
"...........#.....#...#..",
"..........#.#..#..#.....",
"...........#.##....#....",
"........#...#.#...#.....",
".........#.###.#.#......",
"......#...###.#.#.......",
".....#.....#...#........",
".....#......#...........",
".....#.......#..........",
"......#.................",
".....#.#...#............",
"..###...###.............",
".a...#..................",
"a.....#.................",
"a.....#.................",
"a....###................",
".a..aa..................",
"..aaa...................",
"........................"};
