/* XPM */
static char * qchem_mini_xpm[] = {
"16 16 18 1",
"m c #13ebff",
"j c #1de2ff",
"l c #27d8ff",
"k c #31ceff",
"f c #343d47",
"c c #394b5e",
"o c #3bc5ff",
"i c #3ca0d1",
"g c #3d5875",
"a c #42658c",
"h c #44bbff",
"n c #45bbff",
"b c #4672a3",
"# c #4b80ba",
"p c #4eb1ff",
"d c #4f8dd1",
"e c #549ae8",
". c #58a8ff",
"..........#a....",
".........bcab...",
"........bdaedb..",
".......bd.ea.db.",
"......dba#b.ae..",
".....b.dac..ae..",
"....d.acfbaa....",
"...bd.ecddae....",
"...g....ae......",
"...db...ee......",
".d#adb#a........",
"hi#a.d#e........",
"j...g...........",
"j..bfd..........",
"hklm............",
".nop............"};
