/* XPM */
static char *render_stick_xpm[]={
"24 24 3 1",
". c None",
"# c #000080",
"a c #00c000",
"........................",
"..................###...",
".................####...",
"................#####...",
"...............#####....",
"..............#####.....",
".............#####......",
"............#####.......",
"...........#####........",
"..........#####.........",
".........aaaaa..........",
"........aaaaa...........",
".......aaaaa............",
"......aaaaa.............",
".....aaaaa..............",
"....aaaaa...............",
"...aaaaa................",
"..aaaaa.................",
".aaaaa..................",
".aaaa...................",
".aaa....................",
"........................",
"........................",
"........................"};
