/* XPM */
static char* render_ballstick_xpm[]={
"24 24 3 1",
". c None",
"a c #0000ff",
"# c #00c000",
"................#####...",
"...............#######..",
"..............#########.",
"..............#########.",
"..............#########.",
"..............#########.",
"..............#########.",
".............#########..",
"............#########...",
"...........#####........",
"..........a####.........",
".........aaa##..........",
"........aaaaa...........",
".......aaaaa............",
"..aaaaaaaaa.............",
".aaaaaaaaa..............",
"aaaaaaaaa...............",
"aaaaaaaaa...............",
"aaaaaaaaa...............",
"aaaaaaaaa...............",
"aaaaaaaaa...............",
".aaaaaaa................",
"..aaaaa.................",
"........................"};
