/* XPM */
static char *render_wireframe_xpm[]={
"24 24 3 1",
". c None",
"# c #000080",
"a c #00c000",
"........................",
"....................#...",
"...................#....",
"..................#.....",
".................#......",
"................#.......",
"...............#........",
"..............#.........",
".............#..........",
"............#...........",
"...........a............",
"..........a.............",
".........a..............",
"........a...............",
".......a................",
"......a.................",
".....a..................",
"....a...................",
"...a....................",
"..a.....................",
".a......................",
"........................",
"........................",
"........................"};
