/* XPM */
static char *rotatex_xpm[]={
"24 24 4 1",
". c None",
"# c #000000",
"b c #ff0000",
"a c #ffffff",
"........................",
"........................",
".........###............",
"........#...#...........",
".......#.....#..........",
".....#.#.#...#..........",
"......###.....#.........",
".......#......#.........",
"..............#.........",
"...............#........",
"..........aa...#........",
"..........bb...#........",
".........bbaa..#........",
".........bbaa..#........",
"..........bb...#........",
"...............#........",
"...............#........",
"...............#........",
".......#......#.........",
".......#......#.........",
"........#.....#.........",
".........#...#..........",
"..........###...........",
"........................"};
