/* XPM */
static char *rotatez_local_xpm[]={
"24 24 3 1",
". c None",
"# c #000000",
"a c #ff0000",
"........................",
"........................",
"........................",
".........#..............",
"........#...............",
".......#######..........",
"........#.....##........",
".........#.....##.......",
".................#......",
"........aaaaaa...#......",
"...#....aa.......#......",
"...#....aa........#.....",
"........aaaaaa....#.....",
"...#....aa........#.....",
"...#....aa........#.....",
"....#...aa........#.....",
"....#...aa.......#......",
"....#...........##......",
".....##.........#.......",
"......##.....###........",
"........##.##...........",
"........................",
"........................",
"........................"};
