/* XPM */
static char * rotate_local_xpm[] = {
"24 24 4 1",
" 	c None",
".	c #000000",
"+	c #FFFFFF",
"@	c #FF0000",
"                        ",
"                        ",
"         ...            ",
"        .   .           ",
"       .     .          ",
"     . . .   .          ",
"      ...     .         ",
"       .      .         ",
"        .......         ",
"     ...       ..       ",
"   ..  @@@@@@  . ..     ",
"  .    @@      .   .    ",
" .     @@      .    .   ",
" .     @@@@@@  .    .   ",
" .     @@      .    .   ",
"  .   .@@      .   .    ",
"   ..  .       .  .     ",
"     ....      .        ",
"       .      .         ",
"      .       .         ",
"        .     .         ",
"         .   .          ",
"          ...           ",
"                        "};
