/* XPM */
static char* run_xpm[]={
"22 22 108 2",
".# c #5d5d5d",
".u c #d9d9d9",
".O c #3274ff",
"#I c #3f1f1f",
".n c #242478",
".C c #888888",
".l c #7777a8",
"#v c #c6c6c6",
"#n c #6d6d6d",
"#. c #faf4fa",
"#r c #5a5a5a",
".g c #989898",
"#t c #3f3f3f",
".R c #3e9f3e",
".i c #a0a0a0",
".7 c #c387c3",
".Q c #f9f9ff",
"#h c #b0b0b0",
"#j c #d3d3d3",
".e c #6060a0",
".h c #b8b8b8",
".A c #9f3737",
".z c #841c1c",
"#M c #705f5f",
"#A c #0e0e0e",
".1 c #9dce9d",
"#J c #240606",
".2 c #0ab02b",
"#E c #270e0e",
".p c #393939",
"#F c #3d3939",
"#l c #1e1e1e",
".K c #8c3c3c",
".V c #9a9a9a",
"#k c #d8d8d8",
"#G c #2e1e1e",
".X c #262626",
"#o c #fbfbfb",
"## c #50a850",
"#y c #2e2e2e",
".y c #660606",
".k c #6c6c6c",
".Z c #5353e4",
".3 c #8094d7",
".r c #363636",
"#H c #2b0b0b",
".m c #181888",
"#b c #1b1b1b",
"Qt c None",
".6 c #979797",
"#D c #040000",
".Y c #0037ff",
".a c #7c7c7c",
"#m c #bababa",
"#K c #120000",
".H c #140000",
".S c #cfe7cf",
".M c #9b0606",
".v c #180000",
".b c #464646",
".j c #848484",
".f c #8080b0",
".P c #9f9fff",
".x c #650b0b",
".W c #717171",
".J c #7d6969",
"#z c #181818",
"#N c #7e3636",
".9 c #a850a8",
"#C c #202020",
"#w c #b7b7b7",
".N c #9c9c9c",
".5 c #dadada",
".w c #650000",
".U c #a4a4a4",
"#L c #700000",
"#g c #898989",
".q c #303030",
"#u c None",
".I c #7c0000",
".F c #f4faf4",
"#P c #860000",
"#O c #8f0000",
"#x c #999999",
"#B c #d7d7d7",
".L c #9f0000",
"#i c #fafafa",
".0 c #f7f7fc",
".4 c #484848",
".o c #2d2d2d",
"#f c #6b6b6b",
"#p c #505050",
"#c c #8e8e8e",
".d c #9696b2",
".s c #cccccc",
"#e c #737373",
".G c #f7f7f7",
".t c #dcdcdc",
".8 c #c6abc6",
"#s c #c1c1c1",
".D c #ffffff",
".B c #a24040",
".T c #323232",
".c c #707070",
".E c #f4f4ff",
"#q c #aeaeae",
"#a c #a8d4a8",
"#d c #787878",
"QtQtQtQtQtQtQtQtQtQtQtQtQtQtQtQtQtQtQtQtQtQt",
"QtQtQtQtQtQtQtQtQtQtQtQtQtQtQtQtQtQtQtQtQtQt",
"QtQtQtQtQtQtQtQtQtQtQtQtQtQtQtQtQtQtQtQtQtQt",
"QtQtQtQtQtQtQtQtQtQtQtQtQtQtQtQtQtQtQtQtQtQt",
"QtQtQtQtQtQt.#.a.a.a.a.a.a.a.a.a.a.a.bQtQtQt",
"QtQtQtQtQtQt.c.d.e.e.e.e.e.f.g.h.i.j.kQtQtQt",
"QtQtQtQtQtQt.c.l.m.m.m.m.m.n.o.p.q.r.kQtQtQt",
"QtQtQtQtQtQt.c.s.t.t.t.t.t.t.t.t.t.u.kQtQtQt",
"QtQt.v.w.x.y.z.A.B.C.D.E.D.D.D.F.D.G.kQtQtQt",
"QtQt.H.I.J.K.L.L.M.N.D.O.P.Q.D.R.S.G.kQtQtQt",
"QtQtQt.T.U.V.j.W.X.D.D.Y.Z.0.1.2.3.G.kQtQtQt",
"QtQtQt.4.5.s.6.U.q.D.7.8.9#..1###a.G.kQtQtQt",
"QtQtQt#b#c#d#e#f#g.D.D#h#h#i#j#h#k.G.kQtQtQt",
"QtQtQtQt#l#m#g#n#o.D.D.G.G.D#o.G#o.G.kQtQtQt",
"QtQtQtQt#p#q.N#r#s.t.t.t.t.t.t.t.t.u.kQtQtQt",
"QtQtQt#t#u#v#w#x#y#z#z#z#z#z#z#z#z#z#AQtQtQt",
"QtQtQt.4#B.c.k.U#CQtQtQtQtQtQtQtQtQtQtQtQtQt",
"QtQt#D#E#F#G#H#I#JQtQtQtQtQtQtQtQtQtQtQtQtQt",
"QtQt#K#L#M#N#O#O#PQtQtQtQtQtQtQtQtQtQtQtQtQt",
"QtQtQtQtQtQtQtQtQtQtQtQtQtQtQtQtQtQtQtQtQtQt",
"QtQtQtQtQtQtQtQtQtQtQtQtQtQtQtQtQtQtQtQtQtQt",
"QtQtQtQtQtQtQtQtQtQtQtQtQtQtQtQtQtQtQtQtQtQt"};
