/* XPM */
static char * scale_stick_xpm[] = {
"24 24 4 1",
"# c #000080",
". c None",
"a c #c00000",
"b c #00c000",
"........................",
"...................##...",
"..................###...",
".................###....",
"...........aa...###.....",
".........aaaaaa###......",
".......aaaa..aa##.......",
".......aa....###........",
".......aa...###.........",
".......aaa.b##..........",
".........aabb...........",
".........baaa...........",
"........bbb.aa..........",
".......bbb...aaa........",
"......bbb.....aa........",
".....bbb......aa........",
"....bbb.aa..aaaa........",
"...bbb..aaaaaa..........",
"..bbb.....aa............",
"..bb....................",
"........................",
"........................",
"........................",
"........................"};
