/* XPM */
static char * scale_ball_xpm[] = {
"24 24 3 1",
"# c #0000c0",
". c None",
"a c #c00000",
"........................",
"........#######.........",
"......###########.......",
".....#############......",
"....#######aa######.....",
"...######aaaaaa#####....",
"..#####aaaa##aa######...",
"..#####aa############...",
".######aa#############..",
".######aaa############..",
".########aa###########..",
".#########aaa#########..",
".###########aa########..",
".############aaa######..",
".#############aa######..",
"..############aa#####...",
"..######aa##aaaa#####...",
"...#####aaaaaa######....",
"....######aa#######.....",
".....#############......",
"......###########.......",
"........#######.........",
"........................",
"........................"};
