/* XPM */
static char * selectresidue_xpm[] = {
"24 24 3 1",
" 	c None",
".	c #505050",
"+	c #F40E31",
"..... ...... ..... .....",
"..... ...... ..... .....",
"..... ...... ..... .....",
"...                  ...",
"...   ++++++++       ...",
"      +++++++++         ",
"...   ++++++++++     ...",
"...   +++    +++     ...",
"...   +++    +++     ...",
"...   +++    +++     ...",
"...   +++    +++     ...",
"...   +++ ++++++     ...",
"      +++++++++         ",
"...   ++++++++       ...",
"...   +++++++        ...",
"...   +++ +++        ...",
"...   +++ ++++       ...",
"...   +++  ++++      ...",
"      +++   +++         ",
"...   +++   ++++     ...",
"...                  ...",
"..... ...... ..... .....",
"..... ...... ..... .....",
"..... ...... ..... ....."};
