/* XPM */
static char * select_xpm[] = {
"24 24 2 1",
"b c None",
". c #505050",
".....b......b.....b.....",
".....b......b.....b.....",
".....b......b.....b.....",
"...bbbbbbbbbbbbbbbbbb...",
"...bbbbbbbbbbbbbbbbbb...",
"bbbbbbbbbbbbbbbbbbbbbbbb",
"...bbbbbbbbbbbbbbbbbb...",
"...bbbbbbbbbbbbbbbbbb...",
"...bbbbbbbbbbbbbbbbbb...",
"...bbbbbbbbbbbbbbbbbb...",
"...bbbbbbbbbbbbbbbbbb...",
"...bbbbbbbbbbbbbbbbbb...",
"bbbbbbbbbbbbbbbbbbbbbbbb",
"...bbbbbbbbbbbbbbbbbb...",
"...bbbbbbbbbbbbbbbbbb...",
"...bbbbbbbbbbbbbbbbbb...",
"...bbbbbbbbbbbbbbbbbb...",
"...bbbbbbbbbbbbbbbbbb...",
"bbbbbbbbbbbbbbbbbbbbbbbb",
"...bbbbbbbbbbbbbbbbbb...",
"...bbbbbbbbbbbbbbbbbb...",
".....b......b.....b.....",
".....b......b.....b.....",
".....b......b.....b....."};
