/* XPM */
static char * selectall_xpm[] = {
"24 24 5 1",
" 	c None",
".	c #000000",
"+	c #FFFFFF",
"@	c #CCCCCC",
"#	c #CCCCFF",
"  ..........            ",
"  .++++++++.            ",
"  .+@@@@@@@.            ",
"  .+@..........         ",
"  .+@.+++++@@@.         ",
"  .+@.++++@.......      ",
"  .+@.+++@..+++++.      ",
"  .+@.++@.+.+++++.      ",
"  .+@.+@....++##+.      ",
"  .+@.+@.+++++##+.      ",
"  .+@.+@.+++####+.      ",
"  .+@.+@.++###..+.      ",
"  .+@.+@.+####....      ",
"  ....+@.+####....      ",
"     .+@.+####.....     ",
"     .+@.+####......    ",
"     ....+####.......   ",
"        .+++++.....     ",
"        ............    ",
"              .  ...    ",
"                  ...   ",
"                  ...   ",
"                   ..   ",
"                        "};
