/* XPM */
static char * vasp_mini_xpm[] = {
"16 16 86 1",
" 	c None",
".	c #785590",
"+	c #854698",
"@	c #796292",
"#	c #794D89",
"$	c #786B8E",
"%	c #8A4487",
"&	c #896CBA",
"*	c #8A77CE",
"=	c #736BC2",
"-	c #943F97",
";	c #8F4789",
">	c #975484",
",	c #AE2A79",
"'	c #777C8E",
")	c #6D7287",
"!	c #66537D",
"~	c #823DA2",
"{	c #8172BE",
"]	c #6A42CC",
"^	c #53528E",
"/	c #62629A",
"(	c #8289C7",
"_	c #7B83A7",
":	c #9E3696",
"<	c #925591",
"[	c #7D5E7C",
"}	c #C34370",
"|	c #A95A8C",
"1	c #9F418F",
"2	c #8B499A",
"3	c #846DAA",
"4	c #71709D",
"5	c #7A51C7",
"6	c #505073",
"7	c #5D32A6",
"8	c #6B57A3",
"9	c #7D5F99",
"0	c #9757A2",
"a	c #817394",
"b	c #596163",
"c	c #CB5A67",
"d	c #A0657D",
"e	c #65707A",
"f	c #886BA4",
"g	c #872E9A",
"h	c #774AA4",
"i	c #616586",
"j	c #5A32A7",
"k	c #605691",
"l	c #7B4E8C",
"m	c #8979A8",
"n	c #79768F",
"o	c #636A6C",
"p	c #9B6873",
"q	c #AD5989",
"r	c #964588",
"s	c #825696",
"t	c #8743A1",
"u	c #5B3DA9",
"v	c #6759AB",
"w	c #7B4490",
"x	c #616579",
"y	c #687580",
"z	c #666272",
"A	c #795E85",
"B	c #8B57A8",
"C	c #8164B1",
"D	c #645CBE",
"E	c #6D3CC5",
"F	c #6B4F93",
"G	c #7B54A3",
"H	c #454751",
"I	c #765A85",
"J	c #794D84",
"K	c #664D77",
"L	c #8250A3",
"M	c #717B9A",
"N	c #694EC4",
"O	c #7B37C4",
"P	c #7A5CA8",
"Q	c #6C5A7D",
"R	c #805696",
"S	c #8258A3",
"T	c #775897",
"U	c #5F678C",
"                ",
"                ",
"                ",
"                ",
"      .+        ",
"     @#$%   &*= ",
"     -;>,')!~{]^",
" /( _:<[}|123456",
" 78 90abcdefghi ",
" jk lmnopqrst   ",
" uv wx  yzABC   ",
" DEFGH  IJKLM   ",
"  NOP   QRST    ",
"   U            ",
"                ",
"                "};
