/* XPM */
static char * vasp_xpm[] = {
"22 22 161 2",
"  	c None",
". 	c #444D4E",
"+ 	c #7970A3",
"@ 	c #797FA0",
"# 	c #8670A9",
"$ 	c #8B2A96",
"% 	c #8C2692",
"& 	c #767A94",
"* 	c #6B758D",
"= 	c #8E2692",
"- 	c #5F6E7A",
"; 	c #7F6D95",
"> 	c #9F409C",
", 	c #434D4D",
"' 	c #8083B1",
") 	c #9079C9",
"! 	c #8E79D1",
"~ 	c #857AD9",
"{ 	c #65779D",
"] 	c #9151A0",
"^ 	c #9269A7",
"/ 	c #4C5B5E",
"( 	c #8290A1",
"_ 	c #B61685",
": 	c #6B7683",
"< 	c #444F50",
"[ 	c #8636A1",
"} 	c #8020A2",
"| 	c #8583C1",
"1 	c #7848D1",
"2 	c #531DDA",
"3 	c #4F656E",
"4 	c #59686C",
"5 	c #9A1F8E",
"6 	c #AC2490",
"7 	c #B62A8B",
"8 	c #C61A70",
"9 	c #CF015A",
"0 	c #8B7F99",
"a 	c #737F90",
"b 	c #72718C",
"c 	c #67868F",
"d 	c #872493",
"e 	c #8074AA",
"f 	c #7886B3",
"g 	c #5F13D4",
"h 	c #546A77",
"i 	c #4C5B61",
"j 	c #7467C9",
"k 	c #8691C6",
"l 	c #7A88A4",
"m 	c #888BBE",
"n 	c #A22A92",
"o 	c #A55DA5",
"p 	c #61727C",
"q 	c #65787E",
"r 	c #CE3F62",
"s 	c #B17B9D",
"t 	c #C12579",
"u 	c #AE2F94",
"v 	c #9C3296",
"w 	c #8758AB",
"x 	c #8487AE",
"y 	c #6A7B8F",
"z 	c #7F31C3",
"A 	c #7E76D1",
"B 	c #3B4040",
"C 	c #4F647C",
"D 	c #6A0BC9",
"E 	c #706CA2",
"F 	c #667989",
"G 	c #8C53A7",
"H 	c #9F49A1",
"I 	c #78748D",
"J 	c #4C5A5A",
"K 	c #CA666A",
"L 	c #C84F6D",
"M 	c #707F87",
"N 	c #536366",
"O 	c #949AC1",
"P 	c #8C369A",
"Q 	c #842C9B",
"R 	c #7F37B1",
"S 	c #7B7BB7",
"T 	c #424A4C",
"U 	c #475A79",
"V 	c #690BC9",
"W 	c #5F6581",
"X 	c #526366",
"Y 	c #8F53A8",
"Z 	c #9B64B1",
"` 	c #9871A6",
" .	c #7D757B",
"..	c #D44451",
"+.	c #C15876",
"@.	c #AA5B8A",
"#.	c #6E7E8A",
"$.	c #5E6F74",
"%.	c #8E1B8C",
"&.	c #83339D",
"*.	c #596B77",
"=.	c #50617A",
"-.	c #6310D0",
";.	c #5F6A83",
">.	c #627577",
",.	c #8D2992",
"'.	c #7F9AAE",
").	c #5F7A7B",
"!.	c #4D6060",
"~.	c #648181",
"{.	c #8D8395",
"].	c #BB358B",
"^.	c #AF0C81",
"/.	c #9767B1",
"(.	c #8646A2",
"_.	c #8763AD",
":.	c #54656E",
"<.	c #601DD5",
"[.	c #696BA4",
"}.	c #657888",
"|.	c #862292",
"1.	c #58666E",
"2.	c #64727C",
"3.	c #64797F",
"4.	c #495456",
"5.	c #767B92",
"6.	c #8E409A",
"7.	c #8478BE",
"8.	c #8058B2",
"9.	c #6850D4",
"0.	c #7845CF",
"a.	c #4E5D5E",
"b.	c #7C5FA7",
"c.	c #8457AC",
"d.	c #3B4242",
"e.	c #755D85",
"f.	c #8E6BA1",
"g.	c #4E5E5E",
"h.	c #516060",
"i.	c #8658A4",
"j.	c #8375BB",
"k.	c #648085",
"l.	c #5E7297",
"m.	c #640ECF",
"n.	c #8049CC",
"o.	c #8011AC",
"p.	c #686C89",
"q.	c #5D6272",
"r.	c #951688",
"s.	c #8C3398",
"t.	c #833097",
"u.	c #800A8C",
"v.	c #77759F",
"w.	c #6B75C4",
"x.	c #6E13C8",
"y.	c #8878C4",
"z.	c #6B7688",
"A.	c #816EA6",
"B.	c #836FAE",
"C.	c #717B9A",
"D.	c #5A7080",
"                                            ",
"                                            ",
"                                            ",
"                                            ",
"                                            ",
"                . + @                       ",
"                # $ % &                     ",
"              * = - ; > ,       ' ) ! ~ {   ",
"              ] ^ / ( _ :     < [ } | 1 2 3 ",
"            4 5 6 7 8 9 0 a b c d e   f g h ",
"  i j k   l m n o p q r s t u v w x y z A B ",
"  C D E   F G H I   J K L M N O P Q R S T   ",
"  U V W   X Y Z `    ...+.@.#.$.%.&.*.      ",
"  =.-.;.  >.,.'.).  !.~.{.].^./.(._.        ",
"  :.<.[.  }.|.1.      2.3.4.5.6.7.8.        ",
"    9.0.a.b.c.d.      e.f.g.h.i.j.k.        ",
"    l.m.n.o.p.        q.r.s.t.u.v.          ",
"      w.x.y.            z.A.B.C.            ",
"        D.                                  ",
"                                            ",
"                                            ",
"                                            "};
