/* XPM */
static char* warning_xpm[]={
"48 48 186 2",
".m c #9a1c0f",
"az c #cb8914",
"aa c #cf8c12",
".x c #b72010",
".N c #ba2010",
"a2 c #731711",
"aK c #8b1c15",
"#8 c #d7a81a",
"#3 c #871b12",
".# c #d22411",
"aW c #73160e",
"aE c #d8a51c",
"#x c #ea2915",
"ay c #c77e14",
"ao c #c87e14",
"#V c #8d1b12",
".7 c #191300",
"aq c #dfad13",
".L c #901a0f",
".C c #911a0f",
"#H c #0a0800",
"aw c #b95b13",
"#t c #251d03",
"#l c #4e3d06",
"an c #d82715",
"ag c #7b1912",
"#W c #bd9312",
"#u c #413206",
".t c #db2612",
".G c #de2612",
".D c #c56b12",
"aL c #6a130b",
"ai c #3c2e05",
"#w c #991d13",
".H c #dcae11",
"#k c #d08c13",
"#0 c #cb8617",
"#R c #513f07",
".P c #c39b0f",
".K c #cf8812",
"aZ c #861b13",
"#s c #1e1702",
".V c #d12412",
"aT c #5d110b",
"aV c #6e150c",
"#X c #675009",
"aA c #daaa16",
"#o c #dbaa16",
"#Q c #382c05",
".Y c #130f00",
"aN c #78150c",
"#F c #050400",
".X c #070400",
"#5 c #cb9e13",
"ak c #745a0c",
".c c #a71d0e",
"av c #bf2212",
"ax c #c16f14",
"#r c #d92613",
".3 c #e0b213",
"ad c #69520a",
"#U c #d8a919",
"#f c #dc2613",
"aX c #801810",
"#K c #981d14",
"at c #d7a816",
"#m c #403104",
".z c #e1ae12",
"#Y c #312604",
"aG c #ab4216",
".Z c #020200",
".e c #9b1b0e",
"#g c #271e02",
".g c #b31f0f",
"a0 c #851b14",
"aF c #c57e16",
".n c #ca2310",
"#1 c #9a1f15",
".l c #b14010",
".I c #b9930e",
"#i c #423305",
"#2 c #9d1f15",
"#J c #daaa17",
"aY c #881a11",
".1 c #e82814",
"#q c #891a11",
"#L c #130f01",
".9 c #9d1e12",
"#d c #a01e12",
".R c #0e0b00",
"as c #7c610c",
".r c #a01d0f",
"#y c #a21d0f",
".q c #a31d0f",
"#a c #000000",
"#c c #292003",
".6 c #010000",
".u c #a61d0f",
".a c #a91d0f",
"a# c #d22614",
"aD c #d8a91a",
"#n c #453506",
".b c #d52511",
".S c #403105",
".8 c #dcab15",
"#G c #100d01",
"#A c #0b0900",
"ar c #312605",
".2 c #b21f10",
"#7 c #c49813",
".A c #d28814",
"#T c #71570a",
"af c #991f16",
"al c #9c1f16",
".f c #e02712",
"#C c #9c1e13",
"aM c #6f140b",
".J c #deac13",
"#v c #9f1e13",
"aP c #8a190f",
"#z c #090700",
".B c #9f1d10",
".E c #a11d10",
".i c #8a180c",
".F c #a21d10",
"au c #bf6f16",
"#M c #524007",
"#4 c #b62111",
"#Z c #c79a14",
"#6 c #241c03",
"#p c #cc8614",
"#j c #bd2111",
".O c #d18912",
"aH c #781812",
"ah c #ec2a16",
"aU c #60120b",
".w c #dfb112",
"ap c #e0ae14",
".j c #ec2913",
"#e c #8f1b10",
"aQ c #931b10",
".v c #e0ad11",
"ae c #c98517",
".o c #bb5b11",
"#. c #c82312",
"a1 c #801a13",
"aR c #981f17",
"aJ c #9b1f17",
"aC c #d9aa19",
"#h c #1d1602",
"Qt c None",
"#O c #9b1e14",
"#D c #861910",
"#N c #9e1e14",
"aO c #86180d",
"aj c #090701",
".U c #9e1d11",
"#I c #332704",
".T c #a11d11",
"#b c #040300",
".4 c #2c2303",
".d c #a11c0e",
".y c #a31c0e",
".h c #a41c0e",
"#B c #cc8615",
"aI c #cd2513",
".k c #b9200f",
"#E c #d42513",
"am c #8c1c14",
"aS c #571109",
"aB c #dbab17",
"#P c #7a1710",
"#S c #151001",
".M c #ef2914",
".s c #921a0e",
".Q c #010100",
"ac c #020100",
".W c #7a6109",
".5 c #030100",
"a3 c #4d100c",
"## c #251d02",
"ab c #4b3a07",
".0 c #cd8713",
".p c #c26f12",
"#9 c #c16916",
"a. c #971e15",
"QtQtQtQtQtQtQtQtQtQtQtQtQtQtQtQtQtQtQtQtQtQtQtQtQtQtQtQtQtQtQtQtQtQtQtQtQtQtQtQtQtQtQtQtQtQtQtQt",
"QtQtQtQtQtQtQtQtQtQtQtQtQtQtQtQtQtQtQtQtQtQtQtQtQtQtQtQtQtQtQtQtQtQtQtQtQtQtQtQtQtQtQtQtQtQtQtQt",
"QtQtQtQtQtQtQtQtQtQtQtQtQtQtQtQtQtQtQtQtQtQtQtQtQtQtQtQtQtQtQtQtQtQtQtQtQtQtQtQtQtQtQtQtQtQtQtQt",
"QtQtQtQtQtQtQtQtQtQtQtQtQtQtQtQtQtQtQtQtQtQtQtQtQtQtQtQtQtQtQtQtQtQtQtQtQtQtQtQtQtQtQtQtQtQtQtQt",
"QtQtQtQtQtQtQtQtQtQtQtQtQtQtQtQtQtQtQtQtQtQtQtQtQtQtQtQtQtQtQtQtQtQtQtQtQtQtQtQtQtQtQtQtQtQtQtQt",
"QtQtQtQtQtQtQtQtQtQtQtQtQtQtQtQtQtQtQtQtQtQtQtQtQtQtQtQtQtQtQtQtQtQtQtQtQtQtQtQtQtQtQtQtQtQtQtQt",
"QtQtQtQtQtQtQtQtQtQtQtQtQtQtQtQtQtQtQtQtQtQtQtQtQtQtQtQtQtQtQtQtQtQtQtQtQtQtQtQtQtQtQtQtQtQtQtQt",
"QtQtQtQtQtQtQtQtQtQtQtQtQtQtQtQtQtQtQtQtQtQtQtQtQtQtQtQtQtQtQtQtQtQtQtQtQtQtQtQtQtQtQtQtQtQtQtQt",
"QtQtQtQtQtQtQtQtQtQtQtQtQtQtQtQtQtQtQtQtQtQtQtQtQt.#.aQtQtQtQtQtQtQtQtQtQtQtQtQtQtQtQtQtQtQtQtQt",
"QtQtQtQtQtQtQtQtQtQtQtQtQtQtQtQtQtQtQtQtQtQtQtQt.b.c.d.eQtQtQtQtQtQtQtQtQtQtQtQtQtQtQtQtQtQtQtQt",
"QtQtQtQtQtQtQtQtQtQtQtQtQtQtQtQtQtQtQtQtQtQtQt.f.g.h.h.d.iQtQtQtQtQtQtQtQtQtQtQtQtQtQtQtQtQtQtQt",
"QtQtQtQtQtQtQtQtQtQtQtQtQtQtQtQtQtQtQtQtQtQt.j.k.h.h.l.h.mQtQtQtQtQtQtQtQtQtQtQtQtQtQtQtQtQtQtQt",
"QtQtQtQtQtQtQtQtQtQtQtQtQtQtQtQtQtQtQtQtQtQt.n.h.h.o.p.q.r.sQtQtQtQtQtQtQtQtQtQtQtQtQtQtQtQtQtQt",
"QtQtQtQtQtQtQtQtQtQtQtQtQtQtQtQtQtQtQtQtQt.t.u.h.h.v.w.q.q.rQtQtQtQtQtQtQtQtQtQtQtQtQtQtQtQtQtQt",
"QtQtQtQtQtQtQtQtQtQtQtQtQtQtQtQtQtQtQtQt.j.x.h.y.z.w.w.A.q.B.CQtQtQtQtQtQtQtQtQtQtQtQtQtQtQtQtQt",
"QtQtQtQtQtQtQtQtQtQtQtQtQtQtQtQtQtQtQtQt.n.h.h.D.w.w.w.w.E.F.BQtQtQtQtQtQtQtQtQtQtQtQtQtQtQtQtQt",
"QtQtQtQtQtQtQtQtQtQtQtQtQtQtQtQtQtQtQt.G.u.h.h.v.H.I.H.J.K.F.B.LQtQtQtQtQtQtQtQtQtQtQtQtQtQtQtQt",
"QtQtQtQtQtQtQtQtQtQtQtQtQtQtQtQtQtQt.M.N.h.h.O.P.Q.R.S.J.J.F.T.UQtQtQtQtQtQtQtQtQtQtQtQtQtQtQtQt",
"QtQtQtQtQtQtQtQtQtQtQtQtQtQtQtQtQtQt.V.h.h.h.w.W.X.Y.Z.J.J.0.T.U.LQtQtQtQtQtQtQtQtQtQtQtQtQtQtQt",
"QtQtQtQtQtQtQtQtQtQtQtQtQtQtQtQtQt.1.2.h.h.3.w.4.5.6.7.J.J.8.T.T.9QtQtQtQtQtQtQtQtQtQtQtQtQtQtQt",
"QtQtQtQtQtQtQtQtQtQtQtQtQtQtQtQtQt#..h.h.A.w.w###a#b#c.J.8.8.0#d.9#eQtQtQtQtQtQtQtQtQtQtQtQtQtQt",
"QtQtQtQtQtQtQtQtQtQtQtQtQtQtQtQt#f.u.h.q.w.w.w#g#a#h#i.8.8.8.8#d#d.9QtQtQtQtQtQtQtQtQtQtQtQtQtQt",
"QtQtQtQtQtQtQtQtQtQtQtQtQtQtQtQt#j.h.h#k.w.w.J#l#a#m#n.8.8.8#o#p#d.9#qQtQtQtQtQtQtQtQtQtQtQtQtQt",
"QtQtQtQtQtQtQtQtQtQtQtQtQtQtQt#r.u.h.q.w.w.w.J#s.Q#t#u.8.8#o#o#o#d#v#wQtQtQtQtQtQtQtQtQtQtQtQtQt",
"QtQtQtQtQtQtQtQtQtQtQtQtQtQt#x.x.h#y.3.w.w.J.J#z.Q#A#t.8#o#o#o#o#B#v#C#DQtQtQtQtQtQtQtQtQtQtQtQt",
"QtQtQtQtQtQtQtQtQtQtQtQtQtQt#E.h.q.A.w.w.J.J.J#F#G#H#I#o#o#o#o#J#J#v#v#KQtQtQtQtQtQtQtQtQtQtQtQt",
"QtQtQtQtQtQtQtQtQtQtQtQtQt#x.x.q.q.w.w.J.J.J.J#F#L#b#M#o#o#o#J#J#J#B#N#O#PQtQtQtQtQtQtQtQtQtQtQt",
"QtQtQtQtQtQtQtQtQtQtQtQtQt#E.q.q#k.w.J.J.J.J.8#Q#R#S#T#o#o#J#J#J#J#U#N#N#VQtQtQtQtQtQtQtQtQtQtQt",
"QtQtQtQtQtQtQtQtQtQtQtQt#x.x.q.q.w.J.J.J.J.8.8#W#X#Y#Z#o#o#J#J#J#U#U#0#N#1QtQtQtQtQtQtQtQtQtQtQt",
"QtQtQtQtQtQtQtQtQtQtQtQt#E.q.q#k.w.J.J.J.8.8.8.8#o#o#o#o#J#J#J#J#U#U#U#2#1#3QtQtQtQtQtQtQtQtQtQt",
"QtQtQtQtQtQtQtQtQtQtQt#x#4.q.q.w.J.J.J.8.8.8.8#5#t#6#7#J#J#J#J#U#U#U#8#9#2a.QtQtQtQtQtQtQtQtQtQt",
"QtQtQtQtQtQtQtQtQtQtQta#.q.qaa.J.J.J.J.8.8.8#oabacacad#J#J#J#U#U#U#U#8ae#2afagQtQtQtQtQtQtQtQtQt",
"QtQtQtQtQtQtQtQtQtQtah#4.q.q.J.J.J.J.8.8.8.8#oai#bajak#J#J#U#U#U#U#8#8#8#2alamQtQtQtQtQtQtQtQtQt",
"QtQtQtQtQtQtQtQtQtQtan.q.qaoapaq.J.8.8.8.8#o#o#Warasat#J#U#U#U#U#8#8#8#8aualafQtQtQtQtQtQtQtQtQt",
"QtQtQtQtQtQtQtQtQtQtav.q.F.F.F.F.T.T.TawaxayazaAaBaBaBaCaCaCaCaDaDaDaDaEaFaGafaHQtQtQtQtQtQtQtQt",
"QtQtQtQtQtQtQtQtQtaI.q.r.F.F.F.T.T.T.T#d#d#d#d#v#v#v#v#N#N#N#2#2#2#2alalalalaJaKQtQtQtQtQtQtQtQt",
"QtQtQtQtQtQtQtQtQtQtQtaLaMaNaOaPaQ.U.9#d#d#d#v#v#v#v#N#N#N#2#2#2#2alalalalaJaJaRQtQtQtQtQtQtQtQt",
"QtQtQtQtQtQtQtQtQtQtQtQtQtQtQtQtQtaSaTaUaVaWaWaWaXaYaYaYaY#3#3#3aZaZaZaZa0a0a1a2a3QtQtQtQtQtQtQt",
"QtQtQtQtQtQtQtQtQtQtQtQtQtQtQtQtQtQtQtQtQtQtQtQtQtQtQtQtQtQtQtQtQtQtQtQtQtQtQtQtQtQtQtQtQtQtQtQt",
"QtQtQtQtQtQtQtQtQtQtQtQtQtQtQtQtQtQtQtQtQtQtQtQtQtQtQtQtQtQtQtQtQtQtQtQtQtQtQtQtQtQtQtQtQtQtQtQt",
"QtQtQtQtQtQtQtQtQtQtQtQtQtQtQtQtQtQtQtQtQtQtQtQtQtQtQtQtQtQtQtQtQtQtQtQtQtQtQtQtQtQtQtQtQtQtQtQt",
"QtQtQtQtQtQtQtQtQtQtQtQtQtQtQtQtQtQtQtQtQtQtQtQtQtQtQtQtQtQtQtQtQtQtQtQtQtQtQtQtQtQtQtQtQtQtQtQt",
"QtQtQtQtQtQtQtQtQtQtQtQtQtQtQtQtQtQtQtQtQtQtQtQtQtQtQtQtQtQtQtQtQtQtQtQtQtQtQtQtQtQtQtQtQtQtQtQt",
"QtQtQtQtQtQtQtQtQtQtQtQtQtQtQtQtQtQtQtQtQtQtQtQtQtQtQtQtQtQtQtQtQtQtQtQtQtQtQtQtQtQtQtQtQtQtQtQt",
"QtQtQtQtQtQtQtQtQtQtQtQtQtQtQtQtQtQtQtQtQtQtQtQtQtQtQtQtQtQtQtQtQtQtQtQtQtQtQtQtQtQtQtQtQtQtQtQt",
"QtQtQtQtQtQtQtQtQtQtQtQtQtQtQtQtQtQtQtQtQtQtQtQtQtQtQtQtQtQtQtQtQtQtQtQtQtQtQtQtQtQtQtQtQtQtQtQt",
"QtQtQtQtQtQtQtQtQtQtQtQtQtQtQtQtQtQtQtQtQtQtQtQtQtQtQtQtQtQtQtQtQtQtQtQtQtQtQtQtQtQtQtQtQtQtQtQt",
"QtQtQtQtQtQtQtQtQtQtQtQtQtQtQtQtQtQtQtQtQtQtQtQtQtQtQtQtQtQtQtQtQtQtQtQtQtQtQtQtQtQtQtQtQtQtQtQt"};
