/* XPM */
static char* yes_xpm[]={
"20 20 186 2",
".C c #040404",
"ab c #829d7a",
"am c #427732",
"#. c #d1e0cd",
"#r c #4b8639",
".8 c #d2e0cd",
"#Y c #719166",
"ah c #5c8b4e",
".M c #4d803d",
"#l c #c0d4b9",
"#I c #3f752c",
".s c #58704f",
"ae c #5b844f",
".7 c #bed3b6",
".W c #adc8a5",
".p c #598948",
"#N c #81a875",
".2 c #3c6e2d",
".v c #abc7a2",
"#j c #9bbc91",
".w c #9cbc91",
"an c #568249",
"#8 c #427c31",
"aG c #4b723f",
"aY c #030502",
".6 c #9abb8e",
".J c #89b07d",
"#Z c #5a7651",
"#M c #567b4a",
".X c #87af7a",
".f c #467039",
"a3 c #374c2f",
"aD c #809a77",
"#R c #679958",
"#a c #84ae77",
".U c #dfe8db",
".b c #090c07",
".V c #ccdcc7",
"ad c #040703",
"aR c #4e7142",
".S c #b5cead",
"a# c #537f46",
".I c #a6c39c",
"#t c #40792e",
"#Q c #76a269",
".0 c #4a8239",
"ap c #87a07f",
"af c #679059",
"aI c #4b753e",
"#1 c #719964",
"aP c #203619",
".1 c #447934",
"#c c #4d883b",
".r c #1d3516",
"a. c #427831",
".Q c #0e110c",
"#g c #386827",
"as c #253d1e",
".5 c #3e5736",
"aA c #5b854e",
".x c #80a974",
".o c #649455",
"ar c #050704",
"#u c #396e29",
"aH c #4a733e",
"#H c #427d30",
".h c #030601",
".a c #030303",
"ay c #447734",
"#p c #7aa66b",
"#W c #417631",
"#i c #638657",
".g c #26421d",
"ao c #6f9065",
"#E c #679a57",
"aL c #608554",
"#2 c #799f6c",
".j c #405639",
".H c #c0d3b8",
".F c #bcd2b5",
"#3 c #739d66",
"ai c #588847",
"aO c #3b5433",
"ak c #477d36",
"aE c #2f4429",
"au c #59824b",
"## c #aac6a1",
".e c #619152",
"av c #558148",
"a2 c #5e7756",
"aq c #76916e",
"#5 c #5e904f",
"az c #477637",
".A c #487637",
".4 c #020401",
"#w c #2f5623",
"aV c #819a79",
".y c #69995a",
".# c #000000",
".z c #4e7e3f",
".K c #679857",
".D c #3e5439",
"#G c #478235",
".O c #3f7030",
"#d c #498235",
".i c #080808",
"ac c #3e5336",
"#F c #528b40",
"aM c #77966d",
"#X c #57804b",
"aX c #2c4126",
"at c #557f48",
".c c #36502d",
"#e c #437930",
"#n c #b5cdac",
"#4 c #6c985d",
".R c #88ad7c",
"#9 c #3f782d",
".m c #85ac79",
"#J c #427231",
"#C c #92b687",
"#L c #517746",
".E c #9fc095",
"#s c #447f32",
".Z c #518940",
".9 c #e4ede2",
"aJ c #4b743d",
"ag c #638e55",
"aa c #74936a",
"#q c #5c924b",
"#v c #386829",
"al c #427730",
"#0 c #334d2a",
"#z c #a1bf98",
".k c #85aa79",
".u c #afc9a6",
"#B c #a0be95",
".n c #729e65",
"#y c #8fb384",
".q c #4a793c",
".l c #8cb281",
"aU c #76926d",
"#U c #417c2f",
".N c #457736",
".d c #547b48",
"#T c #498437",
".Y c #669956",
".T c #cdddc8",
".B c #224019",
"#K c #4f7942",
"aF c #2f4a27",
".P c #18300f",
"aB c #76976c",
"Qt c None",
"#x c #6f9b62",
"#O c #8db081",
"aT c #69865f",
"aZ c #2c4225",
"aS c #587b4e",
"#P c #8baf7e",
"#o c #95b889",
"aw c #4f7e41",
"#7 c #4b833a",
"aN c #7e9875",
".3 c #346326",
"#S c #578c45",
"#b c #639653",
"aK c #4c763f",
"aC c #85a07d",
".G c #c8d9c2",
"a1 c #6a8562",
"#m c #c5d8bf",
"a0 c #4f6a47",
"#k c #b6cdae",
"aj c #4d823d",
"aW c #728d6a",
"#A c #a3c19a",
"#V c #3e772c",
"#h c #1a3411",
".t c #9fbf94",
".L c #558a45",
"#6 c #578a45",
"ax c #4a7a3b",
"#D c #80a972",
"#f c #3a6f2a",
"aQ c #436538",
"QtQtQtQtQtQtQtQtQtQtQtQtQtQtQtQtQtQtQtQt",
"QtQtQtQtQtQtQt.#.#.#.#.#QtQtQtQtQtQtQtQt",
"QtQtQtQtQt.a.b.c.d.e.f.g.h.#QtQtQtQtQtQt",
"QtQtQtQt.i.j.k.l.m.n.o.p.q.r.#QtQtQtQtQt",
"QtQtQtQt.s.t.u.v.w.x.y.p.z.A.B.#QtQtQtQt",
"QtQt.C.D.E.F.G.H.I.J.K.L.M.N.O.P.#QtQtQt",
"QtQt.Q.R.S.T.U.V.W.X.Y.Z.0.1.2.3.4QtQtQt",
"Qt.#.5.6.7.8.9#.###a#b#c#d#e#f#g#h.#QtQt",
"Qt.##i#j#k#l#m#n#o#p#q#r#s#t#u#v#w.#QtQt",
"Qt.##x#y#z#A#B#C#D#E#F#G#H#I#J#K#L.#QtQt",
"Qt.##M#N#O#P.x#Q#R#S#T#U#V#W#X#Y#Z.#QtQt",
"Qt.##0#1#2#3#4#5#6#7#8#9a.a#aaabac.#QtQt",
"QtQtadaeafagahaiajakalamanaoapaqarQtQtQt",
"QtQt.#asatauavawaxayazaAaBaCaDaE.#QtQtQt",
"QtQtQt.#aFaGaHaIaJaKaLaMapaNaO.#QtQtQtQt",
"QtQtQtQt.#aPaQaRaSaTaUaVaWaX.#QtQtQtQtQt",
"QtQtQtQtQt.#aYaZa0a1a2a3ar.#QtQtQtQtQtQt",
"QtQtQtQtQtQtQt.#.#.#.#.#QtQtQtQtQtQtQtQt",
"QtQtQtQtQtQtQtQtQtQtQtQtQtQtQtQtQtQtQtQt",
"QtQtQtQtQtQtQtQtQtQtQtQtQtQtQtQtQtQtQtQt"};
