/* XPM */
static char * zoom_xpm[] = {
"24 24 4 1",
" 	c None",
".	c #000000",
"+	c #FFFFFF",
"@	c #C0C0C0",
"                        ",
"     ........           ",
"    ..........          ",
"   ...       ..         ",
"  ...         ..        ",
"  ..           ..       ",
" ..             ..      ",
" ..             ..      ",
" .. +           ..      ",
" .. +           ..      ",
" .. +           ..      ",
" .. ++          ..      ",
" .. +++         ..      ",
"  .. +++       ..       ",
"   ..@+++++   ...       ",
"    ..       .....      ",
"     ..............     ",
"      .......  .....    ",
"                .....   ",
"                 .....  ",
"                  ....  ",
"                   ...  ",
"                        ",
"                        "};
